SplineFontDB: 3.2
FontName: Umpush-Light
FullName: Umpush Light
FamilyName: Umpush
Weight: Light
Copyright: Copyright (c) 2003 NECTEC. All rights reserved.\nCopyright (c) 2007 Widhaya Trisarnwadhana. All rights reserved.\nModified under GNU General Public License by TLWG.
Version: 001.002
ItalicAngle: 0
UnderlinePosition: -85
UnderlineWidth: 10
Ascent: 1638
Descent: 410
InvalidEm: 0
LayerCount: 3
Layer: 0 0 "Back" 1
Layer: 1 0 "Fore" 0
Layer: 2 1 "Quad" 0
FSType: 0
OS2Version: 4
OS2_WeightWidthSlopeOnly: 0
OS2_UseTypoMetrics: 1
CreationTime: 1176605901
ModificationTime: 1587986145
PfmFamily: 33
TTFWeight: 300
TTFWidth: 5
LineGap: 0
VLineGap: 0
Panose: 2 11 3 4 2 2 2 2 2 4
OS2TypoAscent: 2741
OS2TypoAOffset: 0
OS2TypoDescent: -1312
OS2TypoDOffset: 0
OS2TypoLinegap: 0
OS2WinAscent: 0
OS2WinAOffset: 1
OS2WinDescent: 0
OS2WinDOffset: 1
HheadAscent: 0
HheadAOffset: 1
HheadDescent: 0
HheadDOffset: 1
OS2Vendor: 'PfEd'
Lookup: 4 0 1 "'liga' Standard Ligatures lookup 0" { "'liga' Standard Ligatures lookup 0"  } ['liga' ('latn' <'dflt' > ) ]
Lookup: 6 0 0 "'ccmp' Thai Tone Tilde Reordering" { "'ccmp' Thai Tone Tilde Reordering"  } ['ccmp' ('DFLT' <'dflt' > 'latn' <'dflt' > 'thai' <'KUY ' 'MLY ' 'PAL ' 'SAN ' 'THA ' 'dflt' > ) ]
Lookup: 6 0 0 "'ccmp' Thai Tone Macron Reordering" { "'ccmp' Thai Tone Macron Reordering"  } ['ccmp' ('DFLT' <'dflt' > 'latn' <'dflt' > 'thai' <'KUY ' 'MLY ' 'PAL ' 'SAN ' 'THA ' 'dflt' > ) ]
Lookup: 6 0 0 "'ccmp' Thai Below Vowel Macron Reordering" { "'ccmp' Thai Below Vowel Macron Reordering"  } ['ccmp' ('DFLT' <'dflt' > 'latn' <'dflt' > 'thai' <'KUY ' 'MLY ' 'PAL ' 'SAN ' 'THA ' 'dflt' > ) ]
Lookup: 4 0 0 "'ccmp' Patani Malay Ligatures" { "'ccmp' Patani Malay Ligatures"  } ['ccmp' ('DFLT' <'dflt' > 'thai' <'KUY ' 'MLY ' 'PAL ' 'SAN ' 'THA ' 'dflt' > ) ]
Lookup: 6 0 0 "'ccmp' Thai Conditional Descender Removal" { "'ccmp' Thai Conditional Descender Removal"  } ['ccmp' ('DFLT' <'dflt' > 'thai' <'KUY ' 'MLY ' 'THA ' 'dflt' > ) ]

StartChar: .notdef
Encoding: 65536 -1 0
Width: 1533
VWidth: 2045
Flags: W
HStem: 0 32<287 1247> 1248 32<287 1247>
VStem: 256 31<32 1248> 1247 31<32 1248>
LayerCount: 3
Fore
SplineSet
256 0 m 1
 256 1280 l 1
 1278 1280 l 1
 1278 0 l 1
 256 0 l 1
287 32 m 1
 1247 32 l 1
 1247 1248 l 1
 287 1248 l 1
 287 32 l 1
EndSplineSet
Validated: 1
Layer: 2
SplineSet
256 0 m 1,0,-1
 256 1280 l 1,1,-1
 1278 1280 l 1,2,-1
 1278 0 l 1,3,-1
 256 0 l 1,0,-1
287 32 m 1,4,-1
 1247 32 l 1,5,-1
 1247 1248 l 1,6,-1
 287 1248 l 1,7,-1
 287 32 l 1,4,-1
EndSplineSet
EndChar

StartChar: uni0E4D.high
Encoding: 63262 63262 2
Width: 0
VWidth: 2558
Flags: W
HStem: 2026 72<-293.4 -161.404> 2254 74<-294.288 -158.776>
VStem: -376 69<2113.96 2240.62> -147 70<2113.7 2240.41>
AnchorPoint: "AboveMark" -226 2512 basemark 0
AnchorPoint: "AboveMark" -226 2040 mark 0
LayerCount: 3
Fore
SplineSet
-376 2175 m 0
 -376 2258 -309 2328 -226 2328 c 0
 -145 2328 -77 2264 -77 2175 c 0
 -77 2094 -145 2026 -226 2026 c 0
 -306 2026 -376 2088 -376 2175 c 0
-307 2175 m 0
 -307 2135 -273 2098 -226 2098 c 0
 -188 2098 -147 2132 -147 2175 c 0
 -147 2224 -184 2254 -226 2254 c 0
 -282 2254 -307 2210 -307 2175 c 0
EndSplineSet
Validated: 1
Layer: 2
SplineSet
-376 2175 m 0,0,1
 -376 2238 -376 2238 -332 2283 c 128,-1,2
 -288 2328 -288 2328 -226 2328 c 128,-1,3
 -164 2328 -164 2328 -120.5 2284.5 c 128,-1,4
 -77 2241 -77 2241 -77 2175 c 0,5,6
 -77 2114 -77 2114 -121 2070 c 128,-1,7
 -165 2026 -165 2026 -226 2026 c 128,-1,8
 -287 2026 -287 2026 -331.5 2068.5 c 128,-1,9
 -376 2111 -376 2111 -376 2175 c 0,0,1
-307 2175 m 0,10,11
 -307 2144 -307 2144 -283.5 2121 c 128,-1,12
 -260 2098 -260 2098 -226 2098 c 0,13,14
 -196 2098 -196 2098 -171.5 2121 c 128,-1,15
 -147 2144 -147 2144 -147 2175 c 0,16,17
 -147 2211 -147 2211 -170 2232.5 c 128,-1,18
 -193 2254 -193 2254 -226 2254 c 0,19,20
 -265 2254 -265 2254 -286 2229.5 c 128,-1,21
 -307 2205 -307 2205 -307 2175 c 0,10,11
EndSplineSet
EndChar

StartChar: exclam
Encoding: 33 33 5
Width: 681
VWidth: 2045
Flags: W
HStem: 0 193<208 368> 1430 20G<215 361>
VStem: 215 146<0 193 869.212 1450>
LayerCount: 3
Fore
SplineSet
215 998 m 1
 215 1450 l 1
 361 1450 l 1
 361 998 l 1
 325 366 l 1
 250 366 l 1
 215 998 l 1
208 193 m 1
 368 193 l 1
 368 0 l 1
 208 0 l 1
 208 193 l 1
EndSplineSet
Validated: 1
Layer: 2
SplineSet
215 998 m 1,0,-1
 215 1450 l 1,1,-1
 361 1450 l 1,2,-1
 361 998 l 1,3,-1
 325 366 l 1,4,-1
 250 366 l 1,5,-1
 215 998 l 1,0,-1
208 193 m 1,6,-1
 368 193 l 1,7,-1
 368 0 l 1,8,-1
 208 0 l 1,9,-1
 208 193 l 1,6,-1
EndSplineSet
EndChar

StartChar: quotedbl
Encoding: 34 34 6
Width: 568
VWidth: 2045
Flags: W
HStem: 946 504<117 203 380 465>
VStem: 91 134<1067.57 1450> 354 134<1067.57 1450>
LayerCount: 3
Fore
SplineSet
117 946 m 1
 91 1217 l 1
 91 1450 l 1
 225 1450 l 1
 225 1217 l 1
 203 946 l 1
 117 946 l 1
380 946 m 1
 354 1217 l 1
 354 1450 l 1
 488 1450 l 1
 488 1217 l 1
 465 946 l 1
 380 946 l 1
EndSplineSet
Validated: 1
Layer: 2
SplineSet
117 946 m 1,0,-1
 91 1217 l 1,1,-1
 91 1450 l 1,2,-1
 225 1450 l 1,3,-1
 225 1217 l 1,4,-1
 203 946 l 1,5,-1
 117 946 l 1,0,-1
380 946 m 1,6,-1
 354 1217 l 1,7,-1
 354 1450 l 1,8,-1
 488 1450 l 1,9,-1
 488 1217 l 1,10,-1
 465 946 l 1,11,-1
 380 946 l 1,6,-1
EndSplineSet
EndChar

StartChar: numbersign
Encoding: 35 35 7
Width: 1137
VWidth: 2045
Flags: W
HStem: -9 21G<87 218.141 599 730.141> 387 124<21 169 322 681 834 1113> 951 124<21 287 440 799 952 1113> 1450 20G<390.848 522 902.848 1034>
DStem2: 87 -9 214 -9 0.203875 0.978997<25.8921 404.401 556.989 980.612 1133.2 1510.73> 599 -9 726 -9 0.203875 0.978997<25.8921 404.401 556.989 980.612 1133.2 1510.73>
LayerCount: 3
Back
SplineSet
21 387 m 1
 21 511 l 1
 1113 511 l 1
 1113 387 l 1
 21 387 l 1
21 951 m 1
 21 1075 l 1
 1113 1075 l 1
 1113 951 l 1
 21 951 l 1
726 -9 m 1
 599 -9 l 1
 907 1470 l 1
 1034 1470 l 1
 726 -9 l 1
214 -9 m 1
 87 -9 l 1
 395 1470 l 1
 522 1470 l 1
 214 -9 l 1
EndSplineSet
Fore
SplineSet
214 -9 m 1
 87 -9 l 1
 169 387 l 1
 21 387 l 1
 21 511 l 1
 195 511 l 1
 287 951 l 1
 21 951 l 1
 21 1075 l 1
 313 1075 l 1
 395 1470 l 1
 522 1470 l 1
 440 1075 l 1
 825 1075 l 1
 907 1470 l 1
 1034 1470 l 1
 952 1075 l 1
 1113 1075 l 1
 1113 951 l 1
 926 951 l 1
 834 511 l 1
 1113 511 l 1
 1113 387 l 1
 808 387 l 1
 726 -9 l 1
 599 -9 l 1
 681 387 l 1
 296 387 l 1
 214 -9 l 1
799 951 m 1
 414 951 l 1
 322 511 l 1
 707 511 l 1
 799 951 l 1
EndSplineSet
Validated: 1
Layer: 2
SplineSet
214 -9 m 1,0,-1
 87 -9 l 1,1,-1
 169 387 l 1,2,-1
 21 387 l 1,3,-1
 21 511 l 1,4,-1
 195 511 l 1,5,-1
 287 951 l 1,6,-1
 21 951 l 1,7,-1
 21 1075 l 1,8,-1
 313 1075 l 1,9,-1
 395 1470 l 1,10,-1
 522 1470 l 1,11,-1
 440 1075 l 1,12,-1
 825 1075 l 1,13,-1
 907 1470 l 1,14,-1
 1034 1470 l 1,15,-1
 952 1075 l 1,16,-1
 1113 1075 l 1,17,-1
 1113 951 l 1,18,-1
 926 951 l 1,19,-1
 834 511 l 1,20,-1
 1113 511 l 1,21,-1
 1113 387 l 1,22,-1
 808 387 l 1,23,-1
 726 -9 l 1,24,-1
 599 -9 l 1,25,-1
 681 387 l 1,26,-1
 296 387 l 1,27,-1
 214 -9 l 1,0,-1
799 951 m 1,28,-1
 414 951 l 1,29,-1
 322 511 l 1,30,-1
 707 511 l 1,31,-1
 799 951 l 1,28,-1
EndSplineSet
EndChar

StartChar: dollar
Encoding: 36 36 8
Width: 1137
VWidth: 2045
Flags: W
HStem: -16 138<364.591 484 630 759.008> 1268 138<357.736 484 630 760.522>
VStem: 76 146<267.002 417> 107 146<927.402 1173.08> 484 146<-118 -10.428 122 634 815 1268 1400.1 1488> 860 146<1050 1173.24> 894 146<244.391 516.88>
LayerCount: 3
Back
SplineSet
630 -118 m 1xc8
 484 -118 l 1
 484 1488 l 1
 630 1488 l 1
 630 -118 l 1xc8
557 -20 m 27
 304 -20 76 113 76 417 c 1
 222 417 l 1
 222 230 381 116 557 116 c 27
 726 116 894 201 894 390 c 3xea
 894 569 724 611 557 652 c 0
 339 706 107 777 107 1030 c 3
 107 1278 327 1410 557 1410 c 27
 781 1410 1006 1281 1006 1050 c 1
 860 1050 l 1xdc
 860 1213 704 1274 557 1274 c 27
 412 1274 253 1201 253 1059 c 3
 253 897 400 833 557 794 c 0
 734 750 1040 689 1040 397 c 3xda
 1040 109 806 -20 557 -20 c 27
EndSplineSet
Fore
SplineSet
630 -118 m 1xca
 484 -118 l 1
 484 -16 l 1
 262 8 76 143 76 417 c 1
 222 417 l 1xea
 222 256 339 149 484 122 c 1
 484 671 l 1
 290 724 107 805 107 1030 c 3
 107 1252 283 1381 484 1406 c 1
 484 1488 l 1
 630 1488 l 1
 630 1405 l 1
 827 1380 1006 1256 1006 1050 c 1
 860 1050 l 1xdc
 860 1186 751 1251 630 1269 c 1
 630 776 l 1
 807 731 1040 652 1040 397 c 3
 1040 137 850 7 630 -16 c 1
 630 -118 l 1xca
630 120 m 1
 771 141 894 228 894 390 c 3
 894 543 770 596 630 634 c 1
 630 120 l 1
484 1268 m 1
 363 1248 253 1177 253 1059 c 3xd8
 253 923 357 856 484 815 c 1
 484 1268 l 1
EndSplineSet
Validated: 1
Layer: 2
SplineSet
630 -118 m 1,0,-1
 484 -118 l 1,1,-1
 484 -16 l 1,2,3
 398 -7 398 -7 326 23.5 c 128,-1,4
 254 54 254 54 197 106 c 128,-1,5
 140 158 140 158 108 237.5 c 128,-1,6
 76 317 76 317 76 417 c 1,7,-1
 222 417 l 1,8,9
 222 301 222 301 296 222 c 128,-1,10
 370 143 370 143 484 122 c 1,11,-1
 484 671 l 1,12,13
 419 689 419 689 369.5 707 c 128,-1,14
 320 725 320 725 268 755 c 128,-1,15
 216 785 216 785 183 821.5 c 128,-1,16
 150 858 150 858 128.5 911.5 c 128,-1,17
 107 965 107 965 107 1030 c 0,18,19
 107 1137 107 1137 160 1219.5 c 128,-1,20
 213 1302 213 1302 296.5 1347.5 c 128,-1,21
 380 1393 380 1393 484 1406 c 1,22,-1
 484 1488 l 1,23,-1
 630 1488 l 1,24,-1
 630 1405 l 1,25,26
 732 1392 732 1392 815.5 1348.5 c 128,-1,27
 899 1305 899 1305 952.5 1227 c 128,-1,28
 1006 1149 1006 1149 1006 1050 c 1,29,-1
 860 1050 l 1,30,31
 860 1145 860 1145 795 1199.5 c 128,-1,32
 730 1254 730 1254 630 1269 c 1,33,-1
 630 776 l 1,34,35
 674 765 674 765 709 754.5 c 128,-1,36
 744 744 744 744 788.5 726 c 128,-1,37
 833 708 833 708 866.5 688 c 128,-1,38
 900 668 900 668 934 639 c 128,-1,39
 968 610 968 610 990 576 c 128,-1,40
 1012 542 1012 542 1026 496 c 128,-1,41
 1040 450 1040 450 1040 397 c 0,42,43
 1040 303 1040 303 1007.5 227 c 128,-1,44
 975 151 975 151 917.5 101.5 c 128,-1,45
 860 52 860 52 787.5 22.5 c 128,-1,46
 715 -7 715 -7 630 -16 c 1,47,-1
 630 -118 l 1,0,-1
630 120 m 1,48,49
 744 137 744 137 819 206 c 128,-1,50
 894 275 894 275 894 390 c 0,51,52
 894 445 894 445 873.5 486.5 c 128,-1,53
 853 528 853 528 813 556 c 128,-1,54
 773 584 773 584 731.5 601 c 128,-1,55
 690 618 690 618 630 634 c 1,56,-1
 630 120 l 1,48,49
484 1268 m 1,57,58
 386 1252 386 1252 319.5 1197.5 c 128,-1,59
 253 1143 253 1143 253 1059 c 0,60,61
 253 964 253 964 315 907 c 128,-1,62
 377 850 377 850 484 815 c 1,63,-1
 484 1268 l 1,57,58
EndSplineSet
EndChar

StartChar: percent
Encoding: 37 37 9
Width: 1818
VWidth: 2045
Flags: W
HStem: -48 136<1284.59 1471.41> -9 21G<478 634.127> 588 136<1284.59 1471.41> 718 136<337.588 524.412> 1354 136<337.588 524.412>
VStem: 119 146<932.72 1275.28> 597 146<932.72 1275.28> 1066 146<166.72 509.28> 1544 146<166.72 509.28>
DStem2: 478 -9 624 -9 0.451731 0.892154<65.9527 1680.2>
LayerCount: 3
Fore
SplineSet
1378 -48 m 259xaf80
 1206 -48 1066 120 1066 338 c 259
 1066 556 1206 724 1378 724 c 259
 1550 724 1690 556 1690 338 c 259
 1690 120 1550 -48 1378 -48 c 259xaf80
1378 588 m 259
 1306 588 1212 510 1212 338 c 259
 1212 166 1306 88 1378 88 c 259
 1450 88 1544 166 1544 338 c 259
 1544 510 1450 588 1378 588 c 259
431 718 m 259x1f80
 259 718 119 886 119 1104 c 259
 119 1322 259 1490 431 1490 c 259
 603 1490 743 1322 743 1104 c 259
 743 886 603 718 431 718 c 259x1f80
431 1354 m 259
 359 1354 265 1276 265 1104 c 259
 265 932 359 854 431 854 c 259
 503 854 597 932 597 1104 c 259
 597 1276 503 1354 431 1354 c 259
1237 1490 m 1
 1383 1490 l 1
 624 -9 l 1
 478 -9 l 1x4f80
 1237 1490 l 1
EndSplineSet
Validated: 1
Layer: 2
SplineSet
1378 -48 m 259,0,1
 1248 -48 1248 -48 1157 63.5 c 128,-1,2
 1066 175 1066 175 1066 338 c 128,-1,3
 1066 501 1066 501 1157 612.5 c 128,-1,4
 1248 724 1248 724 1378 724 c 128,-1,5
 1508 724 1508 724 1599 612.5 c 128,-1,6
 1690 501 1690 501 1690 338 c 128,-1,7
 1690 175 1690 175 1599 63.5 c 128,-1,8
 1508 -48 1508 -48 1378 -48 c 259,0,1
1378 588 m 259,9,10
 1316 588 1316 588 1264 522.5 c 128,-1,11
 1212 457 1212 457 1212 338 c 128,-1,12
 1212 219 1212 219 1264 153.5 c 128,-1,13
 1316 88 1316 88 1378 88 c 128,-1,14
 1440 88 1440 88 1492 153.5 c 128,-1,15
 1544 219 1544 219 1544 338 c 128,-1,16
 1544 457 1544 457 1492 522.5 c 128,-1,17
 1440 588 1440 588 1378 588 c 259,9,10
431 718 m 259,18,19
 301 718 301 718 210 829.5 c 128,-1,20
 119 941 119 941 119 1104 c 128,-1,21
 119 1267 119 1267 210 1378.5 c 128,-1,22
 301 1490 301 1490 431 1490 c 128,-1,23
 561 1490 561 1490 652 1378.5 c 128,-1,24
 743 1267 743 1267 743 1104 c 128,-1,25
 743 941 743 941 652 829.5 c 128,-1,26
 561 718 561 718 431 718 c 259,18,19
431 1354 m 259,27,28
 369 1354 369 1354 317 1288.5 c 128,-1,29
 265 1223 265 1223 265 1104 c 128,-1,30
 265 985 265 985 317 919.5 c 128,-1,31
 369 854 369 854 431 854 c 128,-1,32
 493 854 493 854 545 919.5 c 128,-1,33
 597 985 597 985 597 1104 c 128,-1,34
 597 1223 597 1223 545 1288.5 c 128,-1,35
 493 1354 493 1354 431 1354 c 259,27,28
1237 1490 m 1,36,-1
 1383 1490 l 1,37,-1
 624 -9 l 1,38,-1
 478 -9 l 1,39,-1
 1237 1490 l 1,36,-1
EndSplineSet
EndChar

StartChar: ampersand
Encoding: 38 38 10
Width: 1364
VWidth: 2045
Flags: W
HStem: -12 136<388.093 730.496> 1344 136<488.309 763.148>
VStem: 87 146<276.24 557.34> 263 146<1051.91 1268.6> 838 146<1070.42 1271.86> 1077 152<533.997 679.15>
DStem2: 569 907 422 844 0.633615 -0.773648<-299.314 -44.4016 139.239 644.706>
LayerCount: 3
Fore
SplineSet
1213 -17 m 1
 1119 35 1040 99 979 173 c 1
 870 50 728 -12 552 -12 c 3
 196 -12 87 274 87 388 c 3
 87 574 182 759 422 844 c 1
 275 1013 263 1098 263 1153 c 3
 263 1315 408 1480 637 1480 c 3
 843 1480 984 1330 984 1168 c 3
 984 1041 871 903 652 795 c 1
 976 407 l 1
 1030 506 1061 606 1077 719 c 1
 1229 675 l 1
 1203 542 1154 416 1077 290 c 1
 1138 217 1225 146 1331 77 c 1
 1213 -17 l 1
838 1176 m 3
 838 1244 760 1344 627 1344 c 3
 501 1344 409 1255 409 1166 c 3
 409 1099 449 1049 569 907 c 1
 736 989 838 1088 838 1176 c 3
233 427 m 3
 233 328 311 124 555 124 c 3
 684 124 820 203 879 286 c 1
 523 730 l 1
 259 645 233 466 233 427 c 3
EndSplineSet
Validated: 1
Layer: 2
SplineSet
1213 -17 m 1,0,1
 1071 62 1071 62 979 173 c 1,2,3
 815 -12 815 -12 552 -12 c 0,4,5
 451 -12 451 -12 367.5 19 c 128,-1,6
 284 50 284 50 233.5 96 c 128,-1,7
 183 142 183 142 148.5 198.5 c 128,-1,8
 114 255 114 255 100.5 302.5 c 128,-1,9
 87 350 87 350 87 388 c 0,10,11
 87 538 87 538 169.5 661 c 128,-1,12
 252 784 252 784 422 844 c 1,13,14
 370 904 370 904 335.5 954.5 c 128,-1,15
 301 1005 301 1005 286.5 1042.5 c 128,-1,16
 272 1080 272 1080 267.5 1104 c 128,-1,17
 263 1128 263 1128 263 1153 c 0,18,19
 263 1281 263 1281 368 1380.5 c 128,-1,20
 473 1480 473 1480 637 1480 c 0,21,22
 787 1480 787 1480 885.5 1387 c 128,-1,23
 984 1294 984 1294 984 1168 c 0,24,25
 984 1071 984 1071 898.5 972.5 c 128,-1,26
 813 874 813 874 652 795 c 1,27,-1
 976 407 l 1,28,29
 1053 548 1053 548 1077 719 c 1,30,-1
 1229 675 l 1,31,32
 1190 475 1190 475 1077 290 c 1,33,34
 1164 185 1164 185 1331 77 c 1,35,-1
 1213 -17 l 1,0,1
838 1176 m 3,36,37
 838 1234 838 1234 778.5 1289 c 128,-1,38
 719 1344 719 1344 627 1344 c 128,-1,39
 535 1344 535 1344 472 1289.5 c 128,-1,40
 409 1235 409 1235 409 1166 c 0,41,42
 409 1119 409 1119 440 1071 c 128,-1,43
 471 1023 471 1023 569 907 c 1,44,45
 695 969 695 969 766.5 1040 c 128,-1,46
 838 1111 838 1111 838 1176 c 3,36,37
233 427 m 3,47,48
 233 395 233 395 242.5 357.5 c 128,-1,49
 252 320 252 320 276.5 278 c 128,-1,50
 301 236 301 236 336 202 c 128,-1,51
 371 168 371 168 428 146 c 128,-1,52
 485 124 485 124 555 124 c 0,53,54
 648 124 648 124 740.5 172.5 c 128,-1,55
 833 221 833 221 879 286 c 1,56,-1
 523 730 l 1,57,58
 460 710 460 710 410 681.5 c 128,-1,59
 360 653 360 653 330 622 c 128,-1,60
 300 591 300 591 279 561.5 c 128,-1,61
 258 532 258 532 249 503.5 c 128,-1,62
 240 475 240 475 236.5 457.5 c 128,-1,63
 233 440 233 440 233 427 c 3,47,48
EndSplineSet
EndChar

StartChar: quotesingle
Encoding: 39 39 11
Width: 454
VWidth: 2045
Flags: W
HStem: 946 519<166 262>
VStem: 136 160<1104.47 1465>
LayerCount: 3
Fore
SplineSet
166 946 m 1
 136 1220 l 1
 136 1465 l 1
 296 1465 l 1
 296 1220 l 1
 262 946 l 1
 166 946 l 1
EndSplineSet
Validated: 1
Layer: 2
SplineSet
166 946 m 1,0,-1
 136 1220 l 1,1,-1
 136 1465 l 1,2,-1
 296 1465 l 1,3,-1
 296 1220 l 1,4,-1
 262 946 l 1,5,-1
 166 946 l 1,0,-1
EndSplineSet
EndChar

StartChar: parenleft
Encoding: 40 40 12
Width: 681
VWidth: 2045
Flags: W
HStem: -430 21G<327.5 555>
VStem: 125 146<188.247 886.997>
LayerCount: 3
Fore
SplineSet
555 1489 m 1
 425 1292 271 963 271 532 c 3
 271 253 332 -62 555 -430 c 1
 479 -430 l 1
 176 -48 125 315 125 532 c 3
 125 932 286 1264 479 1489 c 1
 555 1489 l 1
EndSplineSet
Validated: 1
Layer: 2
SplineSet
555 1489 m 1,0,1
 501 1407 501 1407 455 1314.5 c 128,-1,2
 409 1222 409 1222 365 1101 c 128,-1,3
 321 980 321 980 296 833 c 128,-1,4
 271 686 271 686 271 532 c 0,5,6
 271 39 271 39 555 -430 c 1,7,-1
 479 -430 l 1,8,9
 392 -320 392 -320 326 -203.5 c 128,-1,10
 260 -87 260 -87 223 11 c 128,-1,11
 186 109 186 109 163 210 c 128,-1,12
 140 311 140 311 132.5 385 c 128,-1,13
 125 459 125 459 125 532 c 0,14,15
 125 814 125 814 223 1059.5 c 128,-1,16
 321 1305 321 1305 479 1489 c 1,17,-1
 555 1489 l 1,0,1
EndSplineSet
EndChar

StartChar: parenright
Encoding: 41 41 13
Width: 681
VWidth: 2045
Flags: W
HStem: -430 21G<126 353.5>
VStem: 410 146<188.247 886.997>
LayerCount: 3
Fore
SplineSet
126 1489 m 1
 202 1489 l 1
 395 1264 556 932 556 532 c 3
 556 315 505 -48 202 -430 c 1
 126 -430 l 1
 349 -62 410 253 410 532 c 3
 410 963 256 1292 126 1489 c 1
EndSplineSet
Validated: 1
Layer: 2
SplineSet
126 1489 m 1,0,-1
 202 1489 l 1,1,2
 360 1305 360 1305 458 1059.5 c 128,-1,3
 556 814 556 814 556 532 c 0,4,5
 556 459 556 459 548.5 385 c 128,-1,6
 541 311 541 311 518 210 c 128,-1,7
 495 109 495 109 458 11 c 128,-1,8
 421 -87 421 -87 355 -203.5 c 128,-1,9
 289 -320 289 -320 202 -430 c 1,10,-1
 126 -430 l 1,11,12
 410 39 410 39 410 532 c 0,13,14
 410 686 410 686 385 833 c 128,-1,15
 360 980 360 980 316 1101 c 128,-1,16
 272 1222 272 1222 226 1314.5 c 128,-1,17
 180 1407 180 1407 126 1489 c 1,0,-1
EndSplineSet
EndChar

StartChar: asterisk
Encoding: 42 42 14
Width: 795
VWidth: 2045
Flags: W
HStem: 873 616
VStem: 335 116<1233.19 1489>
LayerCount: 3
Fore
SplineSet
70 1208 m 1
 105 1325 l 1
 351 1223 l 1
 344 1334 338 1423 335 1489 c 1
 451 1489 l 1
 448 1426 442 1339 433 1228 c 1
 506 1263 590 1296 683 1326 c 1
 720 1210 l 1
 623 1181 536 1158 457 1143 c 1
 500 1109 559 1042 636 942 c 1
 538 873 l 1
 475 956 426 1031 389 1097 c 1
 348 1025 300 952 245 878 c 1
 156 941 l 1
 223 1032 279 1099 326 1142 c 1
 70 1208 l 1
EndSplineSet
Validated: 1
Layer: 2
SplineSet
70 1208 m 1,0,-1
 105 1325 l 1,1,-1
 351 1223 l 1,2,3
 337 1445 337 1445 335 1489 c 1,4,-1
 451 1489 l 1,5,6
 446.5 1394.5 446.5 1394.5 433 1228 c 1,7,8
 544 1281 544 1281 683 1326 c 1,9,-1
 720 1210 l 1,10,11
 564 1163 564 1163 457 1143 c 1,12,13
 519 1094 519 1094 636 942 c 1,14,-1
 538 873 l 1,15,16
 448 991 448 991 389 1097 c 1,17,18
 327.5 989 327.5 989 245 878 c 1,19,-1
 156 941 l 1,20,21
 259 1080 259 1080 326 1142 c 1,22,-1
 70 1208 l 1,0,-1
EndSplineSet
EndChar

StartChar: plus
Encoding: 43 43 15
Width: 1350
VWidth: 2045
Flags: W
HStem: 655 136<189 600 746 1157>
VStem: 600 146<237 655 791 1205>
LayerCount: 3
Fore
SplineSet
600 237 m 1
 600 655 l 1
 189 655 l 1
 189 791 l 1
 600 791 l 1
 600 1205 l 1
 746 1205 l 1
 746 791 l 1
 1157 791 l 1
 1157 655 l 1
 746 655 l 1
 746 237 l 1
 600 237 l 1
EndSplineSet
Validated: 1
Layer: 2
SplineSet
600 237 m 1,0,-1
 600 655 l 1,1,-1
 189 655 l 1,2,-1
 189 791 l 1,3,-1
 600 791 l 1,4,-1
 600 1205 l 1,5,-1
 746 1205 l 1,6,-1
 746 791 l 1,7,-1
 1157 791 l 1,8,-1
 1157 655 l 1,9,-1
 746 655 l 1,10,-1
 746 237 l 1,11,-1
 600 237 l 1,0,-1
EndSplineSet
EndChar

StartChar: comma
Encoding: 44 44 16
Width: 568
VWidth: 2045
Flags: W
HStem: 0 205<204 299>
VStem: 204 183<0 205> 299 88<-158.875 0>
LayerCount: 3
Fore
SplineSet
204 0 m 1xc0
 204 205 l 1
 387 205 l 1
 387 0 l 2xc0
 387 -99 367 -228 220 -290 c 1
 186 -213 l 1
 256 -181 295 -125 299 0 c 1xa0
 204 0 l 1xc0
EndSplineSet
Validated: 1
Layer: 2
SplineSet
204 0 m 1,0,-1
 204 205 l 1,1,-1
 387 205 l 1,2,-1
 387 0 l 2,3,4
 387 -220 387 -220 220 -290 c 1,5,-1
 186 -213 l 1,6,7
 241 -188 241 -188 268.5 -139 c 128,-1,8
 296 -90 296 -90 299 0 c 1,9,-1
 204 0 l 1,0,-1
EndSplineSet
EndChar

StartChar: hyphen
Encoding: 45 45 17
Width: 681
VWidth: 2045
Flags: W
HStem: 462 136<64 617>
VStem: 64 553<462 598>
LayerCount: 3
Fore
SplineSet
64 462 m 1
 64 598 l 1
 617 598 l 1
 617 462 l 1
 64 462 l 1
EndSplineSet
Validated: 1
Layer: 2
SplineSet
64 462 m 1,0,-1
 64 598 l 1,1,-1
 617 598 l 1,2,-1
 617 462 l 1,3,-1
 64 462 l 1,0,-1
EndSplineSet
EndChar

StartChar: period
Encoding: 46 46 18
Width: 568
VWidth: 2045
Flags: W
HStem: 0 196<186 369>
VStem: 186 183<0 196>
LayerCount: 3
Fore
SplineSet
186 0 m 1
 186 196 l 1
 369 196 l 1
 369 0 l 1
 186 0 l 1
EndSplineSet
Validated: 1
Layer: 2
SplineSet
186 0 m 1,0,-1
 186 196 l 1,1,-1
 369 196 l 1,2,-1
 369 0 l 1,3,-1
 186 0 l 1,0,-1
EndSplineSet
EndChar

StartChar: slash
Encoding: 47 47 19
Width: 568
VWidth: 2045
Flags: W
HStem: -9 21G<-81 56.9215> 1448 20G<498.051 634>
DStem2: -81 -9 49 -9 0.369329 0.929299<48.0127 1589.37>
LayerCount: 3
Fore
SplineSet
-81 -9 m 1
 506 1468 l 1
 634 1468 l 1
 49 -9 l 1
 -81 -9 l 1
EndSplineSet
Validated: 1
Layer: 2
SplineSet
-81 -9 m 1,0,-1
 506 1468 l 1,1,-1
 634 1468 l 1,2,-1
 49 -9 l 1,3,-1
 -81 -9 l 1,0,-1
EndSplineSet
EndChar

StartChar: zero
Encoding: 48 48 20
Width: 1137
VWidth: 2045
Flags: W
HStem: -12 136<413.139 706.78> 1344 136<413.139 706.78>
VStem: 85 146<376.313 1091.69> 888 146<376.313 1091.69>
LayerCount: 3
Fore
SplineSet
888 734 m 3
 888 994 840 1344 560 1344 c 3
 280 1344 231 994 231 734 c 3
 231 474 280 124 560 124 c 3
 840 124 888 474 888 734 c 3
1034 734 m 3
 1034 384 960 -12 560 -12 c 3
 160 -12 85 384 85 734 c 3
 85 1084 160 1480 560 1480 c 3
 960 1480 1034 1084 1034 734 c 3
EndSplineSet
Validated: 1
Layer: 2
SplineSet
888 734 m 131,-1,1
 888 795 888 795 884.5 850 c 128,-1,2
 881 905 881 905 871.5 968 c 128,-1,3
 862 1031 862 1031 847 1083.5 c 128,-1,4
 832 1136 832 1136 806.5 1185.5 c 128,-1,5
 781 1235 781 1235 747.5 1269 c 128,-1,6
 714 1303 714 1303 666 1323.5 c 128,-1,7
 618 1344 618 1344 560 1344 c 0,8,9
 492 1344 492 1344 438.5 1317.5 c 128,-1,10
 385 1291 385 1291 350 1243 c 128,-1,11
 315 1195 315 1195 290.5 1137 c 128,-1,12
 266 1079 266 1079 253.5 1007 c 128,-1,13
 241 935 241 935 236 870 c 128,-1,14
 231 805 231 805 231 734 c 128,-1,15
 231 663 231 663 236 598 c 128,-1,16
 241 533 241 533 253.5 461 c 128,-1,17
 266 389 266 389 290.5 331 c 128,-1,18
 315 273 315 273 350 225 c 128,-1,19
 385 177 385 177 438.5 150.5 c 128,-1,20
 492 124 492 124 560 124 c 0,21,22
 618 124 618 124 666 144.5 c 128,-1,23
 714 165 714 165 747.5 199 c 128,-1,24
 781 233 781 233 806.5 282.5 c 128,-1,25
 832 332 832 332 847 384.5 c 128,-1,26
 862 437 862 437 871.5 500 c 128,-1,27
 881 563 881 563 884.5 618 c 128,-1,0
 888 673 888 673 888 734 c 131,-1,1
1034 734 m 131,-1,29
 1034 -12 1034 -12 560 -12 c 0,30,31
 85 -12 85 -12 85 734 c 128,-1,32
 85 1480 85 1480 560 1480 c 0,33,28
 1034 1480 1034 1480 1034 734 c 131,-1,29
EndSplineSet
EndChar

StartChar: one
Encoding: 49 49 21
Width: 1137
VWidth: 2045
Flags: W
HStem: 0 21G<617 763> 1451 20G<552 763>
VStem: 563 200<1375.17 1471> 617 146<0 1300>
LayerCount: 3
Fore
SplineSet
223 1103 m 1xd0
 436 1211 541 1385 563 1471 c 1
 763 1471 l 1xe0
 763 0 l 1
 617 0 l 1
 617 1300 l 1
 500 1136 416 1060 223 997 c 1
 223 1103 l 1xd0
EndSplineSet
Validated: 1
Layer: 2
SplineSet
223 1103 m 1,0,1
 322 1153 322 1153 399.5 1227 c 128,-1,2
 477 1301 477 1301 513.5 1361.5 c 128,-1,3
 550 1422 550 1422 563 1471 c 1,4,-1
 763 1471 l 1,5,-1
 763 0 l 1,6,-1
 617 0 l 1,7,-1
 617 1300 l 1,8,9
 555 1213 555 1213 504.5 1161 c 128,-1,10
 454 1109 454 1109 386.5 1068.5 c 128,-1,11
 319 1028 319 1028 223 997 c 1,12,-1
 223 1103 l 1,0,1
EndSplineSet
EndChar

StartChar: two
Encoding: 50 50 22
Width: 1137
VWidth: 2045
Flags: W
HStem: 0 136<259 1031> 1344 136<386.004 737.291>
VStem: 96 146<1039 1197.62> 881 146<896.424 1208.99>
DStem2: 197 326 373 292 0.771208 0.636584<-68.2244 881.597>
LayerCount: 3
Fore
SplineSet
572 1480 m 3
 869 1480 1027 1300 1027 1075 c 3
 1027 948 995 841 921 766 c 0
 769 612 591 472 373 292 c 16
 297 229 259 180 259 136 c 1
 1031 136 l 1
 1031 0 l 1
 61 0 l 1
 61 131 103 243 197 326 c 0
 462 561 519 581 765 809 c 0
 849 887 881 973 881 1078 c 3
 881 1205 761 1344 567 1344 c 3
 356 1344 242 1205 242 1039 c 1
 96 1039 l 1
 96 1300 285 1480 572 1480 c 3
EndSplineSet
Validated: 1
Layer: 2
SplineSet
572 1480 m 3,0,1
 787 1480 787 1480 907 1365.5 c 128,-1,2
 1027 1251 1027 1251 1027 1075 c 0,3,4
 1027 873 1027 873 921 766 c 0,5,6
 877 722 877 722 830.5 678.5 c 128,-1,7
 784 635 784 635 721 581 c 128,-1,8
 658 527 658 527 620.5 495.5 c 128,-1,9
 583 464 583 464 495 392 c 128,-1,10
 407 320 407 320 373 292 c 0,11,12
 259 198 259 198 259 136 c 1,13,-1
 1031 136 l 1,14,-1
 1031 0 l 1,15,-1
 61 0 l 1,16,17
 61 206 61 206 197 326 c 0,18,19
 317 432 317 432 475.5 559.5 c 128,-1,20
 634 687 634 687 765 809 c 0,21,22
 881 917 881 917 881 1078 c 0,23,24
 881 1180 881 1180 793 1262 c 128,-1,25
 705 1344 705 1344 567 1344 c 0,26,27
 415 1344 415 1344 328.5 1256.5 c 128,-1,28
 242 1169 242 1169 242 1039 c 1,29,-1
 96 1039 l 1,30,31
 96 1236 96 1236 227 1358 c 128,-1,32
 358 1480 358 1480 572 1480 c 3,0,1
EndSplineSet
EndChar

StartChar: three
Encoding: 51 51 23
Width: 1137
VWidth: 2045
Flags: W
HStem: -9 136<395.997 730.944> 708 136<442.783 683.71> 1069 21G<104 250> 1344 136<381.318 724.613>
VStem: 85 146<290.149 426> 104 146<1069 1212.11> 827 146<962.358 1248.72> 898 146<280.448 591.697>
LayerCount: 3
Fore
SplineSet
550 1480 m 3xf6
 762 1480 973 1338 973 1095 c 3xf6
 973 954 864 825 771 794 c 1
 825 783 1044 725 1044 449 c 3
 1044 166 816 -9 552 -9 c 3
 253 -9 89 220 85 426 c 1
 231 426 l 1
 231 331 331 127 552 127 c 3
 714 127 898 229 898 442 c 3xf9
 898 654 703 708 562 708 c 3
 520 708 479 706 441 693 c 1
 441 844 l 1
 750 844 827 978 827 1106 c 3
 827 1281 691 1344 543 1344 c 3
 365 1344 250 1213 250 1069 c 9
 104 1069 l 1
 104 1256 259 1480 550 1480 c 3xf6
EndSplineSet
Validated: 1
Layer: 2
SplineSet
550 1480 m 3,0,1
 658 1480 658 1480 753.5 1435.5 c 128,-1,2
 849 1391 849 1391 911 1301.5 c 128,-1,3
 973 1212 973 1212 973 1095 c 0,4,5
 973 995 973 995 909.5 907 c 128,-1,6
 846 819 846 819 771 794 c 1,7,8
 790 790 790 790 810.5 783.5 c 128,-1,9
 831 777 831 777 865.5 761.5 c 128,-1,10
 900 746 900 746 928.5 720.5 c 128,-1,11
 957 695 957 695 984.5 659.5 c 128,-1,12
 1012 624 1012 624 1028 569.5 c 128,-1,13
 1044 515 1044 515 1044 449 c 0,14,15
 1044 312 1044 312 975.5 206 c 128,-1,16
 907 100 907 100 796 45.5 c 128,-1,17
 685 -9 685 -9 552 -9 c 0,18,19
 444 -9 444 -9 354 29.5 c 128,-1,20
 264 68 264 68 207 131.5 c 128,-1,21
 150 195 150 195 118.5 271 c 128,-1,22
 87 347 87 347 85 426 c 1,23,-1
 231 426 l 1,24,25
 231 388 231 388 251 339 c 128,-1,26
 271 290 271 290 308 241.5 c 128,-1,27
 345 193 345 193 409.5 160 c 128,-1,28
 474 127 474 127 552 127 c 0,29,30
 615 127 615 127 675 147 c 128,-1,31
 735 167 735 167 785.5 204.5 c 128,-1,32
 836 242 836 242 867 303.5 c 128,-1,33
 898 365 898 365 898 442 c 0,34,35
 898 503 898 503 876.5 551 c 128,-1,36
 855 599 855 599 821 627.5 c 128,-1,37
 787 656 787 656 741 675 c 128,-1,38
 695 694 695 694 651.5 701 c 128,-1,39
 608 708 608 708 562 708 c 0,40,41
 485 708 485 708 441 693 c 1,42,-1
 441 844 l 1,43,44
 530 844 530 844 599 859 c 128,-1,45
 668 874 668 874 710.5 899 c 128,-1,46
 753 924 753 924 780 959 c 128,-1,47
 807 994 807 994 817 1029.5 c 128,-1,48
 827 1065 827 1065 827 1106 c 0,49,50
 827 1169 827 1169 804 1216.5 c 128,-1,51
 781 1264 781 1264 740 1291 c 128,-1,52
 699 1318 699 1318 650 1331 c 128,-1,53
 601 1344 601 1344 543 1344 c 0,54,55
 414 1344 414 1344 332 1262.5 c 128,-1,56
 250 1181 250 1181 250 1069 c 1,57,-1
 104 1069 l 1,58,59
 104 1126 104 1126 122 1183.5 c 128,-1,60
 140 1241 140 1241 177.5 1294.5 c 128,-1,61
 215 1348 215 1348 267 1389 c 128,-1,62
 319 1430 319 1430 392.5 1455 c 128,-1,63
 466 1480 466 1480 550 1480 c 3,0,1
EndSplineSet
EndChar

StartChar: four
Encoding: 52 52 24
Width: 1137
VWidth: 2045
Flags: W
HStem: 0 21G<696 842> 347 136<159 696 842 1040> 1451 20G<659.782 842>
VStem: 696 146<0 347 483 1282>
DStem2: 26 492 159 483 0.551353 0.834272<65.8214 1028.48>
LayerCount: 3
Fore
SplineSet
696 0 m 1
 696 347 l 1
 26 347 l 1
 26 492 l 1
 673 1471 l 1
 842 1471 l 1
 842 483 l 1
 1040 483 l 1
 1040 347 l 1
 842 347 l 1
 842 0 l 1
 696 0 l 1
696 483 m 1
 696 1282 l 1
 159 483 l 1
 696 483 l 1
EndSplineSet
Validated: 1
Layer: 2
SplineSet
696 0 m 1,0,-1
 696 347 l 1,1,-1
 26 347 l 1,2,-1
 26 492 l 1,3,-1
 673 1471 l 1,4,-1
 842 1471 l 1,5,-1
 842 483 l 1,6,-1
 1040 483 l 1,7,-1
 1040 347 l 1,8,-1
 842 347 l 1,9,-1
 842 0 l 1,10,-1
 696 0 l 1,0,-1
696 483 m 1,11,-1
 696 1282 l 1,12,-1
 159 483 l 1,13,-1
 696 483 l 1,11,-1
EndSplineSet
EndChar

StartChar: five
Encoding: 53 53 25
Width: 1137
VWidth: 2045
Flags: W
HStem: -12 136<368.03 734.582> 847 136<376.825 746.629> 1314 136<377 988>
VStem: 85 146<268.969 411> 909 146<311.553 692.239>
DStem2: 116 704 292 877 0.188261 0.982119<6.29688 85.7225 203.041 648.229>
LayerCount: 3
Fore
SplineSet
909 517 m 3
 909 727 763 847 552 847 c 3
 422 847 324 789 259 683 c 1
 116 704 l 1
 259 1450 l 1
 988 1450 l 1
 988 1314 l 1
 377 1314 l 1
 292 877 l 1
 318 912 402 983 601 983 c 3
 834 983 1055 818 1055 509 c 3
 1055 212 866 -12 545 -12 c 3
 214 -12 91 231 85 411 c 1
 231 411 l 1
 253 260 313 124 568 124 c 3
 762 124 909 272 909 517 c 3
EndSplineSet
Validated: 1
Layer: 2
SplineSet
909 517 m 3,0,1
 909 672 909 672 811 759.5 c 128,-1,2
 713 847 713 847 552 847 c 0,3,4
 360 847 360 847 259 683 c 1,5,-1
 116 704 l 1,6,-1
 259 1450 l 1,7,-1
 988 1450 l 1,8,-1
 988 1314 l 1,9,-1
 377 1314 l 1,10,-1
 292 877 l 1,11,12
 321 916 321 916 395.5 949.5 c 128,-1,13
 470 983 470 983 601 983 c 0,14,15
 690 983 690 983 770.5 952 c 128,-1,16
 851 921 851 921 915 862.5 c 128,-1,17
 979 804 979 804 1017 712.5 c 128,-1,18
 1055 621 1055 621 1055 509 c 0,19,20
 1055 281 1055 281 917.5 134.5 c 128,-1,21
 780 -12 780 -12 545 -12 c 0,22,23
 450 -12 450 -12 371 15 c 128,-1,24
 292 42 292 42 241 85 c 128,-1,25
 190 128 190 128 154.5 184.5 c 128,-1,26
 119 241 119 241 103 297.5 c 128,-1,27
 87 354 87 354 85 411 c 1,28,-1
 231 411 l 1,29,30
 238 361 238 361 249.5 322.5 c 128,-1,31
 261 284 261 284 285.5 245 c 128,-1,32
 310 206 310 206 345.5 181 c 128,-1,33
 381 156 381 156 437.5 140 c 128,-1,34
 494 124 494 124 568 124 c 0,35,36
 717 124 717 124 813 230.5 c 128,-1,37
 909 337 909 337 909 517 c 3,0,1
EndSplineSet
EndChar

StartChar: six
Encoding: 54 54 26
Width: 1137
VWidth: 2045
Flags: W
HStem: -12 136<415.408 746.569> 840 136<408.839 741.723> 1344 136<421.769 750.072>
VStem: 76 140<766 1059.27> 872 146<1103 1214.27> 897 146<287.217 668.128>
LayerCount: 3
Fore
SplineSet
577 -12 m 3xf4
 229 -12 76 296 76 673 c 3
 76 1084 181 1480 602 1480 c 3
 825 1480 1014 1334 1018 1103 c 1
 872 1103 l 1xf8
 866 1152 816 1344 592 1344 c 3
 291 1344 223 1052 216 766 c 1
 223 788 309 976 604 976 c 3
 809 976 1043 806 1043 491 c 3
 1043 253 904 -12 577 -12 c 3xf4
576 840 m 3
 379 840 253 699 253 489 c 3
 253 281 380 124 582 124 c 3
 832 124 897 340 897 480 c 3xf4
 897 673 786 840 576 840 c 3
EndSplineSet
Validated: 1
Layer: 2
SplineSet
577 -12 m 3,0,1
 450 -12 450 -12 352.5 41.5 c 128,-1,2
 255 95 255 95 195.5 189.5 c 128,-1,3
 136 284 136 284 106 406 c 128,-1,4
 76 528 76 528 76 673 c 0,5,6
 76 804 76 804 90 915.5 c 128,-1,7
 104 1027 104 1027 140.5 1134 c 128,-1,8
 177 1241 177 1241 234.5 1315 c 128,-1,9
 292 1389 292 1389 386 1434.5 c 128,-1,10
 480 1480 480 1480 602 1480 c 0,11,12
 774 1480 774 1480 894.5 1376 c 128,-1,13
 1015 1272 1015 1272 1018 1103 c 1,14,-1
 872 1103 l 1,15,16
 870 1123 870 1123 862.5 1147.5 c 128,-1,17
 855 1172 855 1172 835 1208.5 c 128,-1,18
 815 1245 815 1245 786 1273.5 c 128,-1,19
 757 1302 757 1302 706 1323 c 128,-1,20
 655 1344 655 1344 592 1344 c 0,21,22
 505 1344 505 1344 438.5 1310.5 c 128,-1,23
 372 1277 372 1277 331.5 1223.5 c 128,-1,24
 291 1170 291 1170 265 1092 c 128,-1,25
 239 1014 239 1014 228.5 936.5 c 128,-1,26
 218 859 218 859 216 766 c 1,27,28
 220 778 220 778 230.5 797 c 128,-1,29
 241 816 241 816 271 849 c 128,-1,30
 301 882 301 882 341.5 909 c 128,-1,31
 382 936 382 936 451.5 956 c 128,-1,32
 521 976 521 976 604 976 c 0,33,34
 682 976 682 976 759 943.5 c 128,-1,35
 836 911 836 911 900 852 c 128,-1,36
 964 793 964 793 1003.5 698.5 c 128,-1,37
 1043 604 1043 604 1043 491 c 0,38,39
 1043 418 1043 418 1026.5 347.5 c 128,-1,40
 1010 277 1010 277 973 211.5 c 128,-1,41
 936 146 936 146 883 96.5 c 128,-1,42
 830 47 830 47 751 17.5 c 128,-1,43
 672 -12 672 -12 577 -12 c 3,0,1
576 840 m 3,44,45
 429 840 429 840 341 743.5 c 128,-1,46
 253 647 253 647 253 489 c 0,47,48
 253 330 253 330 343 227 c 128,-1,49
 433 124 433 124 582 124 c 0,50,51
 654 124 654 124 710.5 148 c 128,-1,52
 767 172 767 172 801 209 c 128,-1,53
 835 246 835 246 857.5 294.5 c 128,-1,54
 880 343 880 343 888.5 388.5 c 128,-1,55
 897 434 897 434 897 480 c 0,56,57
 897 633 897 633 812 736.5 c 128,-1,58
 727 840 727 840 576 840 c 3,44,45
EndSplineSet
EndChar

StartChar: seven
Encoding: 55 55 27
Width: 1137
VWidth: 2045
Flags: W
HStem: 0 21G<364 510> 1314 136<98 889>
VStem: 364 146<0 360.774>
LayerCount: 3
Fore
SplineSet
364 0 m 1
 365 168 382 682 889 1314 c 1
 98 1314 l 1
 98 1450 l 1
 1046 1450 l 1
 1046 1314 l 1
 520 703 510 126 510 0 c 1
 364 0 l 1
EndSplineSet
Validated: 1
Layer: 2
SplineSet
364 0 m 1,0,1
 368 664 368 664 889 1314 c 1,2,-1
 98 1314 l 1,3,-1
 98 1450 l 1,4,-1
 1046 1450 l 1,5,-1
 1046 1314 l 1,6,7
 938 1189 938 1189 851 1055 c 128,-1,8
 764 921 764 921 709.5 809 c 128,-1,9
 655 697 655 697 614.5 579 c 128,-1,10
 574 461 574 461 555 378 c 128,-1,11
 536 295 536 295 525 208 c 128,-1,12
 514 121 514 121 512 81 c 128,-1,13
 510 41 510 41 510 0 c 1,14,-1
 364 0 l 1,0,1
EndSplineSet
EndChar

StartChar: eight
Encoding: 56 56 28
Width: 1137
VWidth: 2045
Flags: W
HStem: -12 136<389.981 740.019> 727 136<412.153 717.847> 1344 136<411.951 718.049>
VStem: 81 146<274.957 569.79> 142 146<982.239 1232.52> 842 146<982.239 1232.52> 903 146<274.957 569.79>
LayerCount: 3
Fore
SplineSet
565 863 m 259xec
 726 863 842 989 842 1107 c 259
 842 1244 699 1344 565 1344 c 259
 431 1344 288 1244 288 1107 c 3
 288 989 404 863 565 863 c 259xec
565 124 m 259
 735 124 903 245 903 423 c 259
 903 583 755 727 565 727 c 259
 375 727 227 583 227 423 c 3xf2
 227 245 395 124 565 124 c 259
81 423 m 3
 81 578 147 748 361 804 c 1
 215 858 142 958 142 1107 c 3
 142 1328 310 1480 565 1480 c 3
 820 1480 988 1328 988 1107 c 3xec
 988 958 917 858 771 804 c 1
 985 748 1049 578 1049 423 c 3
 1049 211 884 -12 565 -12 c 3
 246 -12 81 211 81 423 c 3
EndSplineSet
Validated: 1
Layer: 2
SplineSet
565 863 m 259,0,1
 681 863 681 863 761.5 938.5 c 128,-1,2
 842 1014 842 1014 842 1107 c 0,3,4
 842 1206 842 1206 756 1275 c 128,-1,5
 670 1344 670 1344 565 1344 c 128,-1,6
 460 1344 460 1344 374 1275 c 128,-1,7
 288 1206 288 1206 288 1107 c 0,8,9
 288 1014 288 1014 368.5 938.5 c 128,-1,10
 449 863 449 863 565 863 c 259,0,1
565 124 m 259,11,12
 698 124 698 124 800.5 209 c 128,-1,13
 903 294 903 294 903 423 c 0,14,15
 903 545 903 545 804 636 c 128,-1,16
 705 727 705 727 565 727 c 128,-1,17
 425 727 425 727 326 636 c 128,-1,18
 227 545 227 545 227 423 c 0,19,20
 227 294 227 294 329.5 209 c 128,-1,21
 432 124 432 124 565 124 c 259,11,12
81 423 m 3,22,23
 81 485 81 485 95 541 c 128,-1,24
 109 597 109 597 140 650 c 128,-1,25
 171 703 171 703 227.5 743.5 c 128,-1,26
 284 784 284 784 361 804 c 1,27,28
 142 885 142 885 142 1107 c 0,29,30
 142 1273 142 1273 258.5 1376.5 c 128,-1,31
 375 1480 375 1480 565 1480 c 128,-1,32
 755 1480 755 1480 871.5 1376.5 c 128,-1,33
 988 1273 988 1273 988 1107 c 0,34,35
 988 884 988 884 771 804 c 1,36,37
 848 784 848 784 904 743.5 c 128,-1,38
 960 703 960 703 990.5 650 c 128,-1,39
 1021 597 1021 597 1035 541 c 128,-1,40
 1049 485 1049 485 1049 423 c 0,41,42
 1049 342 1049 342 1017.5 265.5 c 128,-1,43
 986 189 986 189 927.5 126.5 c 128,-1,44
 869 64 869 64 774.5 26 c 128,-1,45
 680 -12 680 -12 565 -12 c 128,-1,46
 450 -12 450 -12 355.5 26 c 128,-1,47
 261 64 261 64 202.5 126.5 c 128,-1,48
 144 189 144 189 112.5 265.5 c 128,-1,49
 81 342 81 342 81 423 c 3,22,23
EndSplineSet
EndChar

StartChar: nine
Encoding: 57 57 29
Width: 1137
VWidth: 2045
Flags: W
HStem: -12 136<420.933 737.914> 495 136<432.71 734.757> 1344 136<431.081 732.133>
VStem: 113 146<814.898 1165.74> 139 146<263.077 369> 933 146<380.697 713>
LayerCount: 3
Fore
SplineSet
573 1344 m 259xf4
 413 1344 259 1190 259 988 c 259
 259 782 417 631 573 631 c 259
 760 631 906 790 906 988 c 259
 906 1171 773 1344 573 1344 c 259xf4
1079 748 m 3
 1079 353 971 -12 573 -12 c 3
 324 -12 156 154 139 369 c 9
 285 369 l 1xec
 305 239 420 124 573 124 c 3
 849 124 933 382 933 713 c 1
 870 578 782 495 573 495 c 3
 314 495 113 690 113 980 c 3
 113 1286 310 1480 573 1480 c 3
 877 1480 1079 1284 1079 748 c 3
EndSplineSet
Validated: 1
Layer: 2
SplineSet
573 1344 m 259,0,1
 450 1344 450 1344 354.5 1240 c 128,-1,2
 259 1136 259 1136 259 988 c 0,3,4
 259 838 259 838 355.5 734.5 c 128,-1,5
 452 631 452 631 573 631 c 0,6,7
 713 631 713 631 809.5 735 c 128,-1,8
 906 839 906 839 906 988 c 0,9,10
 906 1131 906 1131 812 1237.5 c 128,-1,11
 718 1344 718 1344 573 1344 c 259,0,1
1079 748 m 3,12,13
 1079 623 1079 623 1065 516.5 c 128,-1,14
 1051 410 1051 410 1015 310.5 c 128,-1,15
 979 211 979 211 923 141.5 c 128,-1,16
 867 72 867 72 778 30 c 128,-1,17
 689 -12 689 -12 573 -12 c 0,18,19
 390 -12 390 -12 271 96 c 128,-1,20
 152 204 152 204 139 369 c 1,21,-1
 285 369 l 1,22,23
 301 268 301 268 381.5 196 c 128,-1,24
 462 124 462 124 573 124 c 0,25,26
 933 124 933 124 933 713 c 1,27,28
 882 603 882 603 801.5 549 c 128,-1,29
 721 495 721 495 573 495 c 0,30,31
 376 495 376 495 244.5 630 c 128,-1,32
 113 765 113 765 113 980 c 0,33,34
 113 1206 113 1206 242.5 1343 c 128,-1,35
 372 1480 372 1480 573 1480 c 0,36,37
 1079 1480 1079 1480 1079 748 c 3,12,13
EndSplineSet
EndChar

StartChar: colon
Encoding: 58 58 30
Width: 568
VWidth: 2045
Flags: W
HStem: 0 205<238 390> 856 204<238 390>
VStem: 238 152<0 205 856 1060>
LayerCount: 3
Fore
SplineSet
238 856 m 1
 238 1060 l 1
 390 1060 l 1
 390 856 l 1
 238 856 l 1
238 0 m 1
 238 205 l 1
 390 205 l 1
 390 0 l 1
 238 0 l 1
EndSplineSet
Validated: 1
Layer: 2
SplineSet
238 856 m 1,0,-1
 238 1060 l 1,1,-1
 390 1060 l 1,2,-1
 390 856 l 1,3,-1
 238 856 l 1,0,-1
238 0 m 1,4,-1
 238 205 l 1,5,-1
 390 205 l 1,6,-1
 390 0 l 1,7,-1
 238 0 l 1,4,-1
EndSplineSet
EndChar

StartChar: semicolon
Encoding: 59 59 31
Width: 568
VWidth: 2045
Flags: W
HStem: 856 204<220 388>
VStem: 220 168<0 205 856 1060> 291 97<-162.106 0>
LayerCount: 3
Fore
SplineSet
220 856 m 1xc0
 220 1060 l 1
 388 1060 l 1
 388 856 l 1
 220 856 l 1xc0
220 0 m 1
 220 205 l 1
 388 205 l 1
 388 0 l 2
 388 -159 323 -244 220 -290 c 1xc0
 177 -221 l 1
 283 -173 291 -49 291 0 c 1xa0
 220 0 l 1
EndSplineSet
Validated: 1
Layer: 2
SplineSet
220 856 m 1,0,-1
 220 1060 l 1,1,-1
 388 1060 l 1,2,-1
 388 856 l 1,3,-1
 220 856 l 1,0,-1
220 0 m 1,4,-1
 220 205 l 1,5,-1
 388 205 l 1,6,-1
 388 0 l 2,7,8
 388 -215 388 -215 220 -290 c 1,9,-1
 177 -221 l 1,10,11
 291 -169 291 -169 291 0 c 1,12,-1
 220 0 l 1,4,-1
EndSplineSet
EndChar

StartChar: less
Encoding: 60 60 32
Width: 1350
VWidth: 2045
Flags: W
DStem2: 174 785 320 723 0.913501 0.406837<108.147 1006.52> 320 723 174 663 0.912097 -0.409974<0 902.029>
LayerCount: 3
Fore
SplineSet
174 663 m 1
 174 785 l 1
 1144 1217 l 1
 1144 1081 l 1
 320 723 l 1
 1144 356 l 1
 1144 227 l 1
 174 663 l 1
EndSplineSet
Validated: 1
Layer: 2
SplineSet
174 663 m 1,0,-1
 174 785 l 1,1,-1
 1144 1217 l 1,2,-1
 1144 1081 l 1,3,-1
 320 723 l 1,4,-1
 1144 356 l 1,5,-1
 1144 227 l 1,6,-1
 174 663 l 1,0,-1
EndSplineSet
EndChar

StartChar: equal
Encoding: 61 61 33
Width: 1350
VWidth: 2045
Flags: W
HStem: 437 136<189 1157> 877 136<189 1157>
LayerCount: 3
Fore
SplineSet
1157 877 m 1
 189 877 l 1
 189 1013 l 1
 1157 1013 l 1
 1157 877 l 1
1157 437 m 1
 189 437 l 1
 189 573 l 1
 1157 573 l 1
 1157 437 l 1
EndSplineSet
Validated: 1
Layer: 2
SplineSet
1157 877 m 1,0,-1
 189 877 l 1,1,-1
 189 1013 l 1,2,-1
 1157 1013 l 1,3,-1
 1157 877 l 1,0,-1
1157 437 m 1,4,-1
 189 437 l 1,5,-1
 189 573 l 1,6,-1
 1157 573 l 1,7,-1
 1157 437 l 1,4,-1
EndSplineSet
EndChar

StartChar: greater
Encoding: 62 62 34
Width: 1350
VWidth: 2045
Flags: W
DStem2: 189 1217 188 1081 0.913501 -0.406837<54.4164 951.875> 188 356 189 227 0.912097 0.409974<0 901.116>
LayerCount: 3
Fore
SplineSet
1159 663 m 1
 189 227 l 1
 188 356 l 1
 1011 723 l 1
 188 1081 l 1
 189 1217 l 1
 1159 785 l 1
 1159 663 l 1
EndSplineSet
Validated: 1
Layer: 2
SplineSet
1159 663 m 1,0,-1
 189 227 l 1,1,-1
 188 356 l 1,2,-1
 1011 723 l 1,3,-1
 188 1081 l 1,4,-1
 189 1217 l 1,5,-1
 1159 785 l 1,6,-1
 1159 663 l 1,0,-1
EndSplineSet
EndChar

StartChar: question
Encoding: 63 63 35
Width: 1022
VWidth: 2045
Flags: W
HStem: 0 205<430 589> 1368 136<338.214 678.074>
VStem: 37 146<1045 1213.51> 430 159<0 205 361 571.913> 836 146<946.064 1218.19>
CounterMasks: 1 38
LayerCount: 3
Fore
SplineSet
511 1504 m 3
 777 1504 982 1336 982 1084 c 3
 982 707 582 779 582 361 c 9
 436 361 l 17
 436 815 836 799 836 1088 c 3
 836 1200 722 1368 514 1368 c 3
 285 1368 184 1202 183 1045 c 1
 37 1045 l 1
 49 1299 227 1504 511 1504 c 3
430 0 m 1
 430 205 l 1
 589 205 l 1
 589 0 l 1
 430 0 l 1
EndSplineSet
Validated: 1
Layer: 2
SplineSet
511 1504 m 3,0,1
 713 1504 713 1504 847.5 1387 c 128,-1,2
 982 1270 982 1270 982 1084 c 0,3,4
 982 1008 982 1008 960 948 c 128,-1,5
 938 888 938 888 902.5 848.5 c 128,-1,6
 867 809 867 809 824.5 773.5 c 128,-1,7
 782 738 782 738 739.5 701.5 c 128,-1,8
 697 665 697 665 661.5 622 c 128,-1,9
 626 579 626 579 604 512.5 c 128,-1,10
 582 446 582 446 582 361 c 1,11,-1
 436 361 l 1,12,13
 436 453 436 453 458 528.5 c 128,-1,14
 480 604 480 604 515.5 654 c 128,-1,15
 551 704 551 704 593.5 746 c 128,-1,16
 636 788 636 788 678.5 824 c 128,-1,17
 721 860 721 860 756.5 896.5 c 128,-1,18
 792 933 792 933 814 981.5 c 128,-1,19
 836 1030 836 1030 836 1088 c 0,20,21
 836 1131 836 1131 814.5 1179 c 128,-1,22
 793 1227 793 1227 754 1269.5 c 128,-1,23
 715 1312 715 1312 651.5 1340 c 128,-1,24
 588 1368 588 1368 514 1368 c 0,25,26
 432 1368 432 1368 366.5 1340 c 128,-1,27
 301 1312 301 1312 262.5 1265 c 128,-1,28
 224 1218 224 1218 203.5 1162 c 128,-1,29
 183 1106 183 1106 183 1045 c 1,30,-1
 37 1045 l 1,31,32
 46 1242 46 1242 175 1373 c 128,-1,33
 304 1504 304 1504 511 1504 c 3,0,1
430 0 m 1,34,-1
 430 205 l 1,35,-1
 589 205 l 1,36,-1
 589 0 l 1,37,-1
 430 0 l 1,34,-1
EndSplineSet
EndChar

StartChar: at
Encoding: 64 64 36
Width: 1635
VWidth: 2045
Flags: W
HStem: -430 124<601.352 1271.03> -12 124<554.624 827.514 1150.41 1357.76> 961 124<672.38 1001.06> 1040 20G<1177.25 1322> 1369 124<639.198 1147.81>
VStem: -88 127<200.391 774.432> 303 127<254.812 674.238> 1629 127<491.351 933.101>
LayerCount: 3
Fore
SplineSet
303 461 m 3xdf
 303 801 564 1085 808 1085 c 3xef
 943 1085 1074 1041 1153 938 c 1
 1182 1060 l 1
 1322 1060 l 1
 1159 257 l 2
 1151 217 1146 190 1146 175 c 3
 1146 141 1183 112 1223 112 c 3
 1498 112 1629 559 1629 709 c 3
 1629 1164 1199 1369 896 1369 c 3
 465 1369 39 1044 39 479 c 3
 39 -147 544 -306 933 -306 c 3
 1414 -306 1569 -102 1655 18 c 1
 1805 18 l 1
 1756 -83 1538 -430 929 -430 c 3
 448 -430 -88 -222 -88 468 c 3
 -88 1117 364 1493 914 1493 c 3
 1318 1493 1756 1248 1756 722 c 3
 1756 482 1583 -12 1154 -12 c 3
 1094 -12 982 24 982 145 c 1
 882 46 773 -12 656 -12 c 3
 508 -12 303 123 303 461 c 3xdf
823 961 m 3
 594 961 430 681 430 462 c 3
 430 192 586 112 686 112 c 3
 957 112 1097 473 1097 668 c 3
 1097 838 1042 961 823 961 c 3
EndSplineSet
Validated: 1
Layer: 2
SplineSet
303 461 m 3,0,1
 303 585 303 585 348 701.5 c 128,-1,2
 393 818 393 818 464 901 c 128,-1,3
 535 984 535 984 626.5 1034.5 c 128,-1,4
 718 1085 718 1085 808 1085 c 0,5,6
 915 1085 915 1085 1005.5 1048.5 c 128,-1,7
 1096 1012 1096 1012 1153 938 c 1,8,-1
 1182 1060 l 1,9,-1
 1322 1060 l 1,10,-1
 1159 257 l 2,11,12
 1146 192 1146 192 1146 175 c 0,13,14
 1146 150 1146 150 1169.5 131 c 128,-1,15
 1193 112 1193 112 1223 112 c 0,16,17
 1301 112 1301 112 1370 159.5 c 128,-1,18
 1439 207 1439 207 1485 278.5 c 128,-1,19
 1531 350 1531 350 1564.5 434 c 128,-1,20
 1598 518 1598 518 1613.5 589.5 c 128,-1,21
 1629 661 1629 661 1629 709 c 0,22,23
 1629 840 1629 840 1582 951.5 c 128,-1,24
 1535 1063 1535 1063 1458.5 1138.5 c 128,-1,25
 1382 1214 1382 1214 1285 1267 c 128,-1,26
 1188 1320 1188 1320 1089 1344.5 c 128,-1,27
 990 1369 990 1369 896 1369 c 0,28,29
 766 1369 766 1369 641.5 1331.5 c 128,-1,30
 517 1294 517 1294 408 1218 c 128,-1,31
 299 1142 299 1142 216.5 1037 c 128,-1,32
 134 932 134 932 86.5 788 c 128,-1,33
 39 644 39 644 39 479 c 0,34,35
 39 349 39 349 68.5 239 c 128,-1,36
 98 129 98 129 148 49.5 c 128,-1,37
 198 -30 198 -30 268.5 -92.5 c 128,-1,38
 339 -155 339 -155 417.5 -194.5 c 128,-1,39
 496 -234 496 -234 586 -259.5 c 128,-1,40
 676 -285 676 -285 760.5 -295.5 c 128,-1,41
 845 -306 845 -306 933 -306 c 0,42,43
 1033 -306 1033 -306 1120.5 -293.5 c 128,-1,44
 1208 -281 1208 -281 1271.5 -263 c 128,-1,45
 1335 -245 1335 -245 1392.5 -215.5 c 128,-1,46
 1450 -186 1450 -186 1486 -160.5 c 128,-1,47
 1522 -135 1522 -135 1558.5 -98 c 128,-1,48
 1595 -61 1595 -61 1613 -38.5 c 128,-1,49
 1631 -16 1631 -16 1655 18 c 1,50,-1
 1805 18 l 1,51,52
 1792 -9 1792 -9 1773.5 -39 c 128,-1,53
 1755 -69 1755 -69 1716.5 -114.5 c 128,-1,54
 1678 -160 1678 -160 1631.5 -201 c 128,-1,55
 1585 -242 1585 -242 1513.5 -285 c 128,-1,56
 1442 -328 1442 -328 1360.5 -359 c 128,-1,57
 1279 -390 1279 -390 1166.5 -410 c 128,-1,58
 1054 -430 1054 -430 929 -430 c 0,59,60
 822 -430 822 -430 721 -417 c 128,-1,61
 620 -404 620 -404 517.5 -372.5 c 128,-1,62
 415 -341 415 -341 326.5 -294 c 128,-1,63
 238 -247 238 -247 161 -175 c 128,-1,64
 84 -103 84 -103 29.5 -12 c 128,-1,65
 -25 79 -25 79 -56.5 201.5 c 128,-1,66
 -88 324 -88 324 -88 468 c 0,67,68
 -88 659 -88 659 -37 823.5 c 128,-1,69
 14 988 14 988 106 1110 c 128,-1,70
 198 1232 198 1232 323.5 1319 c 128,-1,71
 449 1406 449 1406 599 1449.5 c 128,-1,72
 749 1493 749 1493 914 1493 c 0,73,74
 1038 1493 1038 1493 1157 1464 c 128,-1,75
 1276 1435 1276 1435 1385 1372.5 c 128,-1,76
 1494 1310 1494 1310 1576 1221 c 128,-1,77
 1658 1132 1658 1132 1707 1003.5 c 128,-1,78
 1756 875 1756 875 1756 722 c 0,79,80
 1756 669 1756 669 1745.5 606 c 128,-1,81
 1735 543 1735 543 1711.5 472 c 128,-1,82
 1688 401 1688 401 1654.5 332.5 c 128,-1,83
 1621 264 1621 264 1571 201.5 c 128,-1,84
 1521 139 1521 139 1461.5 91.5 c 128,-1,85
 1402 44 1402 44 1322.5 16 c 128,-1,86
 1243 -12 1243 -12 1154 -12 c 0,87,88
 1129 -12 1129 -12 1101.5 -4 c 128,-1,89
 1074 4 1074 4 1046 20.5 c 128,-1,90
 1018 37 1018 37 1000 69.5 c 128,-1,91
 982 102 982 102 982 145 c 1,92,93
 823 -12 823 -12 656 -12 c 0,94,95
 597 -12 597 -12 537.5 15.5 c 128,-1,96
 478 43 478 43 424.5 97 c 128,-1,97
 371 151 371 151 337 246 c 128,-1,98
 303 341 303 341 303 461 c 3,0,1
823 961 m 3,99,100
 741 961 741 961 666 914 c 128,-1,101
 591 867 591 867 540.5 793.5 c 128,-1,102
 490 720 490 720 460 632 c 128,-1,103
 430 544 430 544 430 462 c 0,104,105
 430 366 430 366 455.5 294 c 128,-1,106
 481 222 481 222 521.5 184.5 c 128,-1,107
 562 147 562 147 603.5 129.5 c 128,-1,108
 645 112 645 112 686 112 c 0,109,110
 764 112 764 112 832.5 151 c 128,-1,111
 901 190 901 190 948 251.5 c 128,-1,112
 995 313 995 313 1029.5 388 c 128,-1,113
 1064 463 1064 463 1080.5 535.5 c 128,-1,114
 1097 608 1097 608 1097 668 c 0,115,116
 1097 736 1097 736 1084.5 786.5 c 128,-1,117
 1072 837 1072 837 1042.5 878 c 128,-1,118
 1013 919 1013 919 958 940 c 128,-1,119
 903 961 903 961 823 961 c 3,99,100
EndSplineSet
EndChar

StartChar: A
Encoding: 65 65 37
Width: 1364
VWidth: 2045
Flags: W
HStem: 0 21G<-3 167.051 1195.43 1366> 467 136<402 945> 1430 20G<573.931 752.579>
DStem2: -3 0 159 0 0.374146 0.92737<60.6116 564.033 710.733 1413.78> 744 1450 665 1255 0.394225 -0.919014<148.064 857.644 1005.89 1513.91>
LayerCount: 3
Back
SplineSet
744 1450 m 1
 159 0 l 1
 -3 0 l 1
 582 1450 l 1
 744 1450 l 1
974 603 m 1
 1020 467 l 1
 318 467 l 1
 361 603 l 1
 974 603 l 1
744 1450 m 1
 1366 0 l 1
 1204 0 l 1
 582 1450 l 1
 744 1450 l 1
EndSplineSet
Fore
SplineSet
945 603 m 1
 665 1255 l 1
 402 603 l 1
 945 603 l 1
1004 467 m 1
 347 467 l 1
 159 0 l 1
 -3 0 l 1
 582 1450 l 1
 744 1450 l 1
 1366 0 l 1
 1204 0 l 1
 1004 467 l 1
EndSplineSet
Validated: 1
Layer: 2
SplineSet
945 603 m 1,0,-1
 665 1255 l 1,1,-1
 402 603 l 1,2,-1
 945 603 l 1,0,-1
1004 467 m 1,3,-1
 347 467 l 1,4,-1
 159 0 l 1,5,-1
 -3 0 l 1,6,-1
 582 1450 l 1,7,-1
 744 1450 l 1,8,-1
 1366 0 l 1,9,-1
 1204 0 l 1,10,-1
 1004 467 l 1,3,-1
EndSplineSet
EndChar

StartChar: B
Encoding: 66 66 38
Width: 1364
VWidth: 2045
Flags: W
HStem: 0 136<311 971.696> 687 136<311 926.093> 1314 136<311 917.671>
VStem: 165 146<136 687 823 1314> 1039 146<921.831 1207.74> 1110 146<265.837 559.27>
LayerCount: 3
Fore
SplineSet
1256 429 m 3xf4
 1256 265 1181 0 753 0 c 2
 165 0 l 1
 165 1450 l 1
 698 1450 l 2
 1131 1450 1185 1189 1185 1080 c 3xf8
 1185 1001 1152 856 980 772 c 1
 1175 713 1256 566 1256 429 c 3xf4
729 823 m 2
 855 823 1039 865 1039 1052 c 3
 1039 1209 962 1314 704 1314 c 2
 311 1314 l 1
 311 823 l 1
 729 823 l 2
1110 420 m 3xf4
 1110 612 925 687 750 687 c 2
 311 687 l 1
 311 136 l 1
 778 136 l 2
 1058 136 1110 327 1110 420 c 3xf4
EndSplineSet
Validated: 1
Layer: 2
SplineSet
1256 429 m 3,0,1
 1256 373 1256 373 1245.5 320.5 c 128,-1,2
 1235 268 1235 268 1201.5 207.5 c 128,-1,3
 1168 147 1168 147 1115.5 103 c 128,-1,4
 1063 59 1063 59 969.5 29.5 c 128,-1,5
 876 0 876 0 753 0 c 2,6,-1
 165 0 l 1,7,-1
 165 1450 l 1,8,-1
 698 1450 l 2,9,10
 787 1450 787 1450 861 1435 c 128,-1,11
 935 1420 935 1420 984 1396 c 128,-1,12
 1033 1372 1033 1372 1071 1338.5 c 128,-1,13
 1109 1305 1109 1305 1130 1271.5 c 128,-1,14
 1151 1238 1151 1238 1164 1200.5 c 128,-1,15
 1177 1163 1177 1163 1181 1135 c 128,-1,16
 1185 1107 1185 1107 1185 1080 c 0,17,18
 1185 1046 1185 1046 1176.5 1009.5 c 128,-1,19
 1168 973 1168 973 1147.5 929 c 128,-1,20
 1127 885 1127 885 1084 843.5 c 128,-1,21
 1041 802 1041 802 980 772 c 1,22,23
 1118 730 1118 730 1187 635.5 c 128,-1,24
 1256 541 1256 541 1256 429 c 3,0,1
729 823 m 2,25,26
 771 823 771 823 810 828.5 c 128,-1,27
 849 834 849 834 892 850 c 128,-1,28
 935 866 935 866 966.5 890.5 c 128,-1,29
 998 915 998 915 1018.5 956.5 c 128,-1,30
 1039 998 1039 998 1039 1052 c 0,31,32
 1039 1179 1039 1179 963 1246.5 c 128,-1,33
 887 1314 887 1314 704 1314 c 2,34,-1
 311 1314 l 1,35,-1
 311 823 l 1,36,-1
 729 823 l 2,25,26
1110 420 m 3,37,38
 1110 489 1110 489 1079 542 c 128,-1,39
 1048 595 1048 595 995.5 626 c 128,-1,40
 943 657 943 657 881 672 c 128,-1,41
 819 687 819 687 750 687 c 2,42,-1
 311 687 l 1,43,-1
 311 136 l 1,44,-1
 778 136 l 2,45,46
 858 136 858 136 919.5 157 c 128,-1,47
 981 178 981 178 1016 209 c 128,-1,48
 1051 240 1051 240 1073.5 280.5 c 128,-1,49
 1096 321 1096 321 1103 354.5 c 128,-1,50
 1110 388 1110 388 1110 420 c 3,37,38
EndSplineSet
EndChar

StartChar: C
Encoding: 67 67 39
Width: 1477
VWidth: 2045
Flags: W
HStem: -12 136<567.379 1026.14> 1344 136<562.982 1003.37>
VStem: 102 146<473.094 1008.74> 1226 146<1050 1141.69> 1250 146<344.504 480>
LayerCount: 3
Fore
SplineSet
787 124 m 3xf0
 1062 124 1203 248 1250 480 c 1
 1396 480 l 1xe8
 1341 206 1120 -12 817 -12 c 3
 328 -12 102 311 102 745 c 3
 102 1187 386 1480 793 1480 c 3
 1100 1480 1298 1305 1372 1050 c 1
 1226 1050 l 1
 1151 1283 937 1344 790 1344 c 3
 456 1344 248 1107 248 746 c 3
 248 383 431 124 787 124 c 3xf0
EndSplineSet
Validated: 1
Layer: 2
SplineSet
787 124 m 3,0,1
 989 124 989 124 1101.5 213 c 128,-1,2
 1214 302 1214 302 1250 480 c 1,3,-1
 1396 480 l 1,4,5
 1353 268 1353 268 1195.5 128 c 128,-1,6
 1038 -12 1038 -12 817 -12 c 0,7,8
 638 -12 638 -12 499.5 45 c 128,-1,9
 361 102 361 102 275 204.5 c 128,-1,10
 189 307 189 307 145.5 443.5 c 128,-1,11
 102 580 102 580 102 745 c 0,12,13
 102 963 102 963 189.5 1130.5 c 128,-1,14
 277 1298 277 1298 434 1389 c 128,-1,15
 591 1480 591 1480 793 1480 c 0,16,17
 1017 1480 1017 1480 1166 1364 c 128,-1,18
 1315 1248 1315 1248 1372 1050 c 1,19,-1
 1226 1050 l 1,20,21
 1199 1133 1199 1133 1148 1193.5 c 128,-1,22
 1097 1254 1097 1254 1034 1285 c 128,-1,23
 971 1316 971 1316 911 1330 c 128,-1,24
 851 1344 851 1344 790 1344 c 0,25,26
 541 1344 541 1344 394.5 1181 c 128,-1,27
 248 1018 248 1018 248 746 c 0,28,29
 248 562 248 562 307.5 423.5 c 128,-1,30
 367 285 367 285 490 204.5 c 128,-1,31
 613 124 613 124 787 124 c 3,0,1
EndSplineSet
EndChar

StartChar: D
Encoding: 68 68 40
Width: 1477
VWidth: 2045
Flags: W
HStem: 0 136<314 922.019> 1314 136<314 942.408>
VStem: 168 146<136 1314> 1232 146<458.532 1021.42>
LayerCount: 3
Fore
SplineSet
672 1450 m 2
 1237 1450 1378 1147 1378 733 c 3
 1378 350 1241 0 695 0 c 2
 168 0 l 1
 168 1450 l 1
 672 1450 l 2
314 136 m 1
 689 136 l 2
 1126 136 1232 456 1232 736 c 3
 1232 1054 1125 1314 685 1314 c 2
 314 1314 l 1
 314 136 l 1
EndSplineSet
Validated: 1
Layer: 2
SplineSet
672 1450 m 2,0,1
 838 1450 838 1450 962 1414.5 c 128,-1,2
 1086 1379 1086 1379 1164.5 1317.5 c 128,-1,3
 1243 1256 1243 1256 1291.5 1163.5 c 128,-1,4
 1340 1071 1340 1071 1359 967.5 c 128,-1,5
 1378 864 1378 864 1378 733 c 0,6,7
 1378 0 1378 0 695 0 c 2,8,-1
 168 0 l 1,9,-1
 168 1450 l 1,10,-1
 672 1450 l 2,0,1
314 136 m 1,11,-1
 689 136 l 2,12,13
 815 136 815 136 912.5 172 c 128,-1,14
 1010 208 1010 208 1069 266 c 128,-1,15
 1128 324 1128 324 1166 404.5 c 128,-1,16
 1204 485 1204 485 1218 565.5 c 128,-1,17
 1232 646 1232 646 1232 736 c 0,18,19
 1232 837 1232 837 1217.5 918.5 c 128,-1,20
 1203 1000 1203 1000 1165.5 1076 c 128,-1,21
 1128 1152 1128 1152 1068 1203 c 128,-1,22
 1008 1254 1008 1254 910.5 1284 c 128,-1,23
 813 1314 813 1314 685 1314 c 2,24,-1
 314 1314 l 1,25,-1
 314 136 l 1,11,-1
EndSplineSet
EndChar

StartChar: E
Encoding: 69 69 41
Width: 1209
VWidth: 2045
Flags: W
HStem: 0 136<237 1151> 668 136<237 950> 1314 136<237 1151>
VStem: 91 146<136 668 804 1314>
LayerCount: 3
Fore
SplineSet
91 0 m 1
 91 1450 l 1
 1151 1450 l 1
 1151 1314 l 1
 237 1314 l 1
 237 804 l 1
 950 804 l 1
 950 668 l 1
 237 668 l 1
 237 136 l 1
 1151 136 l 1
 1151 0 l 1
 91 0 l 1
EndSplineSet
Validated: 1
Layer: 2
SplineSet
91 0 m 1,0,-1
 91 1450 l 1,1,-1
 1151 1450 l 1,2,-1
 1151 1314 l 1,3,-1
 237 1314 l 1,4,-1
 237 804 l 1,5,-1
 950 804 l 1,6,-1
 950 668 l 1,7,-1
 237 668 l 1,8,-1
 237 136 l 1,9,-1
 1151 136 l 1,10,-1
 1151 0 l 1,11,-1
 91 0 l 1,0,-1
EndSplineSet
EndChar

StartChar: F
Encoding: 70 70 42
Width: 1137
VWidth: 2045
Flags: W
HStem: 0 21G<91 237> 663 136<237 932> 1314 136<237 1079>
VStem: 91 146<0 663 799 1314>
LayerCount: 3
Fore
SplineSet
91 0 m 1
 91 1450 l 1
 1079 1450 l 1
 1079 1314 l 1
 237 1314 l 1
 237 799 l 1
 932 799 l 1
 932 663 l 1
 237 663 l 1
 237 0 l 1
 91 0 l 1
EndSplineSet
Validated: 1
Layer: 2
SplineSet
91 0 m 1,0,-1
 91 1450 l 1,1,-1
 1079 1450 l 1,2,-1
 1079 1314 l 1,3,-1
 237 1314 l 1,4,-1
 237 799 l 1,5,-1
 932 799 l 1,6,-1
 932 663 l 1,7,-1
 237 663 l 1,8,-1
 237 0 l 1,9,-1
 91 0 l 1,0,-1
EndSplineSet
EndChar

StartChar: G
Encoding: 71 71 43
Width: 1590
VWidth: 2045
Flags: W
HStem: -12 136<610.542 1047.52> 541 136<950 1302> 1344 136<605.994 1050.58>
VStem: 148 146<477.943 1009.23> 1272 146<1050 1149.78> 1302 146<361.949 541>
LayerCount: 3
Fore
SplineSet
835 -12 m 3xf4
 413 -12 148 283 148 745 c 3
 148 1189 434 1480 839 1480 c 3
 1147 1480 1345 1304 1418 1050 c 1
 1272 1050 l 1xf8
 1250 1135 1155 1344 827 1344 c 3
 495 1344 294 1101 294 753 c 3
 294 351 513 124 815 124 c 3
 1223 124 1302 414 1302 541 c 1
 950 541 l 1
 950 677 l 1
 1448 677 l 1
 1448 539 l 1
 1444 191 1207 -12 835 -12 c 3xf4
EndSplineSet
Validated: 1
Layer: 2
SplineSet
835 -12 m 3,0,1
 519 -12 519 -12 333.5 193 c 128,-1,2
 148 398 148 398 148 745 c 0,3,4
 148 964 148 964 236 1131.5 c 128,-1,5
 324 1299 324 1299 481 1389.5 c 128,-1,6
 638 1480 638 1480 839 1480 c 0,7,8
 1063 1480 1063 1480 1212 1363.5 c 128,-1,9
 1361 1247 1361 1247 1418 1050 c 1,10,-1
 1272 1050 l 1,11,12
 1267 1071 1267 1071 1258 1093 c 128,-1,13
 1249 1115 1249 1115 1231.5 1145 c 128,-1,14
 1214 1175 1214 1175 1191 1201.5 c 128,-1,15
 1168 1228 1168 1228 1132.5 1255 c 128,-1,16
 1097 1282 1097 1282 1055 1301 c 128,-1,17
 1013 1320 1013 1320 954 1332 c 128,-1,18
 895 1344 895 1344 827 1344 c 0,19,20
 581 1344 581 1344 437.5 1181 c 128,-1,21
 294 1018 294 1018 294 753 c 0,22,23
 294 458 294 458 438.5 291 c 128,-1,24
 583 124 583 124 815 124 c 0,25,26
 931 124 931 124 1021.5 155.5 c 128,-1,27
 1112 187 1112 187 1163 233.5 c 128,-1,28
 1214 280 1214 280 1247 340 c 128,-1,29
 1280 400 1280 400 1291 448.5 c 128,-1,30
 1302 497 1302 497 1302 541 c 1,31,-1
 950 541 l 1,32,-1
 950 677 l 1,33,-1
 1448 677 l 1,34,-1
 1448 539 l 2,35,36
 1445 280 1445 280 1280.5 134 c 128,-1,37
 1116 -12 1116 -12 835 -12 c 3,0,1
EndSplineSet
EndChar

StartChar: H
Encoding: 72 72 44
Width: 1477
VWidth: 2045
Flags: W
HStem: 0 21G<165 311 1167 1313> 689 136<311 1167> 1430 20G<165 311 1167 1313>
VStem: 165 146<0 689 825 1450> 1167 146<0 689 825 1450>
LayerCount: 3
Fore
SplineSet
165 0 m 1
 165 1450 l 1
 311 1450 l 1
 311 825 l 1
 1167 825 l 1
 1167 1450 l 1
 1313 1450 l 1
 1313 0 l 1
 1167 0 l 1
 1167 689 l 1
 311 689 l 1
 311 0 l 1
 165 0 l 1
EndSplineSet
Validated: 1
Layer: 2
SplineSet
165 0 m 1,0,-1
 165 1450 l 1,1,-1
 311 1450 l 1,2,-1
 311 825 l 1,3,-1
 1167 825 l 1,4,-1
 1167 1450 l 1,5,-1
 1313 1450 l 1,6,-1
 1313 0 l 1,7,-1
 1167 0 l 1,8,-1
 1167 689 l 1,9,-1
 311 689 l 1,10,-1
 311 0 l 1,11,-1
 165 0 l 1,0,-1
EndSplineSet
EndChar

StartChar: I
Encoding: 73 73 45
Width: 568
VWidth: 2045
Flags: W
HStem: 0 21G<223 369> 1430 20G<223 369>
VStem: 223 146<0 1450>
LayerCount: 3
Fore
SplineSet
223 0 m 1
 223 1450 l 1
 369 1450 l 1
 369 0 l 1
 223 0 l 1
EndSplineSet
Validated: 1
Layer: 2
SplineSet
223 0 m 1,0,-1
 223 1450 l 1,1,-1
 369 1450 l 1,2,-1
 369 0 l 1,3,-1
 223 0 l 1,0,-1
EndSplineSet
EndChar

StartChar: J
Encoding: 74 74 46
Width: 1022
VWidth: 2045
Flags: W
HStem: -12 136<317.445 619.515> 1430 20G<718 864>
VStem: 64 146<244.484 452> 718 146<228.612 1450>
LayerCount: 3
Fore
SplineSet
718 1450 m 17
 864 1450 l 1
 864 453 l 2
 864 190 778 -12 463 -12 c 3
 73 -12 64 372 64 452 c 1
 210 452 l 17
 210 259 287 124 460 124 c 3
 643 124 718 230 718 405 c 10
 718 1450 l 17
EndSplineSet
Validated: 1
Layer: 2
SplineSet
718 1450 m 17,0,-1
 864 1450 l 1,1,-1
 864 453 l 2,2,3
 864 370 864 370 853 303 c 128,-1,4
 842 236 842 236 813.5 176 c 128,-1,5
 785 116 785 116 740.5 75.5 c 128,-1,6
 696 35 696 35 625.5 11.5 c 128,-1,7
 555 -12 555 -12 463 -12 c 0,8,9
 400 -12 400 -12 346.5 1.5 c 128,-1,10
 293 15 293 15 255 37 c 128,-1,11
 217 59 217 59 186 91 c 128,-1,12
 155 123 155 123 136 155 c 128,-1,13
 117 187 117 187 102.5 226 c 128,-1,14
 88 265 88 265 81 295.5 c 128,-1,15
 74 326 74 326 69.5 361.5 c 128,-1,16
 65 397 65 397 64.5 415 c 128,-1,17
 64 433 64 433 64 452 c 1,18,-1
 210 452 l 1,19,20
 210 301 210 301 272.5 212.5 c 128,-1,21
 335 124 335 124 460 124 c 0,22,23
 718 124 718 124 718 405 c 2,24,-1
 718 1450 l 17,0,-1
EndSplineSet
EndChar

StartChar: K
Encoding: 75 75 47
Width: 1364
VWidth: 2045
Flags: W
HStem: 0 21G<149 295 1146.79 1345> 1430 20G<149 295 1101.91 1314>
VStem: 149 146<0 568 731 1450>
DStem2: 295 731 295 568 0.756105 0.65445<0 154.29 283.26 1098.12> 590 823 493 738 0.676008 -0.736894<0 995.169>
LayerCount: 3
Fore
SplineSet
149 0 m 1
 149 1450 l 1
 295 1450 l 1
 295 731 l 1
 1125 1450 l 1
 1314 1450 l 1
 590 823 l 1
 1345 0 l 1
 1165 0 l 1
 493 738 l 1
 295 568 l 1
 295 0 l 1
 149 0 l 1
EndSplineSet
Validated: 1
Layer: 2
SplineSet
149 0 m 1,0,-1
 149 1450 l 1,1,-1
 295 1450 l 1,2,-1
 295 731 l 1,3,-1
 1125 1450 l 1,4,-1
 1314 1450 l 1,5,-1
 590 823 l 1,6,-1
 1345 0 l 1,7,-1
 1165 0 l 1,8,-1
 493 738 l 1,9,-1
 295 568 l 1,10,-1
 295 0 l 1,11,-1
 149 0 l 1,0,-1
EndSplineSet
EndChar

StartChar: L
Encoding: 76 76 48
Width: 1137
VWidth: 2045
Flags: W
HStem: 0 136<295 1058> 1430 20G<149 295>
VStem: 149 146<136 1450>
LayerCount: 3
Fore
SplineSet
149 0 m 1
 149 1450 l 1
 295 1450 l 1
 295 136 l 1
 1058 136 l 1
 1058 0 l 1
 149 0 l 1
EndSplineSet
Validated: 1
Layer: 2
SplineSet
149 0 m 1,0,-1
 149 1450 l 1,1,-1
 295 1450 l 1,2,-1
 295 136 l 1,3,-1
 1058 136 l 1,4,-1
 1058 0 l 1,5,-1
 149 0 l 1,0,-1
EndSplineSet
EndChar

StartChar: M
Encoding: 77 77 49
Width: 1702
VWidth: 2045
Flags: W
HStem: 0 21G<152 298 787.301 911.734 1403 1549> 1430 20G<152 306.547 1394.47 1549>
VStem: 152 146<0 1145> 1403 146<0 1145>
DStem2: 298 1450 298 1145 0.392976 -0.919549<280.462 1407.21> 851 156 903 0 0.392375 0.919806<0 1126.28>
LayerCount: 3
Fore
SplineSet
152 0 m 1
 152 1450 l 1
 298 1450 l 1
 851 156 l 1
 1403 1450 l 1
 1549 1450 l 1
 1549 0 l 1
 1403 0 l 1
 1403 1145 l 1
 903 0 l 1
 796 0 l 1
 298 1145 l 1
 298 0 l 1
 152 0 l 1
EndSplineSet
Validated: 1
Layer: 2
SplineSet
152 0 m 1,0,-1
 152 1450 l 1,1,-1
 298 1450 l 1,2,-1
 851 156 l 1,3,-1
 1403 1450 l 1,4,-1
 1549 1450 l 1,5,-1
 1549 0 l 1,6,-1
 1403 0 l 1,7,-1
 1403 1145 l 1,8,-1
 903 0 l 1,9,-1
 796 0 l 1,10,-1
 298 1145 l 1,11,-1
 298 0 l 1,12,-1
 152 0 l 1,0,-1
EndSplineSet
EndChar

StartChar: N
Encoding: 78 78 50
Width: 1477
VWidth: 2045
Flags: W
HStem: 0 21G<156 302 1149.14 1309> 1430 20G<156 315.865 1163 1309>
VStem: 156 146<0 1242> 1163 146<208 1450>
DStem2: 302 1450 302 1242 0.569726 -0.821835<170.942 1511.25>
LayerCount: 3
Fore
SplineSet
156 0 m 1
 156 1450 l 1
 302 1450 l 1
 1163 208 l 1
 1163 1450 l 1
 1309 1450 l 1
 1309 0 l 1
 1163 0 l 1
 302 1242 l 1
 302 0 l 1
 156 0 l 1
EndSplineSet
Validated: 1
Layer: 2
SplineSet
156 0 m 1,0,-1
 156 1450 l 1,1,-1
 302 1450 l 1,2,-1
 1163 208 l 1,3,-1
 1163 1450 l 1,4,-1
 1309 1450 l 1,5,-1
 1309 0 l 1,6,-1
 1163 0 l 1,7,-1
 302 1242 l 1,8,-1
 302 0 l 1,9,-1
 156 0 l 1,0,-1
EndSplineSet
EndChar

StartChar: O
Encoding: 79 79 51
Width: 1590
VWidth: 2045
Flags: W
HStem: -12 136<600.061 997.939> 1344 136<600.061 997.939>
VStem: 99 146<493.352 974.648> 1353 146<493.352 974.648>
LayerCount: 3
Fore
SplineSet
99 734 m 259
 99 1187 392 1480 799 1480 c 259
 1206 1480 1499 1187 1499 734 c 259
 1499 281 1206 -12 799 -12 c 259
 392 -12 99 281 99 734 c 259
799 1344 m 259
 503 1344 245 1087 245 734 c 259
 245 381 503 124 799 124 c 259
 1095 124 1353 381 1353 734 c 259
 1353 1087 1095 1344 799 1344 c 259
EndSplineSet
Validated: 1
Layer: 2
SplineSet
99 734 m 259,0,1
 99 901 99 901 151.5 1041 c 128,-1,2
 204 1181 204 1181 296.5 1277 c 128,-1,3
 389 1373 389 1373 518.5 1426.5 c 128,-1,4
 648 1480 648 1480 799 1480 c 128,-1,5
 950 1480 950 1480 1079.5 1426.5 c 128,-1,6
 1209 1373 1209 1373 1301.5 1277 c 128,-1,7
 1394 1181 1394 1181 1446.5 1041 c 128,-1,8
 1499 901 1499 901 1499 734 c 128,-1,9
 1499 567 1499 567 1446.5 427 c 128,-1,10
 1394 287 1394 287 1301.5 191 c 128,-1,11
 1209 95 1209 95 1079.5 41.5 c 128,-1,12
 950 -12 950 -12 799 -12 c 128,-1,13
 648 -12 648 -12 518.5 41.5 c 128,-1,14
 389 95 389 95 296.5 191 c 128,-1,15
 204 287 204 287 151.5 427 c 128,-1,16
 99 567 99 567 99 734 c 259,0,1
799 1344 m 259,17,18
 689 1344 689 1344 587.5 1298 c 128,-1,19
 486 1252 486 1252 410.5 1172 c 128,-1,20
 335 1092 335 1092 290 977.5 c 128,-1,21
 245 863 245 863 245 734 c 128,-1,22
 245 605 245 605 290 490.5 c 128,-1,23
 335 376 335 376 410.5 296 c 128,-1,24
 486 216 486 216 587.5 170 c 128,-1,25
 689 124 689 124 799 124 c 128,-1,26
 909 124 909 124 1010.5 170 c 128,-1,27
 1112 216 1112 216 1187.5 296 c 128,-1,28
 1263 376 1263 376 1308 490.5 c 128,-1,29
 1353 605 1353 605 1353 734 c 128,-1,30
 1353 863 1353 863 1308 977.5 c 128,-1,31
 1263 1092 1263 1092 1187.5 1172 c 128,-1,32
 1112 1252 1112 1252 1010.5 1298 c 128,-1,33
 909 1344 909 1344 799 1344 c 259,17,18
EndSplineSet
EndChar

StartChar: P
Encoding: 80 80 52
Width: 1248
VWidth: 2045
Flags: W
HStem: 0 21G<88 234> 580 136<234 884.811> 1314 136<234 903.34>
VStem: 88 146<0 580 716 1314> 1061 146<873.017 1181.67>
LayerCount: 3
Fore
SplineSet
88 0 m 1
 88 1450 l 1
 672 1450 l 2
 844 1450 1207 1438 1207 1026 c 3
 1207 758 1055 580 659 580 c 2
 234 580 l 1
 234 0 l 1
 88 0 l 1
662 716 m 2
 1009 716 1061 920 1061 1040 c 3
 1061 1150 1000 1314 659 1314 c 2
 234 1314 l 1
 234 716 l 1
 662 716 l 2
EndSplineSet
Validated: 1
Layer: 2
SplineSet
88 0 m 1,0,-1
 88 1450 l 1,1,-1
 672 1450 l 2,2,3
 708 1450 708 1450 736 1449 c 128,-1,4
 764 1448 764 1448 808.5 1443.5 c 128,-1,5
 853 1439 853 1439 887.5 1431.5 c 128,-1,6
 922 1424 922 1424 965.5 1408.5 c 128,-1,7
 1009 1393 1009 1393 1041 1372 c 128,-1,8
 1073 1351 1073 1351 1106 1318.5 c 128,-1,9
 1139 1286 1139 1286 1160 1245.5 c 128,-1,10
 1181 1205 1181 1205 1194 1149 c 128,-1,11
 1207 1093 1207 1093 1207 1026 c 0,12,13
 1207 580 1207 580 659 580 c 2,14,-1
 234 580 l 1,15,-1
 234 0 l 1,16,-1
 88 0 l 1,0,-1
662 716 m 2,17,18
 761 716 761 716 836 738.5 c 128,-1,19
 911 761 911 761 952.5 794.5 c 128,-1,20
 994 828 994 828 1020 874.5 c 128,-1,21
 1046 921 1046 921 1053.5 959.5 c 128,-1,22
 1061 998 1061 998 1061 1040 c 0,23,24
 1061 1077 1061 1077 1052.5 1111 c 128,-1,25
 1044 1145 1044 1145 1017.5 1183.5 c 128,-1,26
 991 1222 991 1222 948.5 1249.5 c 128,-1,27
 906 1277 906 1277 831.5 1295.5 c 128,-1,28
 757 1314 757 1314 659 1314 c 2,29,-1
 234 1314 l 1,30,-1
 234 716 l 1,31,-1
 662 716 l 2,17,18
EndSplineSet
EndChar

StartChar: Q
Encoding: 81 81 53
Width: 1590
VWidth: 2045
Flags: W
HStem: -12 136<577.012 985.828 1279.72 1527.21> 341 136<654.352 975.223> 1344 136<582.061 979.939>
VStem: 81 146<497.273 974.648> 1335 146<496.154 974.648>
LayerCount: 3
Back
SplineSet
81 734 m 259
 81 1187 374 1480 781 1480 c 259
 1188 1480 1481 1187 1481 734 c 259
 1481 281 1188 -12 781 -12 c 259
 374 -12 81 281 81 734 c 259
781 1344 m 259
 485 1344 227 1087 227 734 c 259
 227 381 485 124 781 124 c 259
 1077 124 1335 381 1335 734 c 259
 1335 1087 1077 1344 781 1344 c 259
1392 124 m 3
 1463 124 1524 156 1552 194 c 1
 1634 79 l 1
 1579 18 1497 -12 1387 -12 c 3
 1062 -12 1170 341 781 341 c 3
 645 341 525 189 525 102 c 1
 408 147 l 1
 408 276 585 477 781 477 c 3
 1239 477 1173 124 1392 124 c 3
EndSplineSet
Fore
SplineSet
1392 124 m 3
 1463 124 1524 156 1552 194 c 1
 1634 79 l 1
 1579 18 1497 -12 1387 -12 c 3
 1270 -12 1209 34 1161 92 c 1
 1054 25 925 -12 781 -12 c 3
 374 -12 81 281 81 734 c 3
 81 1187 374 1480 781 1480 c 3
 1188 1480 1481 1187 1481 734 c 3
 1481 499 1402 307 1270 177 c 1
 1301 145 1338 124 1392 124 c 3
781 1344 m 3
 485 1344 227 1087 227 734 c 3
 227 532 312 362 439 253 c 1
 498 364 634 477 781 477 c 3
 1008 477 1107 391 1175 303 c 1
 1273 411 1335 561 1335 734 c 3
 1335 1087 1077 1344 781 1344 c 3
1071 214 m 1
 1015 283 939 341 781 341 c 3
 681 341 589 258 548 180 c 1
 620 144 699 124 781 124 c 3
 886 124 985 157 1071 214 c 1
EndSplineSet
Validated: 1
Layer: 2
SplineSet
1392 124 m 3,0,1
 1443 124 1443 124 1486.5 144 c 128,-1,2
 1530 164 1530 164 1552 194 c 1,3,-1
 1634 79 l 1,4,5
 1552 -12 1552 -12 1387 -12 c 0,6,7
 1306 -12 1306 -12 1254 15 c 128,-1,8
 1202 42 1202 42 1161 92 c 1,9,10
 995 -12 995 -12 781 -12 c 0,11,12
 630 -12 630 -12 500.5 41.5 c 128,-1,13
 371 95 371 95 278.5 191 c 128,-1,14
 186 287 186 287 133.5 427 c 128,-1,15
 81 567 81 567 81 734 c 128,-1,16
 81 901 81 901 133.5 1041 c 128,-1,17
 186 1181 186 1181 278.5 1277 c 128,-1,18
 371 1373 371 1373 500.5 1426.5 c 128,-1,19
 630 1480 630 1480 781 1480 c 128,-1,20
 932 1480 932 1480 1061.5 1426.5 c 128,-1,21
 1191 1373 1191 1373 1283.5 1277 c 128,-1,22
 1376 1181 1376 1181 1428.5 1041 c 128,-1,23
 1481 901 1481 901 1481 734 c 0,24,25
 1481 561 1481 561 1426 418.5 c 128,-1,26
 1371 276 1371 276 1270 177 c 1,27,28
 1321 124 1321 124 1392 124 c 3,0,1
781 1344 m 131,-1,30
 671 1344 671 1344 569.5 1298 c 128,-1,31
 468 1252 468 1252 392.5 1172 c 128,-1,32
 317 1092 317 1092 272 977.5 c 128,-1,33
 227 863 227 863 227 734 c 0,34,35
 227 587 227 587 284 462 c 128,-1,36
 341 337 341 337 439 253 c 1,37,38
 487 343 487 343 582 410 c 128,-1,39
 677 477 677 477 781 477 c 0,40,41
 862 477 862 477 927.5 463 c 128,-1,42
 993 449 993 449 1039 422.5 c 128,-1,43
 1085 396 1085 396 1115.5 368.5 c 128,-1,44
 1146 341 1146 341 1175 303 c 1,45,46
 1251 386 1251 386 1293 496.5 c 128,-1,47
 1335 607 1335 607 1335 734 c 0,48,49
 1335 863 1335 863 1290 977.5 c 128,-1,50
 1245 1092 1245 1092 1169.5 1172 c 128,-1,51
 1094 1252 1094 1252 992.5 1298 c 128,-1,29
 891 1344 891 1344 781 1344 c 131,-1,30
1071 214 m 1,52,53
 1022 274 1022 274 956 307.5 c 128,-1,54
 890 341 890 341 781 341 c 0,55,56
 711 341 711 341 646.5 292.5 c 128,-1,57
 582 244 582 244 548 180 c 1,58,59
 660 124 660 124 781 124 c 0,60,61
 935 124 935 124 1071 214 c 1,52,53
EndSplineSet
EndChar

StartChar: R
Encoding: 82 82 54
Width: 1364
VWidth: 2045
Flags: W
HStem: 0 21G<98 244 1152.31 1325> 580 136<244 713> 1314 136<244 910.475>
VStem: 98 146<0 580 716 1314> 1068 146<848.466 1175.82>
DStem2: 863 595 713 580 0.613297 -0.789852<0 657.018>
LayerCount: 3
Fore
SplineSet
1214 1037 m 3
 1214 764 1068 640 863 595 c 1
 1325 0 l 1
 1168 0 l 1
 713 580 l 1
 244 580 l 1
 244 0 l 1
 98 0 l 1
 98 1450 l 1
 683 1450 l 2
 1124 1450 1214 1232 1214 1037 c 3
700 716 m 2
 968 716 1068 832 1068 1020 c 3
 1068 1138 1002 1314 695 1314 c 2
 244 1314 l 1
 244 716 l 1
 700 716 l 2
EndSplineSet
Validated: 1
Layer: 2
SplineSet
1214 1037 m 3,0,1
 1214 672 1214 672 863 595 c 1,2,-1
 1325 0 l 1,3,-1
 1168 0 l 1,4,-1
 713 580 l 1,5,-1
 244 580 l 1,6,-1
 244 0 l 1,7,-1
 98 0 l 1,8,-1
 98 1450 l 1,9,-1
 683 1450 l 2,10,11
 1214 1450 1214 1450 1214 1037 c 3,0,1
700 716 m 2,12,13
 894 716 894 716 981 794 c 128,-1,14
 1068 872 1068 872 1068 1020 c 0,15,16
 1068 1059 1068 1059 1059 1096 c 128,-1,17
 1050 1133 1050 1133 1024.5 1174 c 128,-1,18
 999 1215 999 1215 959 1245 c 128,-1,19
 919 1275 919 1275 851 1294.5 c 128,-1,20
 783 1314 783 1314 695 1314 c 2,21,-1
 244 1314 l 1,22,-1
 244 716 l 1,23,-1
 700 716 l 2,12,13
EndSplineSet
EndChar

StartChar: S
Encoding: 83 83 55
Width: 1248
VWidth: 2045
Flags: W
HStem: -12 136<409.557 897.3> 1344 136<392.658 824.624>
VStem: 46 146<315.797 501> 102 146<968.316 1219.97> 1022 146<1018 1158.8> 1066 146<270.289 524.268>
LayerCount: 3
Fore
SplineSet
625 1344 m 3xd8
 306 1344 248 1182 248 1078 c 3xd8
 248 932 436 866 617 835 c 0
 1113 750 1212 560 1212 429 c 3
 1212 287 1115 -12 689 -12 c 3
 147 -12 46 297 46 501 c 9
 192 501 l 17
 192 351 263 124 662 124 c 3
 1006 124 1066 317 1066 414 c 3xe4
 1066 524 978 621 592 689 c 0
 334 735 102 840 102 1066 c 3
 102 1239 239 1480 606 1480 c 3
 912 1480 1151 1318 1168 1018 c 1
 1022 1018 l 17
 999 1231 834 1344 625 1344 c 3xd8
EndSplineSet
Validated: 1
Layer: 2
SplineSet
625 1344 m 3,0,1
 534 1344 534 1344 464 1326 c 128,-1,2
 394 1308 394 1308 354 1281 c 128,-1,3
 314 1254 314 1254 289 1216.5 c 128,-1,4
 264 1179 264 1179 256 1146 c 128,-1,5
 248 1113 248 1113 248 1078 c 0,6,7
 248 898 248 898 617 835 c 0,8,9
 760 811 760 811 869 772.5 c 128,-1,10
 978 734 978 734 1041.5 693.5 c 128,-1,11
 1105 653 1105 653 1145 604 c 128,-1,12
 1185 555 1185 555 1198.5 513.5 c 128,-1,13
 1212 472 1212 472 1212 429 c 0,14,15
 1212 381 1212 381 1199 328 c 128,-1,16
 1186 275 1186 275 1149.5 212.5 c 128,-1,17
 1113 150 1113 150 1057.5 101.5 c 128,-1,18
 1002 53 1002 53 906 20.5 c 128,-1,19
 810 -12 810 -12 689 -12 c 0,20,21
 577 -12 577 -12 483 6 c 128,-1,22
 389 24 389 24 324 54 c 128,-1,23
 259 84 259 84 208.5 126 c 128,-1,24
 158 168 158 168 128 213 c 128,-1,25
 98 258 98 258 79 310.5 c 128,-1,26
 60 363 60 363 53 408.5 c 128,-1,27
 46 454 46 454 46 501 c 1,28,-1
 192 501 l 1,29,30
 192 450 192 450 202 403.5 c 128,-1,31
 212 357 212 357 243 304 c 128,-1,32
 274 251 274 251 323.5 213 c 128,-1,33
 373 175 373 175 460.5 149.5 c 128,-1,34
 548 124 548 124 662 124 c 0,35,36
 760 124 760 124 835.5 145.5 c 128,-1,37
 911 167 911 167 953.5 198 c 128,-1,38
 996 229 996 229 1022.5 270.5 c 128,-1,39
 1049 312 1049 312 1057.5 346 c 128,-1,40
 1066 380 1066 380 1066 414 c 0,41,42
 1066 458 1066 458 1045.5 494.5 c 128,-1,43
 1025 531 1025 531 974.5 567 c 128,-1,44
 924 603 924 603 828 633.5 c 128,-1,45
 732 664 732 664 592 689 c 0,46,47
 511 704 511 704 442 724.5 c 128,-1,48
 373 745 373 745 308.5 777 c 128,-1,49
 244 809 244 809 199.5 849 c 128,-1,50
 155 889 155 889 128.5 944.5 c 128,-1,51
 102 1000 102 1000 102 1066 c 0,52,53
 102 1120 102 1120 118.5 1175.5 c 128,-1,54
 135 1231 135 1231 174 1286.5 c 128,-1,55
 213 1342 213 1342 269.5 1384.5 c 128,-1,56
 326 1427 326 1427 413 1453.5 c 128,-1,57
 500 1480 500 1480 606 1480 c 0,58,59
 761 1480 761 1480 883.5 1428 c 128,-1,60
 1006 1376 1006 1376 1083 1270 c 128,-1,61
 1160 1164 1160 1164 1168 1018 c 1,62,-1
 1022 1018 l 1,63,64
 1005 1173 1005 1173 896 1258.5 c 128,-1,65
 787 1344 787 1344 625 1344 c 3,0,1
EndSplineSet
EndChar

StartChar: T
Encoding: 84 84 56
Width: 1137
VWidth: 2045
Flags: W
HStem: 0 21G<494 640> 1314 136<18 494 640 1119>
VStem: 494 146<0 1314>
LayerCount: 3
Fore
SplineSet
494 0 m 1
 494 1314 l 1
 18 1314 l 1
 18 1450 l 1
 1119 1450 l 1
 1119 1314 l 1
 640 1314 l 1
 640 0 l 1
 494 0 l 1
EndSplineSet
Validated: 1
Layer: 2
SplineSet
494 0 m 1,0,-1
 494 1314 l 1,1,-1
 18 1314 l 1,2,-1
 18 1450 l 1,3,-1
 1119 1450 l 1,4,-1
 1119 1314 l 1,5,-1
 640 1314 l 1,6,-1
 640 0 l 1,7,-1
 494 0 l 1,0,-1
EndSplineSet
EndChar

StartChar: U
Encoding: 85 85 57
Width: 1477
VWidth: 2045
Flags: W
HStem: -12 136<515.553 960.222> 1430 20G<162 308 1167 1313>
VStem: 162 146<340.73 1450> 1167 146<340.73 1450>
LayerCount: 3
Fore
SplineSet
738 124 m 3
 962 124 1167 218 1167 568 c 2
 1167 1450 l 1
 1313 1450 l 1
 1313 566 l 2
 1313 103 1044 -12 738 -12 c 3
 432 -12 162 103 162 566 c 2
 162 1450 l 1
 308 1450 l 1
 308 568 l 2
 308 218 514 124 738 124 c 3
EndSplineSet
Validated: 1
Layer: 2
SplineSet
738 124 m 131,-1,1
 809 124 809 124 869 136.5 c 128,-1,2
 929 149 929 149 985.5 180 c 128,-1,3
 1042 211 1042 211 1081 260 c 128,-1,4
 1120 309 1120 309 1143.5 387.5 c 128,-1,5
 1167 466 1167 466 1167 568 c 2,6,-1
 1167 1450 l 1,7,-1
 1313 1450 l 1,8,-1
 1313 566 l 2,9,10
 1313 431 1313 431 1282 328.5 c 128,-1,11
 1251 226 1251 226 1199.5 162 c 128,-1,12
 1148 98 1148 98 1072 58.5 c 128,-1,13
 996 19 996 19 915.5 3.5 c 128,-1,14
 835 -12 835 -12 738 -12 c 128,-1,15
 641 -12 641 -12 560 3.5 c 128,-1,16
 479 19 479 19 403.5 58.5 c 128,-1,17
 328 98 328 98 276 162 c 128,-1,18
 224 226 224 226 193 328.5 c 128,-1,19
 162 431 162 431 162 566 c 2,20,-1
 162 1450 l 1,21,-1
 308 1450 l 1,22,-1
 308 568 l 2,23,24
 308 466 308 466 331.5 387.5 c 128,-1,25
 355 309 355 309 394.5 260 c 128,-1,26
 434 211 434 211 490.5 180 c 128,-1,27
 547 149 547 149 607 136.5 c 128,-1,0
 667 124 667 124 738 124 c 131,-1,1
EndSplineSet
EndChar

StartChar: V
Encoding: 86 86 58
Width: 1248
VWidth: 2045
Flags: W
HStem: 0 21G<553.386 690.697> 1430 20G<9 172.419 1090.27 1241>
DStem2: 165 1450 9 1450 0.355781 -0.934569<0 1313.98> 622 218 683 0 0.359152 0.933279<0 1320.76>
LayerCount: 3
Fore
SplineSet
561 0 m 1
 9 1450 l 1
 165 1450 l 1
 622 218 l 1
 1098 1450 l 1
 1241 1450 l 1
 683 0 l 1
 561 0 l 1
EndSplineSet
Validated: 1
Layer: 2
SplineSet
561 0 m 1,0,-1
 9 1450 l 1,1,-1
 165 1450 l 1,2,-1
 622 218 l 1,3,-1
 1098 1450 l 1,4,-1
 1241 1450 l 1,5,-1
 683 0 l 1,6,-1
 561 0 l 1,0,-1
EndSplineSet
EndChar

StartChar: W
Encoding: 87 87 59
Width: 1818
VWidth: 2045
Flags: W
HStem: 0 21G<430.317 578.663 1256.45 1405.46> 1430 20G<24 176.563 851.372 1001.6 1644.93 1796>
DStem2: 171 1450 24 1450 0.273319 -0.961923<0 1272.52> 512 224 573 0 0.272446 0.962171<0 1078.41> 996 1450 921 1229 0.267361 -0.963597<192.903 1273.07> 1339 224 1400 0 0.263455 0.964672<0 1264.62>
LayerCount: 3
Fore
SplineSet
436 0 m 1
 24 1450 l 1
 171 1450 l 1
 512 224 l 1
 857 1450 l 1
 996 1450 l 1
 1339 224 l 1
 1650 1450 l 1
 1796 1450 l 1
 1400 0 l 1
 1262 0 l 1
 921 1229 l 1
 573 0 l 1
 436 0 l 1
EndSplineSet
Validated: 1
Layer: 2
SplineSet
436 0 m 1,0,-1
 24 1450 l 1,1,-1
 171 1450 l 1,2,-1
 512 224 l 1,3,-1
 857 1450 l 1,4,-1
 996 1450 l 1,5,-1
 1339 224 l 1,6,-1
 1650 1450 l 1,7,-1
 1796 1450 l 1,8,-1
 1400 0 l 1,9,-1
 1262 0 l 1,10,-1
 921 1229 l 1,11,-1
 573 0 l 1,12,-1
 436 0 l 1,0,-1
EndSplineSet
EndChar

StartChar: X
Encoding: 88 88 60
Width: 1248
VWidth: 2045
Flags: W
HStem: 0 21G<9 199.912 1055.06 1244> 1430 20G<76 265.593 1014.5 1204>
DStem2: 9 0 186 0 0.574976 0.81817<101.771 874.055 1055.69 1772.25> 253 1450 76 1450 0.559612 -0.828754<0 701.575 885.559 1658.34>
LayerCount: 3
Fore
SplineSet
9 0 m 1
 540 740 l 1
 76 1450 l 1
 253 1450 l 1
 627 856 l 1
 1028 1450 l 1
 1204 1450 l 1
 713 740 l 1
 1244 0 l 1
 1069 0 l 1
 627 634 l 1
 186 0 l 1
 9 0 l 1
EndSplineSet
Validated: 1
Layer: 2
SplineSet
9 0 m 1,0,-1
 540 740 l 1,1,-1
 76 1450 l 1,2,-1
 253 1450 l 1,3,-1
 627 856 l 1,4,-1
 1028 1450 l 1,5,-1
 1204 1450 l 1,6,-1
 713 740 l 1,7,-1
 1244 0 l 1,8,-1
 1069 0 l 1,9,-1
 627 634 l 1,10,-1
 186 0 l 1,11,-1
 9 0 l 1,0,-1
EndSplineSet
EndChar

StartChar: Y
Encoding: 89 89 61
Width: 1248
VWidth: 2045
Flags: W
HStem: 0 21G<542 688> 1430 20G<6 195.756 1053.27 1241>
VStem: 542 146<0 621>
DStem2: 183 1450 6 1450 0.542957 -0.83976<0 821.941> 625 757 688 621 0.554932 0.831896<0 821.229>
LayerCount: 3
Fore
SplineSet
542 0 m 1
 542 621 l 1
 6 1450 l 1
 183 1450 l 1
 625 757 l 1
 1066 1450 l 1
 1241 1450 l 1
 688 621 l 1
 688 0 l 1
 542 0 l 1
EndSplineSet
Validated: 1
Layer: 2
SplineSet
542 0 m 1,0,-1
 542 621 l 1,1,-1
 6 1450 l 1,2,-1
 183 1450 l 1,3,-1
 625 757 l 1,4,-1
 1066 1450 l 1,5,-1
 1241 1450 l 1,6,-1
 688 621 l 1,7,-1
 688 0 l 1,8,-1
 542 0 l 1,0,-1
EndSplineSet
EndChar

StartChar: Z
Encoding: 90 90 62
Width: 1248
VWidth: 2045
Flags: W
HStem: 0 136<233 1198> 1314 136<46 1035>
LayerCount: 3
Fore
SplineSet
41 0 m 1
 41 144 l 1
 1035 1314 l 1
 46 1314 l 1
 46 1450 l 1
 1212 1450 l 1
 1212 1314 l 1
 233 136 l 1
 1198 136 l 1
 1198 0 l 1
 41 0 l 1
EndSplineSet
Validated: 1
Layer: 2
SplineSet
41 0 m 1,0,-1
 41 144 l 1,1,-1
 1035 1314 l 1,2,-1
 46 1314 l 1,3,-1
 46 1450 l 1,4,-1
 1212 1450 l 1,5,-1
 1212 1314 l 1,6,-1
 233 136 l 1,7,-1
 1198 136 l 1,8,-1
 1198 0 l 1,9,-1
 41 0 l 1,0,-1
EndSplineSet
EndChar

StartChar: bracketleft
Encoding: 91 91 63
Width: 681
VWidth: 2045
Flags: W
HStem: -408 136<285 535> 1329 136<285 535>
VStem: 139 396<-408 -272 1329 1465> 139 146<-272 1329>
LayerCount: 3
Fore
SplineSet
139 -408 m 1xe0
 139 1465 l 1
 535 1465 l 1
 535 1329 l 1xe0
 285 1329 l 1
 285 -272 l 1xd0
 535 -272 l 1
 535 -408 l 1
 139 -408 l 1xe0
EndSplineSet
Validated: 1
Layer: 2
SplineSet
139 -408 m 1,0,-1
 139 1465 l 1,1,-1
 535 1465 l 1,2,-1
 535 1329 l 1,3,-1
 285 1329 l 1,4,-1
 285 -272 l 1,5,-1
 535 -272 l 1,6,-1
 535 -408 l 1,7,-1
 139 -408 l 1,0,-1
EndSplineSet
EndChar

StartChar: backslash
Encoding: 92 92 64
Width: 568
VWidth: 2045
Flags: W
VStem: 0 531
DStem2: 107 1489 0 1489 0.269842 -0.962905<0 1542.41>
LayerCount: 3
Fore
SplineSet
424 -24 m 1
 0 1489 l 1
 107 1489 l 1
 531 -24 l 1
 424 -24 l 1
EndSplineSet
Validated: 1
Layer: 2
SplineSet
424 -24 m 1,0,-1
 0 1489 l 1,1,-1
 107 1489 l 1,2,-1
 531 -24 l 1,3,-1
 424 -24 l 1,0,-1
EndSplineSet
EndChar

StartChar: bracketright
Encoding: 93 93 65
Width: 681
VWidth: 2045
Flags: W
HStem: -408 136<146 396> 1329 136<146 396>
VStem: 146 396<-408 -272 1329 1465> 396 146<-272 1329>
LayerCount: 3
Fore
SplineSet
542 -408 m 1xe0
 146 -408 l 1
 146 -272 l 1xe0
 396 -272 l 1
 396 1329 l 1xd0
 146 1329 l 1
 146 1465 l 1
 542 1465 l 1
 542 -408 l 1xe0
EndSplineSet
Validated: 1
Layer: 2
SplineSet
542 -408 m 1,0,-1
 146 -408 l 1,1,-1
 146 -272 l 1,2,-1
 396 -272 l 1,3,-1
 396 1329 l 1,4,-1
 146 1329 l 1,5,-1
 146 1465 l 1,6,-1
 542 1465 l 1,7,-1
 542 -408 l 1,0,-1
EndSplineSet
EndChar

StartChar: asciicircum
Encoding: 94 94 66
Width: 1350
VWidth: 2045
Flags: W
DStem2: 238 689 375 689 0.400399 0.916341<54.8546 786.467> 735 1490 662 1362 0.404231 -0.914657<87.5673 817.529>
LayerCount: 3
Fore
SplineSet
375 689 m 1
 238 689 l 1
 588 1490 l 1
 735 1490 l 1
 1089 689 l 1
 945 689 l 1
 662 1362 l 1
 375 689 l 1
EndSplineSet
Validated: 1
Layer: 2
SplineSet
375 689 m 1,0,-1
 238 689 l 1,1,-1
 588 1490 l 1,2,-1
 735 1490 l 1,3,-1
 1089 689 l 1,4,-1
 945 689 l 1,5,-1
 662 1362 l 1,6,-1
 375 689 l 1,0,-1
EndSplineSet
EndChar

StartChar: underscore
Encoding: 95 95 67
Width: 1022
VWidth: 2045
Flags: W
HStem: -408 94<-30 1055>
LayerCount: 3
Fore
SplineSet
-30 -408 m 1
 -30 -314 l 1
 1055 -314 l 1
 1055 -408 l 1
 -30 -408 l 1
EndSplineSet
Validated: 1
Layer: 2
SplineSet
-30 -408 m 1,0,-1
 -30 -314 l 1,1,-1
 1055 -314 l 1,2,-1
 1055 -408 l 1,3,-1
 -30 -408 l 1,0,-1
EndSplineSet
EndChar

StartChar: grave
Encoding: 96 96 68
Width: 681
VWidth: 2045
Flags: W
HStem: 1193 281
VStem: 134 339
LayerCount: 3
Fore
SplineSet
473 1193 m 1
 366 1193 l 1
 134 1474 l 1
 337 1474 l 1
 473 1193 l 1
EndSplineSet
Validated: 1
Layer: 2
SplineSet
473 1193 m 1,0,-1
 366 1193 l 1,1,-1
 134 1474 l 1,2,-1
 337 1474 l 1,3,-1
 473 1193 l 1,0,-1
EndSplineSet
EndChar

StartChar: a
Encoding: 97 97 69
Width: 1137
VWidth: 2045
Flags: W
HStem: -12 124<288.091 696.969> 961 124<364.423 769.868>
VStem: 75 127<186.507 401.171> 105 127<756.742 836.117> 867 127<278.875 566 650.338 869.262>
LayerCount: 3
Fore
SplineSet
232 739 m 1xd8
 105 759 l 1xd8
 155 986 303 1085 582 1085 c 3
 984 1085 994 890 994 687 c 2
 994 445 l 2
 994 141 998 91 1052 0 c 1
 902 0 l 1
 884 36 872 80 867 131 c 1
 785 52 625 -12 436 -12 c 3
 222 -12 75 95 75 290 c 3xe8
 75 479 221 573 549 609 c 0
 764 633 867 652 867 675 c 2
 867 757 l 2
 867 885 755 961 555 961 c 3
 363 961 270 875 232 739 c 1xd8
482 112 m 3
 708 112 867 214 867 468 c 2
 867 566 l 1
 756 533 650 513 553 504 c 0
 388 489 202 449 202 287 c 3xe8
 202 153 362 112 482 112 c 3
EndSplineSet
Validated: 1
Layer: 2
SplineSet
232 739 m 1,0,-1
 105 759 l 1,1,2
 142 929 142 929 257 1007 c 128,-1,3
 372 1085 372 1085 582 1085 c 0,4,5
 648 1085 648 1085 702 1077.5 c 128,-1,6
 756 1070 756 1070 796 1058.5 c 128,-1,7
 836 1047 836 1047 867.5 1026.5 c 128,-1,8
 899 1006 899 1006 919.5 986.5 c 128,-1,9
 940 967 940 967 954.5 936 c 128,-1,10
 969 905 969 905 976.5 881 c 128,-1,11
 984 857 984 857 988 819 c 128,-1,12
 992 781 992 781 993 754.5 c 128,-1,13
 994 728 994 728 994 687 c 2,14,-1
 994 445 l 2,15,16
 994 212 994 212 1003 139.5 c 128,-1,17
 1012 67 1012 67 1052 0 c 1,18,-1
 902 0 l 1,19,20
 874 55 874 55 867 131 c 1,21,22
 802 69 802 69 687 28.5 c 128,-1,23
 572 -12 572 -12 436 -12 c 0,24,25
 272 -12 272 -12 173.5 67.5 c 128,-1,26
 75 147 75 147 75 290 c 0,27,28
 75 431 75 431 188.5 506.5 c 128,-1,29
 302 582 302 582 549 609 c 0,30,31
 867 644 867 644 867 675 c 2,32,-1
 867 757 l 2,33,34
 867 854 867 854 785.5 907.5 c 128,-1,35
 704 961 704 961 555 961 c 0,36,37
 294 961 294 961 232 739 c 1,0,-1
482 112 m 3,38,39
 661 112 661 112 764 198.5 c 128,-1,40
 867 285 867 285 867 468 c 2,41,-1
 867 566 l 1,42,43
 706 518 706 518 553 504 c 0,44,45
 497 499 497 499 452.5 491.5 c 128,-1,46
 408 484 408 484 359 468 c 128,-1,47
 310 452 310 452 277.5 429.5 c 128,-1,48
 245 407 245 407 223.5 370.5 c 128,-1,49
 202 334 202 334 202 287 c 0,50,51
 202 239 202 239 228.5 203.5 c 128,-1,52
 255 168 255 168 298 149 c 128,-1,53
 341 130 341 130 387 121 c 128,-1,54
 433 112 433 112 482 112 c 3,38,39
EndSplineSet
EndChar

StartChar: b
Encoding: 98 98 70
Width: 1248
VWidth: 2045
Flags: W
HStem: -12 124<463.868 786.759> 961 124<470.729 794.957> 1444 20G<171 298>
VStem: 171 127<-2 142 300.379 766.384 918 1464> 965 127<311.492 761.145>
LayerCount: 3
Fore
SplineSet
628 112 m 259
 831 112 965 288 965 538 c 259
 965 700 899 961 628 961 c 259
 462 961 298 832 298 538 c 259
 298 304 401 112 628 112 c 259
1092 545 m 3
 1092 200 915 -12 620 -12 c 3
 414 -12 305 129 298 142 c 1
 298 -2 l 1
 171 -2 l 1
 171 1464 l 1
 298 1464 l 1
 298 918 l 1
 377 1027 491 1085 642 1085 c 3
 942 1085 1092 831 1092 545 c 3
EndSplineSet
Validated: 1
Layer: 2
SplineSet
628 112 m 259,0,1
 779 112 779 112 872 230.5 c 128,-1,2
 965 349 965 349 965 538 c 0,3,4
 965 591 965 591 956.5 644.5 c 128,-1,5
 948 698 948 698 924 756.5 c 128,-1,6
 900 815 900 815 864 859 c 128,-1,7
 828 903 828 903 767 932 c 128,-1,8
 706 961 706 961 628 961 c 0,9,10
 564 961 564 961 506 935.5 c 128,-1,11
 448 910 448 910 401 860.5 c 128,-1,12
 354 811 354 811 326 727.5 c 128,-1,13
 298 644 298 644 298 538 c 0,14,15
 298 448 298 448 318 372 c 128,-1,16
 338 296 338 296 377.5 237.5 c 128,-1,17
 417 179 417 179 481 145.5 c 128,-1,18
 545 112 545 112 628 112 c 259,0,1
1092 545 m 3,19,20
 1092 286 1092 286 966.5 137 c 128,-1,21
 841 -12 841 -12 620 -12 c 0,22,23
 562 -12 562 -12 508.5 3 c 128,-1,24
 455 18 455 18 419.5 38.5 c 128,-1,25
 384 59 384 59 355.5 82.5 c 128,-1,26
 327 106 327 106 314.5 120.5 c 128,-1,27
 302 135 302 135 298 142 c 1,28,-1
 298 -2 l 1,29,-1
 171 -2 l 1,30,-1
 171 1464 l 1,31,-1
 298 1464 l 1,32,-1
 298 918 l 1,33,34
 419 1085 419 1085 642 1085 c 0,35,36
 730 1085 730 1085 804 1056.5 c 128,-1,37
 878 1028 878 1028 930.5 977.5 c 128,-1,38
 983 927 983 927 1020 858.5 c 128,-1,39
 1057 790 1057 790 1074.5 711 c 128,-1,40
 1092 632 1092 632 1092 545 c 3,19,20
EndSplineSet
EndChar

StartChar: c
Encoding: 99 99 71
Width: 1137
VWidth: 2045
Flags: W
HStem: -12 124<397.841 769.241> 961 124<398.905 762.899>
VStem: 95 127<309.492 767.668> 891 127<238.778 402 695 828.975>
LayerCount: 3
Fore
SplineSet
1018 402 m 1
 1018 190 870 -12 594 -12 c 3
 315 -12 95 184 95 527 c 3
 95 881 282 1085 579 1085 c 3
 929 1085 1017 851 1017 695 c 1
 891 695 l 1
 873 833 797 961 585 961 c 3
 351 961 222 808 222 532 c 3
 222 247 375 112 576 112 c 3
 816 112 878 234 891 402 c 1
 1018 402 l 1
EndSplineSet
Validated: 1
Layer: 2
SplineSet
1018 402 m 1,0,1
 1018 321 1018 321 990 247.5 c 128,-1,2
 962 174 962 174 910 115.5 c 128,-1,3
 858 57 858 57 776 22.5 c 128,-1,4
 694 -12 694 -12 594 -12 c 0,5,6
 378 -12 378 -12 236.5 132.5 c 128,-1,7
 95 277 95 277 95 527 c 0,8,9
 95 790 95 790 224.5 937.5 c 128,-1,10
 354 1085 354 1085 579 1085 c 0,11,12
 679 1085 679 1085 758.5 1059 c 128,-1,13
 838 1033 838 1033 885 993 c 128,-1,14
 932 953 932 953 963 899.5 c 128,-1,15
 994 846 994 846 1005.5 796 c 128,-1,16
 1017 746 1017 746 1017 695 c 1,17,-1
 891 695 l 1,18,19
 884 750 884 750 865 795 c 128,-1,20
 846 840 846 840 811.5 879 c 128,-1,21
 777 918 777 918 719 939.5 c 128,-1,22
 661 961 661 961 585 961 c 0,23,24
 410 961 410 961 316 850 c 128,-1,25
 222 739 222 739 222 532 c 0,26,27
 222 326 222 326 320 219 c 128,-1,28
 418 112 418 112 576 112 c 0,29,30
 663 112 663 112 724 133 c 128,-1,31
 785 154 785 154 819 195 c 128,-1,32
 853 236 853 236 869.5 285 c 128,-1,33
 886 334 886 334 891 402 c 1,34,-1
 1018 402 l 1,0,1
EndSplineSet
EndChar

StartChar: d
Encoding: 100 100 72
Width: 1248
VWidth: 2045
Flags: W
HStem: -12 124<462.266 777.566> 961 124<453.724 779.486> 1445 20G<946 1073>
VStem: 156 127<315.237 762.496> 946 127<0 144 294.961 768.415 920 1465>
LayerCount: 3
Fore
SplineSet
616 112 m 259
 751 112 946 192 946 537 c 259
 946 817 808 961 616 961 c 259
 345 961 283 693 283 537 c 259
 283 296 413 112 616 112 c 259
156 547 m 3
 156 770 254 1085 604 1085 c 3
 756 1085 869 1029 946 920 c 1
 946 1465 l 1
 1073 1465 l 1
 1073 0 l 1
 946 0 l 1
 946 144 l 1
 939 131 840 -12 633 -12 c 3
 321 -12 156 208 156 547 c 3
EndSplineSet
Validated: 1
Layer: 2
SplineSet
616 112 m 259,0,1
 660 112 660 112 702.5 122.5 c 128,-1,2
 745 133 745 133 790.5 162.5 c 128,-1,3
 836 192 836 192 869.5 238 c 128,-1,4
 903 284 903 284 924.5 361 c 128,-1,5
 946 438 946 438 946 537 c 0,6,7
 946 741 946 741 855.5 851 c 128,-1,8
 765 961 765 961 616 961 c 0,9,10
 538 961 538 961 477.5 931.5 c 128,-1,11
 417 902 417 902 381.5 857 c 128,-1,12
 346 812 346 812 322.5 753 c 128,-1,13
 299 694 299 694 291 641.5 c 128,-1,14
 283 589 283 589 283 537 c 0,15,16
 283 353 283 353 374.5 232.5 c 128,-1,17
 466 112 466 112 616 112 c 259,0,1
156 547 m 3,18,19
 156 619 156 619 168.5 689 c 128,-1,20
 181 759 181 759 213.5 832 c 128,-1,21
 246 905 246 905 295 960 c 128,-1,22
 344 1015 344 1015 423.5 1050 c 128,-1,23
 503 1085 503 1085 604 1085 c 0,24,25
 829 1085 829 1085 946 920 c 1,26,-1
 946 1465 l 1,27,-1
 1073 1465 l 1,28,-1
 1073 0 l 1,29,-1
 946 0 l 1,30,-1
 946 144 l 1,31,32
 942 137 942 137 931 122.5 c 128,-1,33
 920 108 920 108 892.5 83.5 c 128,-1,34
 865 59 865 59 831 39 c 128,-1,35
 797 19 797 19 744 3.5 c 128,-1,36
 691 -12 691 -12 633 -12 c 0,37,38
 403 -12 403 -12 279.5 138 c 128,-1,39
 156 288 156 288 156 547 c 3,18,19
EndSplineSet
EndChar

StartChar: e
Encoding: 101 101 73
Width: 1137
VWidth: 2045
Flags: W
HStem: -12 124<381.254 768.652> 494 124<216 915> 961 124<392.912 759.958>
VStem: 75 138<284.562 494 618 777.696>
LayerCount: 3
Fore
SplineSet
570 1085 m 3
 867 1085 1052 893 1052 494 c 1
 213 494 l 1
 213 304 287 112 582 112 c 3
 700 112 843 148 915 329 c 1
 1046 329 l 1
 978 -6 647 -12 579 -12 c 3
 169 -12 75 273 75 512 c 3
 75 898 282 1085 570 1085 c 3
915 618 m 1
 893 904 722 961 573 961 c 3
 398 961 222 850 216 618 c 1
 915 618 l 1
EndSplineSet
Validated: 1
Layer: 2
SplineSet
570 1085 m 3,0,1
 798 1085 798 1085 925 936 c 128,-1,2
 1052 787 1052 787 1052 494 c 1,3,-1
 213 494 l 1,4,5
 213 433 213 433 223 381 c 128,-1,6
 233 329 233 329 258.5 278 c 128,-1,7
 284 227 284 227 324.5 191.5 c 128,-1,8
 365 156 365 156 430.5 134 c 128,-1,9
 496 112 496 112 582 112 c 0,10,11
 829 112 829 112 915 329 c 1,12,-1
 1046 329 l 1,13,14
 1032 260 1032 260 1001.5 204.5 c 128,-1,15
 971 149 971 149 936 114.5 c 128,-1,16
 901 80 901 80 854.5 54.5 c 128,-1,17
 808 29 808 29 770.5 16.5 c 128,-1,18
 733 4 733 4 689 -3 c 128,-1,19
 645 -10 645 -10 623.5 -11 c 128,-1,20
 602 -12 602 -12 579 -12 c 0,21,22
 461 -12 461 -12 370 20 c 128,-1,23
 279 52 279 52 224 103 c 128,-1,24
 169 154 169 154 134.5 225 c 128,-1,25
 100 296 100 296 87.5 365 c 128,-1,26
 75 434 75 434 75 512 c 0,27,28
 75 792 75 792 210 938.5 c 128,-1,29
 345 1085 345 1085 570 1085 c 3,0,1
915 618 m 1,30,31
 889 961 889 961 573 961 c 0,32,33
 506 961 506 961 444 939.5 c 128,-1,34
 382 918 382 918 331.5 877 c 128,-1,35
 281 836 281 836 249.5 769 c 128,-1,36
 218 702 218 702 216 618 c 1,37,-1
 915 618 l 1,30,31
EndSplineSet
EndChar

StartChar: f
Encoding: 102 102 74
Width: 568
VWidth: 2045
Flags: W
HStem: 0 21G<177 304> 936 124<18 177 304 535> 1391 124<375.342 637.565>
VStem: 177 127<0 936 1060 1316.64>
LayerCount: 3
Fore
SplineSet
500 1391 m 3
 451 1391 304 1366 304 1170 c 2
 304 1060 l 1
 535 1060 l 1
 535 936 l 1
 304 936 l 1
 304 0 l 1
 177 0 l 1
 177 936 l 1
 18 936 l 1
 18 1060 l 1
 177 1060 l 1
 177 1175 l 2
 177 1447 353 1515 486 1515 c 3
 537 1515 589 1506 640 1488 c 1
 640 1363 l 1
 587 1382 541 1391 500 1391 c 3
EndSplineSet
Validated: 1
Layer: 2
SplineSet
500 1391 m 3,0,1
 481 1391 481 1391 460 1387 c 128,-1,2
 439 1383 439 1383 410 1369 c 128,-1,3
 381 1355 381 1355 358.5 1332.5 c 128,-1,4
 336 1310 336 1310 320 1268 c 128,-1,5
 304 1226 304 1226 304 1170 c 2,6,-1
 304 1060 l 1,7,-1
 535 1060 l 1,8,-1
 535 936 l 1,9,-1
 304 936 l 1,10,-1
 304 0 l 1,11,-1
 177 0 l 1,12,-1
 177 936 l 1,13,-1
 18 936 l 1,14,-1
 18 1060 l 1,15,-1
 177 1060 l 1,16,-1
 177 1175 l 2,17,18
 177 1253 177 1253 196.5 1314.5 c 128,-1,19
 216 1376 216 1376 247 1412.5 c 128,-1,20
 278 1449 278 1449 320 1473 c 128,-1,21
 362 1497 362 1497 402.5 1506 c 128,-1,22
 443 1515 443 1515 486 1515 c 0,23,24
 564 1515 564 1515 640 1488 c 1,25,-1
 640 1363 l 1,26,27
 562 1391 562 1391 500 1391 c 3,0,1
EndSplineSet
EndChar

StartChar: g
Encoding: 103 103 75
Width: 1248
VWidth: 2045
Flags: W
HStem: -435 124<415.388 800.501> -12 124<455.348 774.162> 961 124<457.001 775.717> 1040 20G<959 1086>
VStem: 149 127<314.248 757.151> 186 127<-210.902 -74> 959 127<-133.837 187 318.47 757.771 932 1060>
LayerCount: 3
Fore
SplineSet
614 112 m 259xea
 739 112 959 198 959 540 c 259
 959 791 813 961 614 961 c 259
 393 961 276 757 276 540 c 259
 276 314 390 112 614 112 c 259xea
604 -311 m 3
 884 -311 959 -141 959 145 c 2
 959 187 l 1
 882 55 753 -12 593 -12 c 3
 314 -12 149 242 149 537 c 3
 149 849 316 1085 616 1085 c 3xea
 779 1085 885 1027 959 932 c 1
 959 1060 l 1
 1086 1060 l 1
 1086 133 l 2
 1086 -185 1026 -435 617 -435 c 3
 246 -435 186 -194 186 -74 c 1
 313 -74 l 17xd6
 329 -240 422 -311 604 -311 c 3
EndSplineSet
Validated: 1
Layer: 2
SplineSet
614 112 m 259,0,1
 655 112 655 112 698 123 c 128,-1,2
 741 134 741 134 789 164.5 c 128,-1,3
 837 195 837 195 874 241 c 128,-1,4
 911 287 911 287 935 364.5 c 128,-1,5
 959 442 959 442 959 540 c 0,6,7
 959 727 959 727 861.5 844 c 128,-1,8
 764 961 764 961 614 961 c 0,9,10
 534 961 534 961 468.5 926 c 128,-1,11
 403 891 403 891 361.5 832 c 128,-1,12
 320 773 320 773 298 698 c 128,-1,13
 276 623 276 623 276 540 c 0,14,15
 276 424 276 424 313 328.5 c 128,-1,16
 350 233 350 233 428 172.5 c 128,-1,17
 506 112 506 112 614 112 c 259,0,1
604 -311 m 3,18,19
 687 -311 687 -311 748.5 -290.5 c 128,-1,20
 810 -270 810 -270 850 -233 c 128,-1,21
 890 -196 890 -196 914.5 -138.5 c 128,-1,22
 939 -81 939 -81 949 -13 c 128,-1,23
 959 55 959 55 959 145 c 2,24,-1
 959 187 l 1,25,26
 902 89 902 89 808 38.5 c 128,-1,27
 714 -12 714 -12 593 -12 c 0,28,29
 458 -12 458 -12 355.5 64 c 128,-1,30
 253 140 253 140 201 264 c 128,-1,31
 149 388 149 388 149 537 c 0,32,33
 149 695 149 695 202.5 817.5 c 128,-1,34
 256 940 256 940 363 1012.5 c 128,-1,35
 470 1085 470 1085 616 1085 c 0,36,37
 840 1085 840 1085 959 932 c 1,38,-1
 959 1060 l 1,39,-1
 1086 1060 l 1,40,-1
 1086 133 l 2,41,42
 1086 59 1086 59 1081.5 1 c 128,-1,43
 1077 -57 1077 -57 1064.5 -118 c 128,-1,44
 1052 -179 1052 -179 1030.5 -224.5 c 128,-1,45
 1009 -270 1009 -270 973.5 -311 c 128,-1,46
 938 -352 938 -352 889 -378.5 c 128,-1,47
 840 -405 840 -405 771.5 -420 c 128,-1,48
 703 -435 703 -435 617 -435 c 0,49,50
 511 -435 511 -435 430 -408.5 c 128,-1,51
 349 -382 349 -382 304.5 -343 c 128,-1,52
 260 -304 260 -304 231.5 -252 c 128,-1,53
 203 -200 203 -200 194.5 -158 c 128,-1,54
 186 -116 186 -116 186 -74 c 1,55,-1
 313 -74 l 1,56,57
 325 -198 325 -198 395.5 -254.5 c 128,-1,58
 466 -311 466 -311 604 -311 c 3,18,19
EndSplineSet
EndChar

StartChar: h
Encoding: 104 104 76
Width: 1137
VWidth: 2045
Flags: W
HStem: 0 21G<134 261 873 1000> 961 124<423.342 767.001> 1445 20G<134 261>
VStem: 134 127<0 785.691 900 1465> 873 127<0 850.979>
LayerCount: 3
Fore
SplineSet
873 666 m 2
 873 901 739 961 595 961 c 3
 306 961 261 679 261 634 c 2
 261 0 l 1
 134 0 l 1
 134 1465 l 1
 261 1465 l 1
 261 900 l 1
 368 1070 546 1085 599 1085 c 3
 920 1085 1000 847 1000 665 c 2
 1000 0 l 1
 873 0 l 1
 873 666 l 2
EndSplineSet
Validated: 1
Layer: 2
SplineSet
873 666 m 2,0,1
 873 961 873 961 595 961 c 0,2,3
 526 961 526 961 470 940.5 c 128,-1,4
 414 920 414 920 379.5 886 c 128,-1,5
 345 852 345 852 320 814.5 c 128,-1,6
 295 777 295 777 283 738.5 c 128,-1,7
 271 700 271 700 266 674.5 c 128,-1,8
 261 649 261 649 261 634 c 2,9,-1
 261 0 l 1,10,-1
 134 0 l 1,11,-1
 134 1465 l 1,12,-1
 261 1465 l 1,13,-1
 261 900 l 1,14,15
 298 959 298 959 349.5 999.5 c 128,-1,16
 401 1040 401 1040 452 1057 c 128,-1,17
 503 1074 503 1074 537 1079.5 c 128,-1,18
 571 1085 571 1085 599 1085 c 0,19,20
 691 1085 691 1085 763.5 1058.5 c 128,-1,21
 836 1032 836 1032 879.5 990 c 128,-1,22
 923 948 923 948 951 891 c 128,-1,23
 979 834 979 834 989.5 779 c 128,-1,24
 1000 724 1000 724 1000 665 c 2,25,-1
 1000 0 l 1,26,-1
 873 0 l 1,27,-1
 873 666 l 2,0,1
EndSplineSet
EndChar

StartChar: i
Encoding: 105 105 77
Width: 454
VWidth: 2045
Flags: W
HStem: 0 21G<159 286> 1040 20G<159 286> 1258 207<159 286>
VStem: 159 127<0 1060 1258 1465>
LayerCount: 3
Fore
SplineSet
159 1258 m 1
 159 1465 l 1
 286 1465 l 1
 286 1258 l 1
 159 1258 l 1
159 0 m 1
 159 1060 l 1
 286 1060 l 1
 286 0 l 1
 159 0 l 1
EndSplineSet
Validated: 1
Layer: 2
SplineSet
159 1258 m 1,0,-1
 159 1465 l 1,1,-1
 286 1465 l 1,2,-1
 286 1258 l 1,3,-1
 159 1258 l 1,0,-1
159 0 m 1,4,-1
 159 1060 l 1,5,-1
 286 1060 l 1,6,-1
 286 0 l 1,7,-1
 159 0 l 1,4,-1
EndSplineSet
EndChar

StartChar: j
Encoding: 106 106 78
Width: 454
VWidth: 2045
Flags: W
HStem: -429 124<-92.5075 125.332> 1040 20G<188 315> 1258 207<188 315>
VStem: 188 127<-236.633 1060 1258 1465>
LayerCount: 3
Fore
SplineSet
188 1258 m 1
 188 1465 l 1
 315 1465 l 1
 315 1258 l 1
 188 1258 l 1
315 -57 m 2
 315 -250 260 -429 40 -429 c 3
 -1 -429 -46 -423 -95 -411 c 1
 -95 -296 l 1
 -37 -305 -17 -305 3 -305 c 3
 59 -305 188 -298 188 -54 c 2
 188 1060 l 1
 315 1060 l 1
 315 -57 l 2
EndSplineSet
Validated: 1
Layer: 2
SplineSet
188 1258 m 1,0,-1
 188 1465 l 1,1,-1
 315 1465 l 1,2,-1
 315 1258 l 1,3,-1
 188 1258 l 1,0,-1
315 -57 m 2,4,5
 315 -429 315 -429 40 -429 c 0,6,7
 -21.5 -429 -21.5 -429 -95 -411 c 1,8,-1
 -95 -296 l 1,9,10
 -37 -305 -37 -305 3 -305 c 0,11,12
 22 -305 22 -305 36.5 -303 c 128,-1,13
 51 -301 51 -301 75 -294.5 c 128,-1,14
 99 -288 99 -288 117 -271 c 128,-1,15
 135 -254 135 -254 152 -228 c 128,-1,16
 169 -202 169 -202 178.5 -157 c 128,-1,17
 188 -112 188 -112 188 -54 c 2,18,-1
 188 1060 l 1,19,-1
 315 1060 l 1,20,-1
 315 -57 l 2,4,5
EndSplineSet
EndChar

StartChar: k
Encoding: 107 107 79
Width: 1022
VWidth: 2045
Flags: W
HStem: 0 21G<136 263 855.028 1015> 1040 20G<800.786 974> 1445 20G<136 263>
VStem: 136 127<0 378 533 1465>
DStem2: 263 533 263 378 0.721671 0.692236<0 176.324 293.045 768.223> 553 654 468 574 0.576977 -0.81676<16.2977 716.486>
LayerCount: 3
Fore
SplineSet
136 0 m 1
 136 1465 l 1
 263 1465 l 1
 263 533 l 1
 822 1060 l 1
 974 1060 l 1
 553 654 l 1
 1015 0 l 1
 869 0 l 1
 468 574 l 1
 263 378 l 1
 263 0 l 1
 136 0 l 1
EndSplineSet
Validated: 1
Layer: 2
SplineSet
136 0 m 1,0,-1
 136 1465 l 1,1,-1
 263 1465 l 1,2,-1
 263 533 l 1,3,-1
 822 1060 l 1,4,-1
 974 1060 l 1,5,-1
 553 654 l 1,6,-1
 1015 0 l 1,7,-1
 869 0 l 1,8,-1
 468 574 l 1,9,-1
 263 378 l 1,10,-1
 263 0 l 1,11,-1
 136 0 l 1,0,-1
EndSplineSet
EndChar

StartChar: l
Encoding: 108 108 80
Width: 454
VWidth: 2045
Flags: W
HStem: 0 21G<162 289> 1445 20G<162 289>
VStem: 162 127<0 1465>
LayerCount: 3
Fore
SplineSet
162 0 m 1
 162 1465 l 1
 289 1465 l 1
 289 0 l 1
 162 0 l 1
EndSplineSet
Validated: 1
Layer: 2
SplineSet
162 0 m 1,0,-1
 162 1465 l 1,1,-1
 289 1465 l 1,2,-1
 289 0 l 1,3,-1
 162 0 l 1,0,-1
EndSplineSet
EndChar

StartChar: m
Encoding: 109 109 81
Width: 1702
VWidth: 2045
Flags: W
HStem: 0 21G<134 261 790 917 1446 1573> 961 124<426.493 718.101 1063.89 1368.03> 1042 20G<134 261>
VStem: 134 127<0 788.607 870 1062> 790 127<0 800.595> 1446 127<0 875.916>
CounterMasks: 1 1c
LayerCount: 3
Fore
SplineSet
1203 961 m 3xdc
 1120 961 917 892 917 610 c 2
 917 0 l 1
 790 0 l 1
 790 683 l 2
 790 909 702 961 575 961 c 3xdc
 449 961 261 875 261 574 c 2
 261 0 l 1
 134 0 l 1
 134 1062 l 1
 261 1062 l 1xbc
 261 870 l 1
 364 1033 466 1085 616 1085 c 3
 789 1085 873 976 905 876 c 1
 1008 1059 1142 1085 1243 1085 c 3
 1436 1085 1573 988 1573 728 c 2
 1573 0 l 1
 1446 0 l 1
 1446 662 l 2
 1446 885 1382 961 1203 961 c 3xdc
EndSplineSet
Validated: 1
Layer: 2
SplineSet
1203 961 m 3,0,1
 1175 961 1175 961 1141 952 c 128,-1,2
 1107 943 1107 943 1066.5 918 c 128,-1,3
 1026 893 1026 893 993.5 855.5 c 128,-1,4
 961 818 961 818 939 754 c 128,-1,5
 917 690 917 690 917 610 c 2,6,-1
 917 0 l 1,7,-1
 790 0 l 1,8,-1
 790 683 l 2,9,10
 790 765 790 765 775 821 c 128,-1,11
 760 877 760 877 729.5 907 c 128,-1,12
 699 937 699 937 662.5 949 c 128,-1,13
 626 961 626 961 575 961 c 0,14,15
 534 961 534 961 493.5 950 c 128,-1,16
 453 939 453 939 410 911 c 128,-1,17
 367 883 367 883 335 840.5 c 128,-1,18
 303 798 303 798 282 729 c 128,-1,19
 261 660 261 660 261 574 c 2,20,-1
 261 0 l 1,21,-1
 134 0 l 1,22,-1
 134 1062 l 1,23,-1
 261 1062 l 1,24,-1
 261 870 l 1,25,26
 336 989 336 989 418 1037 c 128,-1,27
 500 1085 500 1085 616 1085 c 0,28,29
 678 1085 678 1085 729 1067 c 128,-1,30
 780 1049 780 1049 814 1017.5 c 128,-1,31
 848 986 848 986 870 951 c 128,-1,32
 892 916 892 916 905 876 c 1,33,34
 942 941 942 941 986 985 c 128,-1,35
 1030 1029 1030 1029 1076 1049.5 c 128,-1,36
 1122 1070 1122 1070 1160.5 1077.5 c 128,-1,37
 1199 1085 1199 1085 1243 1085 c 0,38,39
 1397 1085 1397 1085 1485 999.5 c 128,-1,40
 1573 914 1573 914 1573 728 c 2,41,-1
 1573 0 l 1,42,-1
 1446 0 l 1,43,-1
 1446 662 l 2,44,45
 1446 829 1446 829 1392 895 c 128,-1,46
 1338 961 1338 961 1203 961 c 3,0,1
EndSplineSet
EndChar

StartChar: n
Encoding: 110 110 82
Width: 1137
VWidth: 2045
Flags: W
HStem: 0 21G<134 261 873 1000> 961 124<428.93 763.402> 1043 20G<134 261>
VStem: 134 127<0 763.787 885 1063> 873 127<0 843.415>
LayerCount: 3
Fore
SplineSet
873 636 m 2xd8
 873 807 817 961 595 961 c 3xd8
 329 961 261 711 261 532 c 2
 261 0 l 1
 134 0 l 1
 134 1063 l 1
 261 1063 l 1xb8
 261 885 l 1
 353 1062 485 1085 599 1085 c 3
 941 1085 1000 828 1000 665 c 2
 1000 0 l 1
 873 0 l 1
 873 636 l 2xd8
EndSplineSet
Validated: 1
Layer: 2
SplineSet
873 636 m 2,0,1
 873 961 873 961 595 961 c 0,2,3
 519 961 519 961 458.5 933 c 128,-1,4
 398 905 398 905 362 862 c 128,-1,5
 326 819 326 819 302.5 760 c 128,-1,6
 279 701 279 701 270 645.5 c 128,-1,7
 261 590 261 590 261 532 c 2,8,-1
 261 0 l 1,9,-1
 134 0 l 1,10,-1
 134 1063 l 1,11,-1
 261 1063 l 1,12,-1
 261 885 l 1,13,14
 294 948 294 948 335.5 990.5 c 128,-1,15
 377 1033 377 1033 423.5 1052 c 128,-1,16
 470 1071 470 1071 510 1078 c 128,-1,17
 550 1085 550 1085 599 1085 c 0,18,19
 670 1085 670 1085 729 1070 c 128,-1,20
 788 1055 788 1055 828.5 1030.5 c 128,-1,21
 869 1006 869 1006 900.5 971 c 128,-1,22
 932 936 932 936 950 899 c 128,-1,23
 968 862 968 862 980 819 c 128,-1,24
 992 776 992 776 996 739.5 c 128,-1,25
 1000 703 1000 703 1000 665 c 2,26,-1
 1000 0 l 1,27,-1
 873 0 l 1,28,-1
 873 636 l 2,0,1
EndSplineSet
EndChar

StartChar: o
Encoding: 111 111 83
Width: 1137
VWidth: 2045
Flags: W
HStem: -12 124<380.395 747.605> 961 124<380.395 747.605>
VStem: 67 127<322.27 752.241> 934 127<320.515 750.519>
LayerCount: 3
Fore
SplineSet
194 535 m 259
 194 291 325 112 564 112 c 259
 803 112 934 291 934 535 c 259
 934 779 803 961 564 961 c 259
 325 961 194 779 194 535 c 259
564 1085 m 3
 870 1085 1061 879 1061 528 c 3
 1061 177 870 -12 564 -12 c 3
 258 -12 67 181 67 532 c 3
 67 883 258 1085 564 1085 c 3
EndSplineSet
Validated: 1
Layer: 2
SplineSet
194 535 m 259,0,1
 194 347 194 347 291.5 229.5 c 128,-1,2
 389 112 389 112 564 112 c 128,-1,3
 739 112 739 112 836.5 229.5 c 128,-1,4
 934 347 934 347 934 535 c 0,5,6
 934 724 934 724 836.5 842.5 c 128,-1,7
 739 961 739 961 564 961 c 128,-1,8
 389 961 389 961 291.5 842.5 c 128,-1,9
 194 724 194 724 194 535 c 259,0,1
564 1085 m 131,-1,11
 795 1085 795 1085 928 937.5 c 128,-1,12
 1061 790 1061 790 1061 528 c 0,13,14
 1061 268 1061 268 929 128 c 128,-1,15
 797 -12 797 -12 564 -12 c 0,16,17
 332 -12 332 -12 199.5 130 c 128,-1,18
 67 272 67 272 67 532 c 0,19,20
 67 793 67 793 200 939 c 128,-1,10
 333 1085 333 1085 564 1085 c 131,-1,11
EndSplineSet
EndChar

StartChar: p
Encoding: 112 112 84
Width: 1248
VWidth: 2045
Flags: W
HStem: -12 124<459.334 783.537> 961 124<455.612 772.798>
VStem: 162 127<-390 156 310.08 778.734 932 1075> 953 127<311.314 759.566>
LayerCount: 3
Fore
SplineSet
619 961 m 259
 484 961 289 881 289 538 c 259
 289 267 430 112 619 112 c 259
 889 112 953 375 953 538 c 259
 953 839 775 961 619 961 c 259
1080 529 m 3
 1080 227 926 -12 631 -12 c 3
 480 -12 367 46 289 156 c 1
 289 -390 l 1
 162 -390 l 1
 162 1075 l 1
 289 1075 l 1
 289 932 l 1
 300 943 386 1085 601 1085 c 3
 913 1085 1080 868 1080 529 c 3
EndSplineSet
Validated: 1
Layer: 2
SplineSet
619 961 m 259,0,1
 575 961 575 961 532.5 950.5 c 128,-1,2
 490 940 490 940 444.5 910.5 c 128,-1,3
 399 881 399 881 365.5 835.5 c 128,-1,4
 332 790 332 790 310.5 713 c 128,-1,5
 289 636 289 636 289 538 c 0,6,7
 289 339 289 339 381 225.5 c 128,-1,8
 473 112 473 112 619 112 c 0,9,10
 696 112 696 112 757 141 c 128,-1,11
 818 170 818 170 853.5 214.5 c 128,-1,12
 889 259 889 259 912.5 318 c 128,-1,13
 936 377 936 377 944.5 430.5 c 128,-1,14
 953 484 953 484 953 538 c 0,15,16
 953 646 953 646 923 730.5 c 128,-1,17
 893 815 893 815 844 863.5 c 128,-1,18
 795 912 795 912 737.5 936.5 c 128,-1,19
 680 961 680 961 619 961 c 259,0,1
1080 529 m 3,20,21
 1080 415 1080 415 1051 317 c 128,-1,22
 1022 219 1022 219 966.5 145.5 c 128,-1,23
 911 72 911 72 825 30 c 128,-1,24
 739 -12 739 -12 631 -12 c 0,25,26
 408 -12 408 -12 289 156 c 1,27,-1
 289 -390 l 1,28,-1
 162 -390 l 1,29,-1
 162 1075 l 1,30,-1
 289 1075 l 1,31,-1
 289 932 l 2,32,33
 290 933 290 933 298.5 944 c 128,-1,34
 307 955 307 955 318.5 967.5 c 128,-1,35
 330 980 330 980 348.5 997 c 128,-1,36
 367 1014 367 1014 392 1028.5 c 128,-1,37
 417 1043 417 1043 447 1056.5 c 128,-1,38
 477 1070 477 1070 517 1077.5 c 128,-1,39
 557 1085 557 1085 601 1085 c 0,40,41
 831 1085 831 1085 955.5 936.5 c 128,-1,42
 1080 788 1080 788 1080 529 c 3,20,21
EndSplineSet
EndChar

StartChar: q
Encoding: 113 113 85
Width: 1248
VWidth: 2045
Flags: W
HStem: -12 124<460.833 784.974> 961 124<468.071 788.853>
VStem: 163 127<309.297 759.402> 956 127<-390 156 309.636 777.854 932 1075>
LayerCount: 3
Fore
SplineSet
625 961 m 259
 487 961 290 860 290 538 c 259
 290 380 354 112 625 112 c 259
 814 112 956 266 956 538 c 259
 956 879 761 961 625 961 c 259
163 529 m 3
 163 868 331 1085 643 1085 c 3
 858 1085 945 943 956 932 c 1
 956 1075 l 1
 1083 1075 l 1
 1083 -390 l 1
 956 -390 l 1
 956 156 l 1
 878 46 764 -12 613 -12 c 3
 253 -12 163 320 163 529 c 3
EndSplineSet
Validated: 1
Layer: 2
SplineSet
625 961 m 259,0,1
 581 961 581 961 537 948.5 c 128,-1,2
 493 936 493 936 447.5 904.5 c 128,-1,3
 402 873 402 873 368 826.5 c 128,-1,4
 334 780 334 780 312 705.5 c 128,-1,5
 290 631 290 631 290 538 c 0,6,7
 290 486 290 486 298.5 433 c 128,-1,8
 307 380 307 380 330.5 320.5 c 128,-1,9
 354 261 354 261 390 216 c 128,-1,10
 426 171 426 171 486.5 141.5 c 128,-1,11
 547 112 547 112 625 112 c 0,12,13
 771 112 771 112 863.5 225.5 c 128,-1,14
 956 339 956 339 956 538 c 0,15,16
 956 636 956 636 934.5 712.5 c 128,-1,17
 913 789 913 789 879 834.5 c 128,-1,18
 845 880 845 880 799.5 909.5 c 128,-1,19
 754 939 754 939 711.5 950 c 128,-1,20
 669 961 669 961 625 961 c 259,0,1
163 529 m 3,21,22
 163 787 163 787 287.5 936 c 128,-1,23
 412 1085 412 1085 643 1085 c 0,24,25
 687 1085 687 1085 727 1077.5 c 128,-1,26
 767 1070 767 1070 797.5 1056.5 c 128,-1,27
 828 1043 828 1043 853 1028.5 c 128,-1,28
 878 1014 878 1014 896.5 997 c 128,-1,29
 915 980 915 980 926.5 967.5 c 128,-1,30
 938 955 938 955 946.5 944 c 128,-1,31
 955 933 955 933 956 932 c 2,32,-1
 956 1075 l 1,33,-1
 1083 1075 l 1,34,-1
 1083 -390 l 1,35,-1
 956 -390 l 1,36,-1
 956 156 l 1,37,38
 837 -12 837 -12 613 -12 c 0,39,40
 526 -12 526 -12 455 13 c 128,-1,41
 384 38 384 38 336 82 c 128,-1,42
 288 126 288 126 253 179.5 c 128,-1,43
 218 233 218 233 199 296 c 128,-1,44
 180 359 180 359 171.5 416 c 128,-1,45
 163 473 163 473 163 529 c 3,21,22
EndSplineSet
EndChar

StartChar: r
Encoding: 114 114 86
Width: 681
VWidth: 2045
Flags: W
HStem: 0 21G<133 260> 952 124<378.104 675.314>
VStem: 133 127<0 812.395 918 1062>
LayerCount: 3
Fore
SplineSet
260 918 m 1
 359 1054 459 1076 539 1076 c 3
 602 1076 658 1060 709 1027 c 1
 659 906 l 1
 597 937 550 952 518 952 c 3
 346 952 260 820 260 556 c 2
 260 0 l 1
 133 0 l 1
 133 1062 l 1
 260 1062 l 1
 260 918 l 1
EndSplineSet
Validated: 1
Layer: 2
SplineSet
260 918 m 1,0,1
 375 1076 375 1076 539 1076 c 0,2,3
 633 1076 633 1076 709 1027 c 1,4,-1
 659 906 l 1,5,6
 567 952 567 952 518 952 c 0,7,8
 260 952 260 952 260 556 c 2,9,-1
 260 0 l 1,10,-1
 133 0 l 1,11,-1
 133 1062 l 1,12,-1
 260 1062 l 1,13,-1
 260 918 l 1,0,1
EndSplineSet
EndChar

StartChar: s
Encoding: 115 115 87
Width: 1022
VWidth: 2045
Flags: W
HStem: -12 124<310.941 706.156> 492 124<309.905 719.399> 961 124<297.768 683.825>
VStem: 64 127<224.298 358> 93 127<690.954 889.282> 777 127<764 875.672> 817 127<201.308 409.063>
LayerCount: 3
Fore
SplineSet
505 961 m 259xec
 267 961 220 857 220 795 c 259xec
 220 721 271 625 517 616 c 256
 730 608 944 548 944 325 c 259
 944 102 724 -12 534 -12 c 3
 342 -12 64 62 64 358 c 257
 191 358 l 257
 196 205 319 112 496 112 c 3
 648 112 817 169 817 305 c 259xf2
 817 417 697 487 521 492 c 256
 289 498 93 555 93 774 c 3
 93 980 285 1085 470 1085 c 3
 859 1085 904 848 904 764 c 257
 777 764 l 257
 777 834 727 961 505 961 c 259xec
EndSplineSet
Validated: 1
Layer: 2
SplineSet
505 961 m 259,0,1
 437 961 437 961 384.5 949.5 c 128,-1,2
 332 938 332 938 301.5 920.5 c 128,-1,3
 271 903 271 903 252 880 c 128,-1,4
 233 857 233 857 226.5 836.5 c 128,-1,5
 220 816 220 816 220 795 c 0,6,7
 220 764 220 764 232.5 736.5 c 128,-1,8
 245 709 245 709 275.5 681.5 c 128,-1,9
 306 654 306 654 367.5 636.5 c 128,-1,10
 429 619 429 619 517 616 c 0,11,12
 944 600 944 600 944 325 c 0,13,14
 944 219 944 219 880 140 c 128,-1,15
 816 61 816 61 724.5 24.5 c 128,-1,16
 633 -12 633 -12 534 -12 c 0,17,18
 471 -12 471 -12 410.5 -2.5 c 128,-1,19
 350 7 350 7 286 33 c 128,-1,20
 222 59 222 59 174 99.5 c 128,-1,21
 126 140 126 140 95 206.5 c 128,-1,22
 64 273 64 273 64 358 c 1,23,-1
 191 358 l 257,24,25
 195 244 195 244 278.5 178 c 128,-1,26
 362 112 362 112 496 112 c 0,27,28
 555 112 555 112 610.5 123.5 c 128,-1,29
 666 135 666 135 713 157.5 c 128,-1,30
 760 180 760 180 788.5 218 c 128,-1,31
 817 256 817 256 817 305 c 0,32,33
 817 388 817 388 736 438 c 128,-1,34
 655 488 655 488 521 492 c 0,35,36
 447 494 447 494 387 502.5 c 128,-1,37
 327 511 327 511 270.5 531 c 128,-1,38
 214 551 214 551 176 581.5 c 128,-1,39
 138 612 138 612 115.5 661 c 128,-1,40
 93 710 93 710 93 774 c 0,41,42
 93 834 93 834 114.5 885.5 c 128,-1,43
 136 937 136 937 172.5 973 c 128,-1,44
 209 1009 209 1009 257.5 1034.5 c 128,-1,45
 306 1060 306 1060 360 1072.5 c 128,-1,46
 414 1085 414 1085 470 1085 c 0,47,48
 550 1085 550 1085 616 1071.5 c 128,-1,49
 682 1058 682 1058 726 1036.5 c 128,-1,50
 770 1015 770 1015 803.5 985 c 128,-1,51
 837 955 837 955 855.5 926 c 128,-1,52
 874 897 874 897 885.5 864.5 c 128,-1,53
 897 832 897 832 900.5 808.5 c 128,-1,54
 904 785 904 785 904 764 c 1,55,-1
 777 764 l 257,56,57
 777 794 777 794 765 825 c 128,-1,58
 753 856 753 856 725 888 c 128,-1,59
 697 920 697 920 640 940.5 c 128,-1,60
 583 961 583 961 505 961 c 259,0,1
EndSplineSet
EndChar

StartChar: t
Encoding: 116 116 88
Width: 568
VWidth: 2045
Flags: W
HStem: -12 124<319.519 539.822> 936 124<18 167 294 497>
VStem: 167 127<137.572 936 1060 1432>
LayerCount: 3
Fore
SplineSet
412 -12 m 3
 230 -12 167 56 167 311 c 2
 167 936 l 1
 18 936 l 1
 18 1060 l 1
 167 1060 l 1
 167 1432 l 1
 294 1432 l 1
 294 1060 l 1
 497 1060 l 1
 497 936 l 1
 294 936 l 1
 294 313 l 2
 294 134 326 112 448 112 c 3
 475 112 504 118 537 124 c 1
 553 3 l 1
 506 -7 459 -12 412 -12 c 3
EndSplineSet
Validated: 1
Layer: 2
SplineSet
412 -12 m 3,0,1
 318 -12 318 -12 266.5 16 c 128,-1,2
 215 44 215 44 191 113.5 c 128,-1,3
 167 183 167 183 167 311 c 2,4,-1
 167 936 l 1,5,-1
 18 936 l 1,6,-1
 18 1060 l 1,7,-1
 167 1060 l 1,8,-1
 167 1432 l 1,9,-1
 294 1432 l 1,10,-1
 294 1060 l 1,11,-1
 497 1060 l 1,12,-1
 497 936 l 1,13,-1
 294 936 l 1,14,-1
 294 313 l 2,15,16
 294 244 294 244 300.5 205.5 c 128,-1,17
 307 167 307 167 326 145.5 c 128,-1,18
 345 124 345 124 371.5 118 c 128,-1,19
 398 112 398 112 448 112 c 0,20,21
 471 112 471 112 537 124 c 1,22,-1
 553 3 l 1,23,24
 482.5 -12 482.5 -12 412 -12 c 3,0,1
EndSplineSet
EndChar

StartChar: u
Encoding: 117 117 89
Width: 1137
VWidth: 2045
Flags: W
HStem: -12 124<364.741 702.028> 1040 20G<104 231 842 969>
VStem: 104 127<240.86 1060> 842 127<0 121 246.912 1060>
LayerCount: 3
Fore
SplineSet
842 121 m 1
 735 5 691 -12 537 -12 c 3
 191 -12 104 218 104 399 c 2
 104 1060 l 1
 231 1060 l 1
 231 405 l 2
 231 173 414 112 534 112 c 3
 735 112 842 259 842 400 c 2
 842 1060 l 1
 969 1060 l 1
 969 0 l 1
 842 0 l 1
 842 121 l 1
EndSplineSet
Validated: 1
Layer: 2
SplineSet
842 121 m 1,0,1
 762 35 762 35 708 11.5 c 128,-1,2
 654 -12 654 -12 537 -12 c 0,3,4
 437 -12 437 -12 359.5 14 c 128,-1,5
 282 40 282 40 235 80.5 c 128,-1,6
 188 121 188 121 157.5 176.5 c 128,-1,7
 127 232 127 232 115.5 286 c 128,-1,8
 104 340 104 340 104 399 c 2,9,-1
 104 1060 l 1,10,-1
 231 1060 l 1,11,-1
 231 405 l 2,12,13
 231 338 231 338 251.5 285.5 c 128,-1,14
 272 233 272 233 303 201.5 c 128,-1,15
 334 170 334 170 375.5 149 c 128,-1,16
 417 128 417 128 456 120 c 128,-1,17
 495 112 495 112 534 112 c 0,18,19
 676 112 676 112 759 199 c 128,-1,20
 842 286 842 286 842 400 c 2,21,-1
 842 1060 l 1,22,-1
 969 1060 l 1,23,-1
 969 0 l 1,24,-1
 842 0 l 1,25,-1
 842 121 l 1,0,1
EndSplineSet
EndChar

StartChar: v
Encoding: 118 118 90
Width: 1022
VWidth: 2045
Flags: W
HStem: 0 21G<442.981 583.981> 1040 20G<26 169.938 855.308 999>
DStem2: 162 1060 26 1060 0.372145 -0.928174<0 965.056> 518 163 576 0 0.370635 0.928779<0 960.983>
LayerCount: 3
Fore
SplineSet
451 0 m 1
 26 1060 l 1
 162 1060 l 1
 518 163 l 1
 863 1060 l 1
 999 1060 l 1
 576 0 l 1
 451 0 l 1
EndSplineSet
Validated: 1
Layer: 2
SplineSet
451 0 m 1,0,-1
 26 1060 l 1,1,-1
 162 1060 l 1,2,-1
 518 163 l 1,3,-1
 863 1060 l 1,4,-1
 999 1060 l 1,5,-1
 576 0 l 1,6,-1
 451 0 l 1,0,-1
EndSplineSet
EndChar

StartChar: w
Encoding: 119 119 91
Width: 1477
VWidth: 2045
Flags: W
HStem: 0 21G<324.868 478.609 968.092 1121.53> 1040 20G<6 144.842 640.537 783.975 1281.63 1409>
DStem2: 139 1060 6 1060 0.293135 -0.956071<0 934.397> 401 163 473 0 0.263481 0.964664<0 765.278> 778 1060 717 870 0.28627 -0.958149<164.586 936.18> 1046 163 1116 0 0.266424 0.963856<0 928.787>
LayerCount: 3
Fore
SplineSet
717 870 m 17
 473 0 l 1
 331 0 l 1
 6 1060 l 1
 139 1060 l 1
 401 163 l 1
 646 1060 l 1
 778 1060 l 1
 1046 163 l 1
 1287 1060 l 1
 1409 1060 l 1
 1116 0 l 1
 974 0 l 9
 717 870 l 17
EndSplineSet
Validated: 1
Layer: 2
SplineSet
717 870 m 17,0,-1
 473 0 l 1,1,-1
 331 0 l 1,2,-1
 6 1060 l 1,3,-1
 139 1060 l 1,4,-1
 401 163 l 1,5,-1
 646 1060 l 1,6,-1
 778 1060 l 1,7,-1
 1046 163 l 1,8,-1
 1287 1060 l 1,9,-1
 1409 1060 l 1,10,-1
 1116 0 l 1,11,-1
 974 0 l 1,12,-1
 717 870 l 17,0,-1
EndSplineSet
EndChar

StartChar: x
Encoding: 120 120 92
Width: 1022
VWidth: 2045
Flags: W
HStem: 0 21G<15 179.624 841.86 1007> 1040 20G<44 215.501 817.698 980>
DStem2: 201 1060 44 1060 0.608589 -0.793486<0 507.482 657.135 1240.33>
LayerCount: 3
Fore
SplineSet
15 0 m 1
 433 553 l 1
 44 1060 l 1
 201 1060 l 1
 499 649 l 1
 834 1060 l 1
 980 1060 l 1
 567 562 l 1
 1007 0 l 1
 857 0 l 1
 505 465 l 1
 165 0 l 1
 15 0 l 1
EndSplineSet
Validated: 1
Layer: 2
SplineSet
15 0 m 1,0,-1
 433 553 l 1,1,-1
 44 1060 l 1,2,-1
 201 1060 l 1,3,-1
 499 649 l 1,4,-1
 834 1060 l 1,5,-1
 980 1060 l 1,6,-1
 567 562 l 1,7,-1
 1007 0 l 1,8,-1
 857 0 l 1,9,-1
 505 465 l 1,10,-1
 165 0 l 1,11,-1
 15 0 l 1,0,-1
EndSplineSet
EndChar

StartChar: y
Encoding: 121 121 93
Width: 1022
VWidth: 2045
Flags: W
HStem: -435 124<126.386 353.984> 1040 20G<34 181.42 870.829 1005>
DStem2: 174 1060 34 1060 0.352657 -0.935753<0 1028.04> 532 95 592 -95 0.336698 0.941613<0 1025.15>
LayerCount: 3
Fore
SplineSet
127 -420 m 1
 113 -296 l 1
 148 -305 181 -311 213 -311 c 3
 352 -311 444 -222 444 -60 c 3
 444 -38 433 1 412 57 c 2
 34 1060 l 1
 174 1060 l 1
 532 95 l 1
 878 1060 l 1
 1005 1060 l 1
 592 -95 l 2
 538 -245 444 -435 208 -435 c 3
 182 -435 156 -430 127 -420 c 1
EndSplineSet
Validated: 1
Layer: 2
SplineSet
127 -420 m 1,0,-1
 113 -296 l 1,1,2
 171 -311 171 -311 213 -311 c 0,3,4
 319 -311 319 -311 381.5 -245.5 c 128,-1,5
 444 -180 444 -180 444 -60 c 0,6,7
 444 -28 444 -28 412 57 c 2,8,-1
 34 1060 l 1,9,-1
 174 1060 l 1,10,-1
 532 95 l 1,11,-1
 878 1060 l 1,12,-1
 1005 1060 l 1,13,-1
 592 -95 l 2,14,15
 573 -147 573 -147 554 -188.5 c 128,-1,16
 535 -230 535 -230 501.5 -278.5 c 128,-1,17
 468 -327 468 -327 429.5 -359 c 128,-1,18
 391 -391 391 -391 333.5 -413 c 128,-1,19
 276 -435 276 -435 208 -435 c 0,20,21
 170 -435 170 -435 127 -420 c 1,0,-1
EndSplineSet
EndChar

StartChar: z
Encoding: 122 122 94
Width: 1022
VWidth: 2045
Flags: W
HStem: 0 124<186 979> 936 124<61 791>
DStem2: 40 124 186 124 0.683822 0.729649<99.8379 1106.03>
LayerCount: 3
Fore
SplineSet
40 0 m 1
 40 124 l 1
 791 936 l 1
 61 936 l 1
 61 1060 l 1
 947 1060 l 1
 947 936 l 1
 186 124 l 1
 979 124 l 1
 979 0 l 1
 40 0 l 1
EndSplineSet
Validated: 1
Layer: 2
SplineSet
40 0 m 1,0,-1
 40 124 l 1,1,-1
 791 936 l 1,2,-1
 61 936 l 1,3,-1
 61 1060 l 1,4,-1
 947 1060 l 1,5,-1
 947 936 l 1,6,-1
 186 124 l 1,7,-1
 979 124 l 1,8,-1
 979 0 l 1,9,-1
 40 0 l 1,0,-1
EndSplineSet
EndChar

StartChar: braceleft
Encoding: 123 123 95
Width: 681
VWidth: 2045
Flags: W
HStem: -430 124<429.399 634> 449 163<58 182.375> 1366 124<430.837 634>
VStem: 264 127<-263.348 363.602 695.27 1326.43>
LayerCount: 3
Fore
SplineSet
391 80 m 3
 391 -227 392 -306 552 -306 c 2
 634 -306 l 1
 634 -430 l 1
 579 -430 l 2
 279 -430 266 -275 264 48 c 0
 262 295 253 444 58 449 c 1
 58 612 l 1
 256 615 262 784 264 997 c 0
 266 1286 260 1490 560 1490 c 2
 634 1490 l 1
 634 1366 l 1
 552 1366 l 2
 396 1366 391 1268 391 1080 c 3
 391 768 390 629 184 530 c 1
 355 458 391 321 391 80 c 3
EndSplineSet
Validated: 1
Layer: 2
SplineSet
391 80 m 3,0,1
 391 -15 391 -15 391.5 -57 c 128,-1,2
 392 -99 392 -99 397 -154.5 c 128,-1,3
 402 -210 402 -210 411.5 -230 c 128,-1,4
 421 -250 421 -250 439.5 -272.5 c 128,-1,5
 458 -295 458 -295 484.5 -300.5 c 128,-1,6
 511 -306 511 -306 552 -306 c 2,7,-1
 634 -306 l 1,8,-1
 634 -430 l 1,9,-1
 579 -430 l 2,10,11
 490 -430 490 -430 431 -409 c 128,-1,12
 372 -388 372 -388 339 -357 c 128,-1,13
 306 -326 306 -326 289.5 -257.5 c 128,-1,14
 273 -189 273 -189 269 -128 c 128,-1,15
 265 -67 265 -67 264 48 c 0,16,17
 263 111 263 111 262 148.5 c 128,-1,18
 261 186 261 186 256.5 233.5 c 128,-1,19
 252 281 252 281 243.5 308.5 c 128,-1,20
 235 336 235 336 220 366 c 128,-1,21
 205 396 205 396 183.5 411.5 c 128,-1,22
 162 427 162 427 130.5 437.5 c 128,-1,23
 99 448 99 448 58 449 c 1,24,-1
 58 612 l 1,25,26
 90 612 90 612 117 619 c 128,-1,27
 144 626 144 626 164 636.5 c 128,-1,28
 184 647 184 647 199 666.5 c 128,-1,29
 214 686 214 686 224.5 703.5 c 128,-1,30
 235 721 235 721 242.5 750.5 c 128,-1,31
 250 780 250 780 254 803 c 128,-1,32
 258 826 258 826 260 863.5 c 128,-1,33
 262 901 262 901 263 927.5 c 128,-1,34
 264 954 264 954 264 997 c 0,35,36
 265.393025148 1198.29213395 265.393025148 1198.29213395 277.369781068 1268.60379211 c 0,37,38
 301.137173571 1408.13446204 301.137173571 1408.13446204 393.111263053 1456.69868876 c 0,39,40
 456.179451042 1490 456.179451042 1490 560 1490 c 2,41,-1
 634 1490 l 1,42,-1
 634 1366 l 1,43,-1
 552 1366 l 2,44,45
 519 1366 519 1366 494 1359.5 c 128,-1,46
 469 1353 469 1353 452 1343 c 128,-1,47
 435 1333 435 1333 423.5 1312 c 128,-1,48
 412 1291 412 1291 405.5 1272 c 128,-1,49
 399 1253 399 1253 395.5 1218 c 128,-1,50
 392 1183 392 1183 391.5 1155.5 c 128,-1,51
 391 1128 391 1128 391 1080 c 0,52,53
 391 982 391 982 390 936 c 128,-1,54
 389 890 389 890 383 823 c 128,-1,55
 377 756 377 756 364.5 723 c 128,-1,56
 352 690 352 690 329 649 c 128,-1,57
 306 608 306 608 270.5 581.5 c 128,-1,58
 235 555 235 555 184 530 c 1,59,60
 306 479 306 479 348.5 376 c 128,-1,61
 391 273 391 273 391 80 c 3,0,1
EndSplineSet
EndChar

StartChar: bar
Encoding: 124 124 96
Width: 454
VWidth: 2045
Flags: W
HStem: -430 21G<161 288>
VStem: 161 127<-430 1489>
LayerCount: 3
Fore
SplineSet
161 -430 m 1
 161 1489 l 1
 288 1489 l 1
 288 -430 l 1
 161 -430 l 1
EndSplineSet
Validated: 1
Layer: 2
SplineSet
161 -430 m 1,0,-1
 161 1489 l 1,1,-1
 288 1489 l 1,2,-1
 288 -430 l 1,3,-1
 161 -430 l 1,0,-1
EndSplineSet
EndChar

StartChar: braceright
Encoding: 125 125 97
Width: 681
VWidth: 2045
Flags: W
HStem: -430 124<58 262.601> 449 163<509.625 634> 1366 124<58 261.163>
VStem: 301 127<-263.348 363.602 695.27 1326.43>
LayerCount: 3
Fore
SplineSet
301 80 m 3
 301 321 337 458 508 530 c 1
 302 629 301 768 301 1080 c 3
 301 1268 296 1366 140 1366 c 2
 58 1366 l 1
 58 1490 l 1
 132 1490 l 2
 432 1490 426 1286 428 997 c 0
 430 784 436 615 634 612 c 1
 634 449 l 1
 439 444 430 295 428 48 c 0
 426 -275 413 -430 113 -430 c 2
 58 -430 l 1
 58 -306 l 1
 140 -306 l 2
 300 -306 301 -227 301 80 c 3
EndSplineSet
Validated: 1
Layer: 2
SplineSet
301 80 m 3,0,1
 301 273 301 273 343.5 376 c 128,-1,2
 386 479 386 479 508 530 c 1,3,4
 457 555 457 555 421.5 581.5 c 128,-1,5
 386 608 386 608 363 649 c 128,-1,6
 340 690 340 690 327.5 723 c 128,-1,7
 315 756 315 756 309 823 c 128,-1,8
 303 890 303 890 302 936 c 128,-1,9
 301 982 301 982 301 1080 c 0,10,11
 301 1128 301 1128 300.5 1155.5 c 128,-1,12
 300 1183 300 1183 296.5 1218 c 128,-1,13
 293 1253 293 1253 286.5 1272 c 128,-1,14
 280 1291 280 1291 268.5 1312 c 128,-1,15
 257 1333 257 1333 240 1343 c 128,-1,16
 223 1353 223 1353 198 1359.5 c 128,-1,17
 173 1366 173 1366 140 1366 c 2,18,-1
 58 1366 l 1,19,-1
 58 1490 l 1,20,-1
 132 1490 l 2,21,22
 180 1490 180 1490 219 1482.5 c 128,-1,23
 258 1475 258 1475 287 1462.5 c 128,-1,24
 316 1450 316 1450 338.5 1429 c 128,-1,25
 361 1408 361 1408 375.5 1385 c 128,-1,26
 390 1362 390 1362 400 1328.5 c 128,-1,27
 410 1295 410 1295 415.5 1263.5 c 128,-1,28
 421 1232 421 1232 423.5 1189 c 128,-1,29
 426 1146 426 1146 427 1107.5 c 128,-1,30
 428 1069 428 1069 427.8670281 1017.41457434 c 0,31,32
 428 1004 428 1004 428 997 c 0,33,34
 428 954 428 954 429 927.5 c 128,-1,35
 430 901 430 901 432 863.5 c 128,-1,36
 434 826 434 826 438 803 c 128,-1,37
 442 780 442 780 449.5 750.5 c 128,-1,38
 457 721 457 721 467.5 703.5 c 128,-1,39
 478 686 478 686 493 666.5 c 128,-1,40
 508 647 508 647 528 636.5 c 128,-1,41
 548 626 548 626 575 619 c 128,-1,42
 602 612 602 612 634 612 c 1,43,-1
 634 449 l 1,44,45
 593 448 593 448 561.5 437.5 c 128,-1,46
 530 427 530 427 508.5 411.5 c 128,-1,47
 487 396 487 396 472 366 c 128,-1,48
 457 336 457 336 448.5 308.5 c 128,-1,49
 440 281 440 281 435.5 233.5 c 128,-1,50
 431 186 431 186 430 148.5 c 128,-1,51
 429 111 429 111 428 48 c 0,52,53
 427 -67 427 -67 423 -128 c 128,-1,54
 419 -189 419 -189 402.5 -257.5 c 128,-1,55
 386 -326 386 -326 353 -357 c 128,-1,56
 320 -388 320 -388 261 -409 c 128,-1,57
 202 -430 202 -430 113 -430 c 2,58,-1
 58 -430 l 1,59,-1
 58 -306 l 1,60,-1
 140 -306 l 2,61,62
 253 -306 253 -306 277 -237.5 c 128,-1,63
 301 -169 301 -169 301 80 c 3,0,1
EndSplineSet
EndChar

StartChar: asciitilde
Encoding: 126 126 98
Width: 1350
VWidth: 2045
Flags: W
HStem: 565 124<768.347 1076.9> 698 124<281.578 611.713>
LayerCount: 3
Fore
SplineSet
431 698 m 3
 327 698 266 653 171 562 c 1
 171 704 l 1
 242 783 334 822 448 822 c 3
 641 822 800 689 936 689 c 3
 1038 689 1142 771 1192 825 c 1
 1192 680 l 1
 1105 599 1025 565 916 565 c 3
 715 565 599 698 431 698 c 3
EndSplineSet
Validated: 1
Layer: 2
SplineSet
431 698 m 3,0,1
 358 698 358 698 303.5 667.5 c 128,-1,2
 249 637 249 637 171 562 c 1,3,-1
 171 704 l 1,4,5
 277 822 277 822 448 822 c 0,6,7
 513 822 513 822 586.5 801 c 128,-1,8
 660 780 660 780 713.5 755.5 c 128,-1,9
 767 731 767 731 829 710 c 128,-1,10
 891 689 891 689 936 689 c 0,11,12
 1005 689 1005 689 1074.5 731.5 c 128,-1,13
 1144 774 1144 774 1192 825 c 1,14,-1
 1192 680 l 1,15,16
 1126 619 1126 619 1061.5 592 c 128,-1,17
 997 565 997 565 916 565 c 0,18,19
 849 565 849 565 779.5 586 c 128,-1,20
 710 607 710 607 661 631.5 c 128,-1,21
 612 656 612 656 549.5 677 c 128,-1,22
 487 698 487 698 431 698 c 3,0,1
EndSplineSet
EndChar

StartChar: exclamdown
Encoding: 161 161 100
Width: 681
VWidth: 2045
Flags: W
HStem: 0 21G<213 362> 1064 20G<247.861 326.171> 1257 193<206 369>
VStem: 213 149<0 577.307 1257 1450>
LayerCount: 3
Fore
SplineSet
362 452 m 1
 362 0 l 1
 213 0 l 1
 213 452 l 1
 249 1084 l 1
 325 1084 l 1
 362 452 l 1
369 1257 m 1
 206 1257 l 1
 206 1450 l 1
 369 1450 l 1
 369 1257 l 1
EndSplineSet
Validated: 1
Layer: 2
SplineSet
362 452 m 1,0,-1
 362 0 l 1,1,-1
 213 0 l 1,2,-1
 213 452 l 1,3,-1
 249 1084 l 1,4,-1
 325 1084 l 1,5,-1
 362 452 l 1,0,-1
369 1257 m 1,6,-1
 206 1257 l 1,7,-1
 206 1450 l 1,8,-1
 369 1450 l 1,9,-1
 369 1257 l 1,6,-1
EndSplineSet
EndChar

StartChar: cent
Encoding: 162 162 101
Width: 1178
VWidth: 2045
Flags: W
HStem: -9 126<426.378 546 673 862.011> 71 160<911.408 974> 976 125<420.792 546 673 873.698> 1446 20G<546 673>
VStem: 113 127<319.946 777.274> 546 127<-369 -11 117 976 1104 1466>
LayerCount: 3
Back
SplineSet
610 -12 m 3xbc
 297 -12 113 213.86 113 544 c 3
 113 868.729 317.7 1105 610 1105 c 27
 755.433 1105 845.636 1092.16 974 1024 c 1
 974 863 l 1
 964 863 l 1
 902.796 941.859 769.197 981 610 981 c 3
 389.991 981 240 828.086 240 544 c 3
 240 278.812 386.891 112 610 112 c 3xbc
 766.82 112 885.153 153.22 964 231 c 1
 974 231 l 1
 974 71 l 1x7c
 807.521 -7.07324 737.409 -12 610 -12 c 3xbc
673 -369 m 1
 546 -369 l 1
 546 1466 l 1
 673 1466 l 1
 673 -369 l 1
EndSplineSet
Fore
SplineSet
673 -369 m 1x7c
 546 -369 l 1
 546 -9 l 1xbc
 272 20 113 237 113 544 c 3
 113 844 288 1069 546 1101 c 1
 546 1466 l 1
 673 1466 l 1
 673 1104 l 1
 784 1100 865 1082 974 1024 c 1
 974 863 l 1
 964 863 l 1
 911 931 804 970 673 979 c 1
 673 114 l 1
 799 124 896 164 964 231 c 1
 974 231 l 1
 974 71 l 1
 837 7 765 -8 673 -11 c 1
 673 -369 l 1x7c
546 117 m 1
 546 976 l 1
 361 949 240 800 240 544 c 3
 240 305 359 146 546 117 c 1
EndSplineSet
Validated: 1
Layer: 2
SplineSet
673 -369 m 1,0,-1
 546 -369 l 1,1,-1
 546 -9 l 1,2,3
 343 13 343 13 228 162 c 128,-1,4
 113 311 113 311 113 544 c 0,5,6
 113 769 113 769 232.5 923 c 128,-1,7
 352 1077 352 1077 546 1101 c 1,8,-1
 546 1466 l 1,9,-1
 673 1466 l 1,10,-1
 673 1104 l 1,11,12
 759 1101 759 1101 827 1083.5 c 128,-1,13
 895 1066 895 1066 974 1024 c 1,14,-1
 974 863 l 1,15,-1
 964 863 l 1,16,17
 885 964 885 964 673 979 c 1,18,-1
 673 114 l 1,19,20
 860 129 860 129 964 231 c 1,21,-1
 974 231 l 1,22,-1
 974 71 l 1,23,24
 876 25 876 25 811 8 c 128,-1,25
 746 -9 746 -9 673 -11 c 1,26,-1
 673 -369 l 1,0,-1
546 117 m 1,27,-1
 546 976 l 1,28,29
 404 955 404 955 322 843.5 c 128,-1,30
 240 732 240 732 240 544 c 0,31,32
 240 366 240 366 322.5 252.5 c 128,-1,33
 405 139 405 139 546 117 c 1,27,-1
EndSplineSet
EndChar

StartChar: sterling
Encoding: 163 163 102
Width: 1115
VWidth: 2045
Flags: W
HStem: 0 160<88 170.123> 0 124<228 1031> 620 124<130 322 449 846> 1305 165<911.249 1000> 1392 124<561.015 915.86>
VStem: 322 127<358.902 620 744 1274.49>
LayerCount: 3
Fore
SplineSet
449 553 m 2x2c
 449 371 345 204 228 134 c 1
 228 124 l 1
 1031 124 l 1
 1031 0 l 1x6c
 88 0 l 1
 88 160 l 1
 251 209 322 403 322 620 c 1
 130 620 l 1
 130 744 l 1
 322 744 l 1
 322 1071 l 2
 322 1341 459 1516 707 1516 c 3xac
 795 1516 843 1512 1000 1470 c 1
 1000 1305 l 1
 991 1305 l 1x34
 920 1352 830 1392 726 1392 c 3
 628 1392 449 1355 449 1093 c 2
 449 744 l 1
 846 744 l 1
 846 620 l 1
 449 620 l 1
 449 553 l 2x2c
EndSplineSet
Validated: 1
Layer: 2
SplineSet
449 553 m 2,0,1
 449 422 449 422 384.5 305.5 c 128,-1,2
 320 189 320 189 228 134 c 1,3,-1
 228 124 l 1,4,-1
 1031 124 l 1,5,-1
 1031 0 l 1,6,-1
 88 0 l 1,7,-1
 88 160 l 1,8,9
 167 184 167 184 220.5 253 c 128,-1,10
 274 322 274 322 298 415 c 128,-1,11
 322 508 322 508 322 620 c 1,12,-1
 130 620 l 1,13,-1
 130 744 l 1,14,-1
 322 744 l 1,15,-1
 322 1071 l 2,16,17
 322 1277 322 1277 423 1396.5 c 128,-1,18
 524 1516 524 1516 707 1516 c 0,19,20
 778 1516 778 1516 833.5 1508 c 128,-1,21
 889 1500 889 1500 1000 1470 c 1,22,-1
 1000 1305 l 1,23,-1
 991 1305 l 1,24,25
 860 1392 860 1392 726 1392 c 0,26,27
 692 1392 692 1392 659.5 1386.5 c 128,-1,28
 627 1381 627 1381 587 1362 c 128,-1,29
 547 1343 547 1343 518 1312 c 128,-1,30
 489 1281 489 1281 469 1224.5 c 128,-1,31
 449 1168 449 1168 449 1093 c 2,32,-1
 449 744 l 1,33,-1
 846 744 l 1,34,-1
 846 620 l 1,35,-1
 449 620 l 1,36,-1
 449 553 l 2,0,1
EndSplineSet
EndChar

StartChar: currency
Encoding: 164 164 103
Width: 1115
VWidth: 2045
Flags: W
HStem: 326 124<431.063 688.937> 873 124<429.813 690.187>
VStem: 226 127<528.784 794.594> 767 127<528.784 794.612>
DStem2: 171 1157 64 1051 0.707506 -0.706707<0 315.362 936.852 1250.87> 64 272 171 163 0.705509 0.708701<0 315.284 937.207 1250.16>
LayerCount: 3
Fore
SplineSet
894 662 m 3
 894 592 873 536 843 486 c 1
 1055 272 l 1
 950 166 l 1
 734 378 l 1
 684 348 630 326 560 326 c 3
 490 326 436 349 386 379 c 1
 171 163 l 1
 64 272 l 1
 277 486 l 1
 247 536 226 592 226 662 c 3
 226 732 247 784 277 834 c 1
 64 1051 l 1
 171 1157 l 1
 386 942 l 1
 436 972 490 997 560 997 c 3
 630 997 684 976 734 946 c 1
 947 1157 l 1
 1055 1051 l 1
 843 837 l 1
 873 787 894 732 894 662 c 3
560 450 m 3
 679 450 767 543 767 662 c 3
 767 781 679 873 560 873 c 3
 441 873 353 781 353 662 c 3
 353 543 441 450 560 450 c 3
EndSplineSet
Validated: 1
Layer: 2
SplineSet
894 662 m 3,0,1
 894 571 894 571 843 486 c 1,2,-1
 1055 272 l 1,3,-1
 950 166 l 1,4,-1
 734 378 l 1,5,6
 647 326 647 326 560 326 c 0,7,8
 474 326 474 326 386 379 c 1,9,-1
 171 163 l 1,10,-1
 64 272 l 1,11,-1
 277 486 l 1,12,13
 226 571 226 571 226 662 c 0,14,15
 226 749 226 749 277 834 c 1,16,-1
 64 1051 l 1,17,-1
 171 1157 l 1,18,-1
 386 942 l 1,19,20
 478 997 478 997 560 997 c 0,21,22
 649 997 649 997 734 946 c 1,23,-1
 947 1157 l 1,24,-1
 1055 1051 l 1,25,-1
 843 837 l 1,26,27
 894 752 894 752 894 662 c 3,0,1
560 450 m 131,-1,29
 649 450 649 450 708 511 c 128,-1,30
 767 572 767 572 767 662 c 128,-1,31
 767 752 767 752 708 812.5 c 128,-1,32
 649 873 649 873 560 873 c 128,-1,33
 471 873 471 873 412 812.5 c 128,-1,34
 353 752 353 752 353 662 c 128,-1,35
 353 572 353 572 412 511 c 128,-1,28
 471 450 471 450 560 450 c 131,-1,29
EndSplineSet
EndChar

StartChar: yen
Encoding: 165 165 104
Width: 1115
VWidth: 2045
Flags: W
HStem: 0 21G<495 622> 447 124<125 495 622 991>
VStem: 495 127<0 447 571 657>
DStem2: 265 1489 87 1489 0.443764 -0.896144<0 704.442> 560 849 619 677 0.448973 0.893545<0 705.214>
LayerCount: 3
Fore
SplineSet
1027 1489 m 1
 619 677 l 1
 619 571 l 1
 991 571 l 1
 991 447 l 1
 622 447 l 1
 622 0 l 1
 495 0 l 1
 495 447 l 1
 125 447 l 1
 125 571 l 1
 499 571 l 1
 499 657 l 1
 87 1489 l 1
 265 1489 l 1
 560 849 l 1
 857 1489 l 1
 1027 1489 l 1
EndSplineSet
Validated: 1
Layer: 2
SplineSet
1027 1489 m 1,0,-1
 619 677 l 1,1,-1
 619 571 l 1,2,-1
 991 571 l 1,3,-1
 991 447 l 1,4,-1
 622 447 l 1,5,-1
 622 0 l 1,6,-1
 495 0 l 1,7,-1
 495 447 l 1,8,-1
 125 447 l 1,9,-1
 125 571 l 1,10,-1
 499 571 l 1,11,-1
 499 657 l 1,12,-1
 87 1489 l 1,13,-1
 265 1489 l 1,14,-1
 560 849 l 1,15,-1
 857 1489 l 1,16,-1
 1027 1489 l 1,0,-1
EndSplineSet
EndChar

StartChar: brokenbar
Encoding: 166 166 105
Width: 780
VWidth: 2045
Flags: W
VStem: 328 127<-393 405 758 1556>
LayerCount: 3
Fore
SplineSet
455 758 m 1
 328 758 l 1
 328 1556 l 1
 455 1556 l 1
 455 758 l 1
455 -393 m 1
 328 -393 l 1
 328 405 l 1
 455 405 l 1
 455 -393 l 1
EndSplineSet
Validated: 1
Layer: 2
SplineSet
455 758 m 1,0,-1
 328 758 l 1,1,-1
 328 1556 l 1,2,-1
 455 1556 l 1,3,-1
 455 758 l 1,0,-1
455 -393 m 1,4,-1
 328 -393 l 1,5,-1
 328 405 l 1,6,-1
 455 405 l 1,7,-1
 455 -393 l 1,4,-1
EndSplineSet
EndChar

StartChar: section
Encoding: 167 167 106
Width: 1115
VWidth: 2045
Flags: W
HStem: -378 136<276.571 703.485> 1374 136<409.382 849.583>
VStem: 140 146<440.821 685.197> 170 146<1044.94 1290.5> 800 146<-156.534 85.8097> 830 146<431.269 693.15>
DStem2: 514 966 447 842 0.958112 -0.286392<-63.1281 337.495> 485 348 464 206 0.954204 -0.299156<-183.179 221.818>
LayerCount: 3
Back
SplineSet
666 314 m 1x09
 789 401 810 482 810 556 c 0
 810 642 780 719 625 766 c 2
 450 819 l 1
 385 780 308 698 308 578 c 0
 308 443 384 403 491 369 c 2
 666 314 l 1x09
489 -385 m 0x92
 366 -385 274 -365 171 -326 c 1
 171 -133 l 1
 183 -133 l 1x42
 352 -218 461 -220 504 -220 c 0
 627 -220 774 -179 774 -36 c 0
 774 75 714 120 593 154 c 2
 460 192 l 2
 288 242 119 305 119 532 c 0x8a
 119 605 143 753 317 858 c 1
 317 864 l 1
 252 901 148 977 148 1146 c 0
 148 1295 242 1518 628 1518 c 0x94
 723 1518 825 1503 945 1462 c 1
 945 1267 l 1
 936 1267 l 1x24
 832 1320 739 1353 607 1353 c 0
 495 1353 340 1317 340 1175 c 0
 340 1064 391 1015 518 980 c 2
 656 942 l 2
 855 887 996 807 998 601 c 1x15
 998 407 854 310 799 278 c 1
 799 269 l 1
 870 232 968 158 968 -9 c 0
 968 -159 866 -385 489 -385 c 0x92
EndSplineSet
Fore
SplineSet
670 290 m 1xe4
 798 381 830 472 830 556 c 3
 830 650 793 738 631 787 c 2
 447 842 l 1
 374 798 286 714 286 578 c 3
 286 431 376 383 485 348 c 2
 670 290 l 1xe4
489 -378 m 3
 374 -378 288 -360 192 -325 c 1
 192 -162 l 1
 354 -240 461 -242 504 -242 c 3
 627 -242 800 -200 800 -36 c 3
 800 87 721 133 597 168 c 2
 464 206 l 2
 291 256 140 321 140 532 c 3xe8
 140 617 191 758 359 865 c 1
 280 911 170 967 170 1146 c 3
 170 1285 253 1510 628 1510 c 3
 717 1510 813 1497 924 1461 c 1
 924 1297 l 1
 826 1345 733 1374 607 1374 c 3
 496 1374 316 1338 316 1175 c 3
 316 1054 383 1002 514 966 c 2
 652 928 l 2
 850 873 976 793 976 601 c 3xd4
 976 401 829 318 759 266 c 1
 843 221 946 169 946 -9 c 3xc8
 946 -149 855 -378 489 -378 c 3
EndSplineSet
Validated: 1
Layer: 2
SplineSet
670 290 m 1,0,1
 830 404 830 404 830 556 c 0,2,3
 830 636 830 636 786.5 694.5 c 128,-1,4
 743 753 743 753 631 787 c 2,5,-1
 447 842 l 1,6,7
 380 802 380 802 333 736 c 128,-1,8
 286 670 286 670 286 578 c 0,9,10
 286 525 286 525 301 485.5 c 128,-1,11
 316 446 316 446 345.5 420 c 128,-1,12
 375 394 375 394 407 378.5 c 128,-1,13
 439 363 439 363 485 348 c 2,14,-1
 670 290 l 1,0,1
489 -378 m 3,15,16
 337 -378 337 -378 192 -325 c 1,17,-1
 192 -162 l 1,18,19
 358 -242 358 -242 504 -242 c 0,20,21
 555 -242 555 -242 603 -232.5 c 128,-1,22
 651 -223 651 -223 697.5 -201 c 128,-1,23
 744 -179 744 -179 772 -136.5 c 128,-1,24
 800 -94 800 -94 800 -36 c 0,25,26
 800 50 800 50 750 94.5 c 128,-1,27
 700 139 700 139 597 168 c 2,28,-1
 464 206 l 2,29,30
 405 223 405 223 363 239 c 128,-1,31
 321 255 321 255 276 281.5 c 128,-1,32
 231 308 231 308 203.5 340.5 c 128,-1,33
 176 373 176 373 158 422 c 128,-1,34
 140 471 140 471 140 532 c 0,35,36
 140 609 140 609 192.5 700.5 c 128,-1,37
 245 792 245 792 359 865 c 1,38,39
 279.236180174 911.444755848 279.236180174 911.444755848 248.422734887 941.448787164 c 0,40,41
 170 1017.81149739 170 1017.81149739 170 1146 c 0,42,43
 170 1192 170 1192 181 1237.5 c 128,-1,44
 192 1283 192 1283 223.5 1333.5 c 128,-1,45
 255 1384 255 1384 304 1422 c 128,-1,46
 353 1460 353 1460 437 1485 c 128,-1,47
 521 1510 521 1510 628 1510 c 0,48,49
 773 1510 773 1510 924 1461 c 1,50,-1
 924 1297 l 1,51,52
 767 1374 767 1374 607 1374 c 0,53,54
 560 1374 560 1374 514 1365.5 c 128,-1,55
 468 1357 468 1357 421 1336.5 c 128,-1,56
 374 1316 374 1316 345 1274.5 c 128,-1,57
 316 1233 316 1233 316 1175 c 0,58,59
 316 1088 316 1088 363.5 1041 c 128,-1,60
 411 994 411 994 514 966 c 2,61,-1
 652 928 l 2,62,63
 814 883 814 883 895 810 c 128,-1,64
 976 737 976 737 976 601 c 0,65,66
 976 565 976 565 969 531 c 128,-1,67
 962 497 962 497 952.5 472 c 128,-1,68
 943 447 943 447 925 420.5 c 128,-1,69
 907 394 907 394 894 378 c 128,-1,70
 881 362 881 362 858 341.5 c 128,-1,71
 835 321 835 321 823 312.5 c 128,-1,72
 811 304 811 304 787.5 287 c 128,-1,73
 764 270 764 270 759 266 c 1,74,75
 795 247 795 247 812 237 c 128,-1,76
 829 227 829 227 860 201.5 c 128,-1,77
 891 176 891 176 906 151 c 128,-1,78
 921 126 921 126 933.5 84 c 128,-1,79
 946 42 946 42 946 -9 c 0,80,81
 946 -55 946 -55 934 -101.5 c 128,-1,82
 922 -148 922 -148 890 -199 c 128,-1,83
 858 -250 858 -250 808.5 -288.5 c 128,-1,84
 759 -327 759 -327 676.5 -352.5 c 128,-1,85
 594 -378 594 -378 489 -378 c 3,15,16
EndSplineSet
EndChar

StartChar: dieresis
Encoding: 168 168 107
Width: 1115
VWidth: 2045
Flags: W
HStem: 1315 171<265 442 677 854>
VStem: 265 177<1315 1486> 677 177<1315 1486>
LayerCount: 3
Fore
SplineSet
854 1315 m 1
 677 1315 l 1
 677 1486 l 1
 854 1486 l 1
 854 1315 l 1
442 1315 m 1
 265 1315 l 1
 265 1486 l 1
 442 1486 l 1
 442 1315 l 1
EndSplineSet
Validated: 1
Layer: 2
SplineSet
854 1315 m 1,0,-1
 677 1315 l 1,1,-1
 677 1486 l 1,2,-1
 854 1486 l 1,3,-1
 854 1315 l 1,0,-1
442 1315 m 1,4,-1
 265 1315 l 1,5,-1
 265 1486 l 1,6,-1
 442 1486 l 1,7,-1
 442 1315 l 1,4,-1
EndSplineSet
EndChar

StartChar: copyright
Encoding: 169 169 108
Width: 1898
VWidth: 2045
Flags: W
HStem: -209 111<703.212 1196.69> 180 124<788.357 1158.11> 255 156<1194.42 1273> 911 158<1196.59 1273> 1018 124<791.981 1159> 1408 111<703.212 1196.69>
VStem: 85 117<401.904 908.096> 531 127<444.143 881.613> 1697 117<401.904 908.096>
LayerCount: 3
Fore
SplineSet
1814 655 m 3x8780
 1814 180 1438 -209 950 -209 c 3
 462 -209 85 180 85 655 c 3
 85 1130 462 1519 950 1519 c 3
 1438 1519 1814 1130 1814 655 c 3x8780
1697 655 m 3
 1697 1093 1353 1408 950 1408 c 3
 547 1408 202 1093 202 655 c 3
 202 217 547 -98 950 -98 c 3
 1353 -98 1697 217 1697 655 c 3
985 304 m 3xcf80
 1115 304 1233 389 1256 411 c 1
 1273 411 l 1
 1273 255 l 1xa780
 1142 200 1089 180 982 180 c 3
 778 180 531 276 531 660 c 3
 531 958 704 1142 982 1142 c 3xcf80
 1098 1142 1202 1107 1273 1069 c 1
 1273 911 l 1
 1256 911 l 1x9780
 1206 957 1093 1018 985 1018 c 3
 820 1018 658 970 658 660 c 3
 658 352 820 304 985 304 c 3xcf80
EndSplineSet
Validated: 1
Layer: 2
SplineSet
1814 655 m 131,-1,1
 1814 479 1814 479 1747 320 c 128,-1,2
 1680 161 1680 161 1565.5 44.5 c 128,-1,3
 1451 -72 1451 -72 1290 -140.5 c 128,-1,4
 1129 -209 1129 -209 950 -209 c 128,-1,5
 771 -209 771 -209 610 -140.5 c 128,-1,6
 449 -72 449 -72 334 44.5 c 128,-1,7
 219 161 219 161 152 320.5 c 128,-1,8
 85 480 85 480 85 655 c 128,-1,9
 85 830 85 830 152 989.5 c 128,-1,10
 219 1149 219 1149 334 1265.5 c 128,-1,11
 449 1382 449 1382 610 1450.5 c 128,-1,12
 771 1519 771 1519 950 1519 c 128,-1,13
 1129 1519 1129 1519 1290 1450.5 c 128,-1,14
 1451 1382 1451 1382 1565.5 1265.5 c 128,-1,15
 1680 1149 1680 1149 1747 990 c 128,-1,0
 1814 831 1814 831 1814 655 c 131,-1,1
1697 655 m 131,-1,17
 1697 815 1697 815 1636.5 956.5 c 128,-1,18
 1576 1098 1576 1098 1474.5 1196.5 c 128,-1,19
 1373 1295 1373 1295 1236.5 1351.5 c 128,-1,20
 1100 1408 1100 1408 950 1408 c 128,-1,21
 800 1408 800 1408 663 1351.5 c 128,-1,22
 526 1295 526 1295 424.5 1196.5 c 128,-1,23
 323 1098 323 1098 262.5 956.5 c 128,-1,24
 202 815 202 815 202 655 c 128,-1,25
 202 495 202 495 262.5 353.5 c 128,-1,26
 323 212 323 212 424.5 113.5 c 128,-1,27
 526 15 526 15 663 -41.5 c 128,-1,28
 800 -98 800 -98 950 -98 c 128,-1,29
 1100 -98 1100 -98 1236.5 -41.5 c 128,-1,30
 1373 15 1373 15 1474.5 113.5 c 128,-1,31
 1576 212 1576 212 1636.5 353.5 c 128,-1,16
 1697 495 1697 495 1697 655 c 131,-1,17
985 304 m 3,32,33
 1069 304 1069 304 1146.5 342.5 c 128,-1,34
 1224 381 1224 381 1256 411 c 1,35,-1
 1273 411 l 1,36,-1
 1273 255 l 1,37,38
 1165 210 1165 210 1111 195 c 128,-1,39
 1057 180 1057 180 982 180 c 0,40,41
 916 180 916 180 856 192.5 c 128,-1,42
 796 205 796 205 735.5 238.5 c 128,-1,43
 675 272 675 272 631 324.5 c 128,-1,44
 587 377 587 377 559 463 c 128,-1,45
 531 549 531 549 531 660 c 0,46,47
 531 883 531 883 652 1012.5 c 128,-1,48
 773 1142 773 1142 982 1142 c 0,49,50
 1137 1142 1137 1142 1273 1069 c 1,51,-1
 1273 911 l 1,52,-1
 1256 911 l 1,53,54
 1213 951 1213 951 1136 984.5 c 128,-1,55
 1059 1018 1059 1018 985 1018 c 0,56,57
 930 1018 930 1018 887 1011 c 128,-1,58
 844 1004 844 1004 799 981 c 128,-1,59
 754 958 754 958 725 920 c 128,-1,60
 696 882 696 882 677 816 c 128,-1,61
 658 750 658 750 658 660 c 0,62,63
 658 571 658 571 677 505 c 128,-1,64
 696 439 696 439 725 401 c 128,-1,65
 754 363 754 363 799 340.5 c 128,-1,66
 844 318 844 318 887 311 c 128,-1,67
 930 304 930 304 985 304 c 3,32,33
EndSplineSet
EndChar

StartChar: ordfeminine
Encoding: 170 170 109
Width: 1007
VWidth: 2045
Flags: W
HStem: 541 124<290.817 636.564> 1333 141<189 344.792> 1395 124<252.184 693.716>
VStem: 113 127<714.393 964.916> 746 127<565 657 757.641 1057 1184 1341.72>
LayerCount: 3
Fore
SplineSet
482 1519 m 3xb8
 773 1519 872 1390 873 1193 c 1
 873 565 l 1
 746 565 l 1
 746 657 l 1
 688 613 614 541 402 541 c 3
 245 541 113 656 113 840 c 3
 113 1115 345 1167 746 1184 c 1
 746 1304 745 1395 482 1395 c 3xb8
 426 1395 341 1385 204 1333 c 1
 189 1333 l 1
 189 1474 l 1xd8
 189 1474 367 1519 482 1519 c 3xb8
460 665 m 3
 540 665 623 668 746 802 c 1
 746 1057 l 1
 556 1045 l 2
 271 1027 240 938 240 849 c 3
 240 740 277 665 460 665 c 3
EndSplineSet
Validated: 1
Layer: 2
SplineSet
482 1519 m 3,0,1
 690 1519 690 1519 781 1434.5 c 128,-1,2
 872 1350 872 1350 873 1193 c 2,3,-1
 873 565 l 1,4,-1
 746 565 l 1,5,-1
 746 657 l 2,6,7
 744 655 744 655 726.5 641.5 c 128,-1,8
 709 628 709 628 703 624 c 128,-1,9
 697 620 697 620 678.5 607.5 c 128,-1,10
 660 595 660 595 648 590 c 128,-1,11
 636 585 636 585 614.5 575 c 128,-1,12
 593 565 593 565 572 560.5 c 128,-1,13
 551 556 551 556 524.5 550.5 c 128,-1,14
 498 545 498 545 467 543 c 128,-1,15
 436 541 436 541 402 541 c 0,16,17
 280 541 280 541 196.5 623.5 c 128,-1,18
 113 706 113 706 113 840 c 0,19,20
 113 908 113 908 131 959.5 c 128,-1,21
 149 1011 149 1011 188.5 1047.5 c 128,-1,22
 228 1084 228 1084 278.5 1108.5 c 128,-1,23
 329 1133 329 1133 404.5 1148.5 c 128,-1,24
 480 1164 480 1164 559 1171.5 c 128,-1,25
 638 1179 638 1179 746 1184 c 1,26,27
 746 1207 746 1207 745.5 1219 c 128,-1,28
 745 1231 745 1231 743.5 1251.5 c 128,-1,29
 742 1272 742 1272 738.5 1283 c 128,-1,30
 735 1294 735 1294 729 1310 c 128,-1,31
 723 1326 723 1326 713 1334.5 c 128,-1,32
 703 1343 703 1343 689 1354.5 c 128,-1,33
 675 1366 675 1366 655 1372 c 128,-1,34
 635 1378 635 1378 610.5 1384 c 128,-1,35
 586 1390 586 1390 553.5 1392.5 c 128,-1,36
 521 1395 521 1395 482 1395 c 0,37,38
 367 1395 367 1395 204 1333 c 1,39,-1
 189 1333 l 1,40,-1
 189 1474 l 1,41,42
 367 1519 367 1519 482 1519 c 3,0,1
460 665 m 3,43,44
 512 665 512 665 544.5 670 c 128,-1,45
 577 675 577 675 633 707 c 128,-1,46
 689 739 689 739 746 802 c 1,47,-1
 746 1057 l 1,48,-1
 556 1045 l 2,49,50
 473 1040 473 1040 413.5 1026 c 128,-1,51
 354 1012 354 1012 321 994.5 c 128,-1,52
 288 977 288 977 269 951 c 128,-1,53
 250 925 250 925 245 902.5 c 128,-1,54
 240 880 240 880 240 849 c 0,55,56
 240 805 240 805 249 774 c 128,-1,57
 258 743 258 743 281 717 c 128,-1,58
 304 691 304 691 348.5 678 c 128,-1,59
 393 665 393 665 460 665 c 3,43,44
EndSplineSet
EndChar

StartChar: guillemotleft
Encoding: 171 171 110
Width: 1170
VWidth: 2045
Flags: W
DStem2: 104 698 282 652 0.753585 0.657351<103.9 546.598> 282 652 104 607 0.752851 -0.65819<0 442.702> 555 695 726 652 0.760245 0.649636<102.068 519.766> 726 652 555 610 0.757939 -0.652325<0 418.352>
LayerCount: 3
Fore
SplineSet
1043 190 m 1
 555 610 l 1
 555 695 l 1
 1043 1112 l 1
 1043 924 l 1
 726 652 l 1
 1043 379 l 1
 1043 190 l 1
613 162 m 1
 104 607 l 1
 104 698 l 1
 613 1142 l 1
 613 946 l 1
 282 652 l 1
 613 358 l 1
 613 162 l 1
EndSplineSet
Validated: 1
Layer: 2
SplineSet
1043 190 m 1,0,-1
 555 610 l 1,1,-1
 555 695 l 1,2,-1
 1043 1112 l 1,3,-1
 1043 924 l 1,4,-1
 726 652 l 1,5,-1
 1043 379 l 1,6,-1
 1043 190 l 1,0,-1
613 162 m 1,7,-1
 104 607 l 1,8,-1
 104 698 l 1,9,-1
 613 1142 l 1,10,-1
 613 946 l 1,11,-1
 282 652 l 1,12,-1
 613 358 l 1,13,-1
 613 162 l 1,7,-1
EndSplineSet
EndChar

StartChar: logicalnot
Encoding: 172 172 111
Width: 1486
VWidth: 2045
Flags: W
HStem: 625 136<157 1176>
VStem: 1176 146<57 625>
LayerCount: 3
Fore
SplineSet
1322 57 m 1
 1176 57 l 1
 1176 625 l 1
 157 625 l 1
 157 761 l 1
 1322 761 l 1
 1322 57 l 1
EndSplineSet
Validated: 1
Layer: 2
SplineSet
1322 57 m 1,0,-1
 1176 57 l 1,1,-1
 1176 625 l 1,2,-1
 157 625 l 1,3,-1
 157 761 l 1,4,-1
 1322 761 l 1,5,-1
 1322 57 l 1,0,-1
EndSplineSet
EndChar

StartChar: registered
Encoding: 174 174 113
Width: 1898
VWidth: 2045
Flags: W
HStem: -209 111<703.212 1203.68> 569 124<776 992> 1006 124<776 1141.29> 1408 111<703.566 1199.5>
VStem: 85 117<401.718 907.516> 649 127<214 569 693 1006> 1175 127<741.372 970.597> 1697 117<408.066 904.482>
DStem2: 1101 615 992 569 0.653276 -0.75712<0 417.928>
LayerCount: 3
Fore
SplineSet
1814 655 m 3
 1814 154 1417 -209 950 -209 c 3
 462 -209 85 179 85 655 c 3
 85 1130 464 1519 950 1519 c 3
 1446 1519 1814 1122 1814 655 c 3
1697 655 m 3
 1697 1082 1360 1408 950 1408 c 3
 547 1408 202 1090 202 655 c 3
 202 217 547 -98 950 -98 c 3
 1356 -98 1697 220 1697 655 c 3
1302 879 m 3
 1302 733 1204 656 1101 615 c 1
 1447 214 l 1
 1276 214 l 1
 992 569 l 1
 776 569 l 1
 776 214 l 1
 649 214 l 1
 649 1130 l 1
 959 1130 l 2
 1062 1130 1302 1117 1302 879 c 3
968 693 m 2
 1128 693 1175 762 1175 867 c 3
 1175 1006 1054 1006 986 1006 c 2
 776 1006 l 1
 776 693 l 1
 968 693 l 2
EndSplineSet
Validated: 1
Layer: 2
SplineSet
1814 655 m 3,0,1
 1814 471 1814 471 1744.5 309 c 128,-1,2
 1675 147 1675 147 1557.5 34.5 c 128,-1,3
 1440 -78 1440 -78 1281.5 -143.5 c 128,-1,4
 1123 -209 1123 -209 950 -209 c 0,5,6
 770 -209 770 -209 609.5 -140.5 c 128,-1,7
 449 -72 449 -72 334 44 c 128,-1,8
 219 160 219 160 152 319.5 c 128,-1,9
 85 479 85 479 85 655 c 0,10,11
 85 889 85 889 199 1087.5 c 128,-1,12
 313 1286 313 1286 512.5 1402.5 c 128,-1,13
 712 1519 712 1519 950 1519 c 0,14,15
 1132 1519 1132 1519 1293.5 1449.5 c 128,-1,16
 1455 1380 1455 1380 1568.5 1262.5 c 128,-1,17
 1682 1145 1682 1145 1748 986.5 c 128,-1,18
 1814 828 1814 828 1814 655 c 3,0,1
1697 655 m 3,19,20
 1697 812 1697 812 1637.5 952.5 c 128,-1,21
 1578 1093 1578 1093 1477.5 1192.5 c 128,-1,22
 1377 1292 1377 1292 1239.5 1350 c 128,-1,23
 1102 1408 1102 1408 950 1408 c 0,24,25
 800 1408 800 1408 663 1351 c 128,-1,26
 526 1294 526 1294 424.5 1195.5 c 128,-1,27
 323 1097 323 1097 262.5 955.5 c 128,-1,28
 202 814 202 814 202 655 c 0,29,30
 202 495 202 495 262.5 353.5 c 128,-1,31
 323 212 323 212 424.5 113.5 c 128,-1,32
 526 15 526 15 663 -41.5 c 128,-1,33
 800 -98 800 -98 950 -98 c 0,34,35
 1152 -98 1152 -98 1322.5 -1.5 c 128,-1,36
 1493 95 1493 95 1595 268.5 c 128,-1,37
 1697 442 1697 442 1697 655 c 3,19,20
1302 879 m 3,38,39
 1302 695 1302 695 1101 615 c 1,40,-1
 1447 214 l 1,41,-1
 1276 214 l 1,42,-1
 992 569 l 1,43,-1
 776 569 l 1,44,-1
 776 214 l 1,45,-1
 649 214 l 1,46,-1
 649 1130 l 1,47,-1
 959 1130 l 2,48,49
 1302 1130 1302 1130 1302 879 c 3,38,39
968 693 m 2,50,51
 1082 693 1082 693 1128.5 737.5 c 128,-1,52
 1175 782 1175 782 1175 867 c 0,53,54
 1175 900 1175 900 1166.5 925.5 c 128,-1,55
 1158 951 1158 951 1140.5 965 c 128,-1,56
 1123 979 1123 979 1107 988.5 c 128,-1,57
 1091 998 1091 998 1065 1001 c 128,-1,58
 1039 1004 1039 1004 1024.5 1005 c 128,-1,59
 1010 1006 1010 1006 986 1006 c 2,60,-1
 776 1006 l 1,61,-1
 776 693 l 1,62,-1
 968 693 l 2,50,51
EndSplineSet
EndChar

StartChar: macron
Encoding: 175 175 114
Width: 1115
VWidth: 2045
Flags: W
HStem: 1658 130<-15 1133>
LayerCount: 3
Fore
SplineSet
1133 1658 m 1
 -15 1658 l 1
 -15 1788 l 1
 1133 1788 l 1
 1133 1658 l 1
EndSplineSet
Validated: 1
Layer: 2
SplineSet
1133 1658 m 1,0,-1
 -15 1658 l 1,1,-1
 -15 1788 l 1,2,-1
 1133 1788 l 1,3,-1
 1133 1658 l 1,0,-1
EndSplineSet
EndChar

StartChar: degree
Encoding: 176 176 115
Width: 961
VWidth: 2045
Flags: W
HStem: 755 124<339.738 626.152> 1389 124<334.605 626.77>
VStem: 101 127<988.709 1280.58> 736 127<989.486 1279.59>
LayerCount: 3
Fore
SplineSet
482 1513 m 3
 708 1513 863 1342 863 1134 c 3
 863 928 705 755 482 755 c 3
 273 755 101 912 101 1134 c 3
 101 1343 254 1513 482 1513 c 3
482 879 m 3
 637 879 736 1004 736 1134 c 3
 736 1267 637 1389 482 1389 c 3
 317 1389 228 1259 228 1134 c 3
 228 996 334 879 482 879 c 3
EndSplineSet
Validated: 1
Layer: 2
SplineSet
482 1513 m 3,0,1
 649 1513 649 1513 756 1403 c 128,-1,2
 863 1293 863 1293 863 1134 c 0,3,4
 863 977 863 977 755 866 c 128,-1,5
 647 755 647 755 482 755 c 0,6,7
 323 755 323 755 212 862.5 c 128,-1,8
 101 970 101 970 101 1134 c 0,9,10
 101 1294 101 1294 207.5 1403.5 c 128,-1,11
 314 1513 314 1513 482 1513 c 3,0,1
482 879 m 3,12,13
 594 879 594 879 665 955.5 c 128,-1,14
 736 1032 736 1032 736 1134 c 0,15,16
 736 1238 736 1238 665 1313.5 c 128,-1,17
 594 1389 594 1389 482 1389 c 0,18,19
 365 1389 365 1389 296.5 1312 c 128,-1,20
 228 1235 228 1235 228 1134 c 0,21,22
 228 1029 228 1029 300.5 954 c 128,-1,23
 373 879 373 879 482 879 c 3,12,13
EndSplineSet
EndChar

StartChar: plusminus
Encoding: 177 177 116
Width: 1486
VWidth: 2045
Flags: W
HStem: 159 136<162 672 818 1326> 739 136<162 672 818 1326>
VStem: 672 146<295 739 875 1402>
LayerCount: 3
Fore
SplineSet
1326 159 m 1
 162 159 l 1
 162 295 l 1
 672 295 l 1
 672 739 l 1
 162 739 l 1
 162 875 l 1
 672 875 l 1
 672 1402 l 1
 818 1402 l 1
 818 875 l 1
 1326 875 l 1
 1326 739 l 1
 818 739 l 1
 818 295 l 1
 1326 295 l 1
 1326 159 l 1
EndSplineSet
Validated: 1
Layer: 2
SplineSet
1326 159 m 1,0,-1
 162 159 l 1,1,-1
 162 295 l 1,2,-1
 672 295 l 1,3,-1
 672 739 l 1,4,-1
 162 739 l 1,5,-1
 162 875 l 1,6,-1
 672 875 l 1,7,-1
 672 1402 l 1,8,-1
 818 1402 l 1,9,-1
 818 875 l 1,10,-1
 1326 875 l 1,11,-1
 1326 739 l 1,12,-1
 818 739 l 1,13,-1
 818 295 l 1,14,-1
 1326 295 l 1,15,-1
 1326 159 l 1,0,-1
EndSplineSet
EndChar

StartChar: uni00B2
Encoding: 178 178 117
Width: 1007
Flags: W
HStem: 566 124<364 819> 1394 124<388.071 637.984>
VStem: 207 127<1210 1337.02> 692 127<1121.57 1340.78>
LayerCount: 3
Fore
SplineSet
516 1394 m 3
 442 1394 334 1358 334 1210 c 1
 207 1210 l 1
 207 1397 327 1518 518 1518 c 3
 686 1518 819 1416 819 1232 c 3
 819 1059 669 958 544 851 c 0
 486 801 410 730 364 690 c 1
 819 690 l 1
 819 566 l 1
 185 566 l 1
 185 702 294 804 434 921 c 0
 571 1036 692 1124 692 1235 c 3
 692 1334 604 1394 516 1394 c 3
EndSplineSet
Validated: 1
Layer: 2
SplineSet
516 1394 m 3,0,1
 485 1394 485 1394 456 1385.5 c 128,-1,2
 427 1377 427 1377 398 1358 c 128,-1,3
 369 1339 369 1339 351.5 1301 c 128,-1,4
 334 1263 334 1263 334 1210 c 1,5,-1
 207 1210 l 1,6,7
 207 1351 207 1351 291 1434.5 c 128,-1,8
 375 1518 375 1518 518 1518 c 0,9,10
 649 1518 649 1518 734 1442 c 128,-1,11
 819 1366 819 1366 819 1232 c 0,12,13
 819 1196 819 1196 811.5 1163 c 128,-1,14
 804 1130 804 1130 785.5 1098.5 c 128,-1,15
 767 1067 767 1067 751.5 1044 c 128,-1,16
 736 1021 736 1021 703.5 990 c 128,-1,17
 671 959 671 959 654 944 c 128,-1,18
 637 929 637 929 597.5 896 c 128,-1,19
 558 863 558 863 544 851 c 0,20,21
 513 824 513 824 448.5 765.5 c 128,-1,22
 384 707 384 707 364 690 c 1,23,-1
 819 690 l 1,24,-1
 819 566 l 1,25,-1
 185 566 l 1,26,27
 185 615 185 615 202.5 661 c 128,-1,28
 220 707 220 707 258.5 752.5 c 128,-1,29
 297 798 297 798 334.5 834 c 128,-1,30
 372 870 372 870 434 921 c 0,31,32
 447 932 447 932 478 958 c 128,-1,33
 509 984 509 984 522 995 c 128,-1,34
 535 1006 535 1006 561 1028.5 c 128,-1,35
 587 1051 587 1051 598.5 1063.5 c 128,-1,36
 610 1076 610 1076 629 1096 c 128,-1,37
 648 1116 648 1116 656.5 1130.5 c 128,-1,38
 665 1145 665 1145 675 1163.5 c 128,-1,39
 685 1182 685 1182 688.5 1199.5 c 128,-1,40
 692 1217 692 1217 692 1235 c 0,41,42
 692 1306 692 1306 639 1350 c 128,-1,43
 586 1394 586 1394 516 1394 c 3,0,1
EndSplineSet
EndChar

StartChar: uni00B3
Encoding: 179 179 118
Width: 1007
Flags: W
HStem: 559 124<365.678 624.157> 1015 104<405.413 568.75> 1394 124<369.949 610.325>
VStem: 184 127<739.984 864 1230 1331.31> 641 127<1184.78 1362.12> 686 127<744.901 970.882>
LayerCount: 3
Fore
SplineSet
488 1394 m 3xf8
 377 1394 336 1328 322 1230 c 1
 195 1230 l 1
 195 1395 317 1518 485 1518 c 3
 635 1518 768 1417 768 1265 c 3xf8
 768 1187 724 1119 667 1079 c 1
 761 1043 813 972 813 861 c 3
 813 685 671 559 490 559 c 3
 312 559 184 683 184 864 c 1
 311 864 l 1
 311 760 370 683 490 683 c 3
 613 683 686 761 686 858 c 3xf4
 686 954 627 1015 505 1015 c 3
 473 1015 434 1007 404 998 c 1
 404 1122 l 1
 418 1121 433 1119 447 1119 c 3
 513 1119 641 1184 641 1268 c 3
 641 1338 590 1394 488 1394 c 3xf8
EndSplineSet
Validated: 1
Layer: 2
SplineSet
488 1394 m 3,0,1
 409 1394 409 1394 371 1352 c 128,-1,2
 333 1310 333 1310 322 1230 c 1,3,-1
 195 1230 l 1,4,5
 195 1354 195 1354 277 1436 c 128,-1,6
 359 1518 359 1518 485 1518 c 0,7,8
 601 1518 601 1518 684.5 1447 c 128,-1,9
 768 1376 768 1376 768 1265 c 0,10,11
 768 1209 768 1209 740 1160 c 128,-1,12
 712 1111 712 1111 667 1079 c 1,13,14
 813 1023 813 1023 813 861 c 0,15,16
 813 730 813 730 720 644.5 c 128,-1,17
 627 559 627 559 490 559 c 0,18,19
 356 559 356 559 270 644 c 128,-1,20
 184 729 184 729 184 864 c 1,21,-1
 311 864 l 1,22,23
 311 783 311 783 357 733 c 128,-1,24
 403 683 403 683 490 683 c 0,25,26
 580 683 580 683 633 733 c 128,-1,27
 686 783 686 783 686 858 c 0,28,29
 686 932 686 932 640 973.5 c 128,-1,30
 594 1015 594 1015 505 1015 c 0,31,32
 461 1015 461 1015 404 998 c 1,33,-1
 404 1122 l 1,34,35
 446 1119 446 1119 447 1119 c 0,36,37
 504 1119 504 1119 572.5 1164.5 c 128,-1,38
 641 1210 641 1210 641 1268 c 0,39,40
 641 1323 641 1323 601.5 1358.5 c 128,-1,41
 562 1394 562 1394 488 1394 c 3,0,1
EndSplineSet
EndChar

StartChar: acute
Encoding: 180 180 119
Width: 1115
VWidth: 2045
Flags: W
HStem: 1302 373
VStem: 472 373
LayerCount: 3
Fore
SplineSet
845 1675 m 1
 574 1302 l 1
 472 1302 l 1
 652 1675 l 1
 845 1675 l 1
EndSplineSet
Validated: 1
Layer: 2
SplineSet
845 1675 m 1,0,-1
 574 1302 l 1,1,-1
 472 1302 l 1,2,-1
 652 1675 l 1,3,-1
 845 1675 l 1,0,-1
EndSplineSet
EndChar

StartChar: micro
Encoding: 181 181 120
Width: 1160
VWidth: 2045
Flags: W
HStem: -12 124<419.482 731.22> 1040 20G<136 263 898 1025>
VStem: 136 127<-411 115 231.736 1060> 898 127<0 104 233.604 1060>
LayerCount: 3
Fore
SplineSet
576 112 m 3
 666 112 810 183 898 275 c 1
 898 1060 l 1
 1025 1060 l 1
 1025 0 l 1
 898 0 l 1
 898 104 l 1
 781 -8 646 -12 576 -12 c 3
 479 -12 359 8 263 115 c 1
 263 -411 l 1
 136 -411 l 1
 136 1060 l 1
 263 1060 l 1
 263 275 l 1
 328 199 469 112 576 112 c 3
EndSplineSet
Validated: 1
Layer: 2
SplineSet
576 112 m 3,0,1
 644 112 644 112 738.5 159.5 c 128,-1,2
 833 207 833 207 898 275 c 1,3,-1
 898 1060 l 1,4,-1
 1025 1060 l 1,5,-1
 1025 0 l 1,6,-1
 898 0 l 1,7,-1
 898 104 l 1,8,9
 777 -12 777 -12 576 -12 c 0,10,11
 377 -12 377 -12 263 115 c 1,12,-1
 263 -411 l 1,13,-1
 136 -411 l 1,14,-1
 136 1060 l 1,15,-1
 263 1060 l 1,16,-1
 263 275 l 1,17,18
 316 214 316 214 408 163 c 128,-1,19
 500 112 500 112 576 112 c 3,0,1
EndSplineSet
EndChar

StartChar: paragraph
Encoding: 182 182 121
Width: 1115
VWidth: 2045
Flags: W
HStem: 1365 124<654 853>
VStem: 58 596<840.574 1261.49> 526 128<-362 592> 853 127<-362 1365>
LayerCount: 3
Fore
SplineSet
58 1050 m 3xd0
 58 1341 253 1489 571 1489 c 2
 980 1489 l 1
 980 -362 l 1
 853 -362 l 1
 853 1365 l 1
 654 1365 l 1
 654 -362 l 1
 526 -362 l 1
 526 592 l 1xb0
 245 600 58 769 58 1050 c 3xd0
EndSplineSet
Validated: 1
Layer: 2
SplineSet
58 1050 m 3,0,1
 58 1265 58 1265 193 1377 c 128,-1,2
 328 1489 328 1489 571 1489 c 2,3,-1
 980 1489 l 1,4,-1
 980 -362 l 1,5,-1
 853 -362 l 1,6,-1
 853 1365 l 1,7,-1
 654 1365 l 1,8,-1
 654 -362 l 1,9,-1
 526 -362 l 1,10,-1
 526 592 l 1,11,12
 313 598 313 598 185.5 720 c 128,-1,13
 58 842 58 842 58 1050 c 3,0,1
EndSplineSet
EndChar

StartChar: periodcentered
Encoding: 183 183 122
Width: 722
VWidth: 2045
Flags: W
HStem: 831 285<242 482>
VStem: 242 240<831 1116>
LayerCount: 3
Fore
SplineSet
482 831 m 1
 242 831 l 1
 242 1116 l 1
 482 1116 l 1
 482 831 l 1
EndSplineSet
Validated: 1
Layer: 2
SplineSet
482 831 m 1,0,-1
 242 831 l 1,1,-1
 242 1116 l 1,2,-1
 482 1116 l 1,3,-1
 482 831 l 1,0,-1
EndSplineSet
EndChar

StartChar: cedilla
Encoding: 184 184 123
Width: 1115
VWidth: 2045
Flags: W
HStem: -435 124<296.111 593.261> -411 133<290 436.061>
VStem: 644 127<-255.703 20>
LayerCount: 3
Fore
SplineSet
439 -311 m 3xa0
 578 -311 644 -266 644 -107 c 3
 644 11 641 -56 641 20 c 1
 765 20 l 1
 767 6 771 -66 771 -89 c 3
 771 -356 592 -435 467 -435 c 3xa0
 396 -435 324 -421 290 -411 c 1
 290 -278 l 1
 299 -278 l 1x60
 333 -295 376 -311 439 -311 c 3xa0
EndSplineSet
Validated: 1
Layer: 2
SplineSet
439 -311 m 3,0,1
 548 -311 548 -311 596 -266.5 c 128,-1,2
 644 -222 644 -222 644 -107 c 0,3,4
 644 -43 644 -43 642.5 -28 c 128,-1,5
 641 -13 641 -13 641 20 c 1,6,-1
 765 20 l 1,7,8
 771 -22 771 -22 771 -89 c 0,9,10
 771 -166 771 -166 751 -227.5 c 128,-1,11
 731 -289 731 -289 700 -326.5 c 128,-1,12
 669 -364 669 -364 628 -389.5 c 128,-1,13
 587 -415 587 -415 547 -425 c 128,-1,14
 507 -435 507 -435 467 -435 c 0,15,16
 372 -435 372 -435 290 -411 c 1,17,-1
 290 -278 l 1,18,-1
 299 -278 l 1,19,20
 365 -311 365 -311 439 -311 c 3,0,1
EndSplineSet
EndChar

StartChar: uni0E01
Encoding: 3585 3585 124
Width: 1248
VWidth: 2045
Flags: W
HStem: 0 21G<250 363 985 1098> 776 112<239 250 363 476> 1154 112<424.277 778.185>
VStem: 250 113<0 776> 985 113<0 945.432>
LayerCount: 3
Fore
SplineSet
985 776 m 2
 985 988 810 1154 604 1154 c 256
 487 1154 312 1098 239 888 c 9
 476 888 l 1
 476 776 l 1
 363 776 l 17
 363 0 l 17
 250 0 l 9
 250 776 l 9
 110 776 l 1
 110 1051 335 1266 604 1266 c 256
 874 1266 1098 1049 1098 776 c 2
 1098 0 l 1
 985 0 l 1
 985 776 l 2
EndSplineSet
Validated: 1
Layer: 2
SplineSet
985 776 m 2,0,1
 985 934 985 934 872.5 1044 c 128,-1,2
 760 1154 760 1154 604 1154 c 0,3,4
 556 1154 556 1154 507 1141.5 c 128,-1,5
 458 1129 458 1129 406 1100.5 c 128,-1,6
 354 1072 354 1072 309.5 1017.5 c 128,-1,7
 265 963 265 963 239 888 c 1,8,-1
 476 888 l 1,9,-1
 476 776 l 1,10,-1
 363 776 l 1,11,-1
 363 0 l 1,12,-1
 250 0 l 1,13,-1
 250 776 l 1,14,-1
 110 776 l 1,15,16
 110 911 110 911 177 1024 c 128,-1,17
 244 1137 244 1137 357.5 1201.5 c 128,-1,18
 471 1266 471 1266 604 1266 c 128,-1,19
 737 1266 737 1266 850.5 1201 c 128,-1,20
 964 1136 964 1136 1031 1023 c 128,-1,21
 1098 910 1098 910 1098 776 c 2,22,-1
 1098 0 l 1,23,-1
 985 0 l 1,24,-1
 985 776 l 2,0,1
EndSplineSet
EndChar

StartChar: uni0E02
Encoding: 3586 3586 125
Width: 1173
VWidth: 2045
Flags: W
HStem: 0 112<348 460 573 912> 761 112<225.981 374.323> 1154 112<354.038 536.948>
VStem: 102 113<884.63 1028.35> 385 113<883.92 1031.17> 460 113<112 676.79> 610 113<806.249 1082.41> 912 113<112 1254>
LayerCount: 3
Fore
SplineSet
610 958 m 0xf7
 610 1067 523 1154 412 1154 c 0
 391 1154 371 1151 351 1145 c 1
 410 1131 498 1066 498 956 c 0xfb
 498 850 411 761 300 761 c 0
 187 761 102 851 102 956 c 0
 102 1125 237 1266 412 1266 c 0
 589 1266 723 1125 723 954 c 0
 723 731 573 722 573 510 c 2
 573 112 l 17
 912 112 l 25
 912 1254 l 1
 1025 1254 l 1
 1025 0 l 9
 348 0 l 1
 348 112 l 1
 460 112 l 25
 460 510 l 2
 460 770 610 765 610 958 c 0xf7
301 1042 m 0
 252 1042 215 1002 215 958 c 0
 215 913 252 873 301 873 c 0
 345 873 385 908 385 958 c 0
 385 1002 350 1042 301 1042 c 0
EndSplineSet
Validated: 1
Layer: 2
SplineSet
610 958 m 0,0,1
 610 1040 610 1040 552.5 1097 c 128,-1,2
 495 1154 495 1154 412 1154 c 0,3,4
 381 1154 381 1154 351 1145 c 1,5,6
 404 1132 404 1132 451 1081.5 c 128,-1,7
 498 1031 498 1031 498 956 c 0,8,9
 498 876 498 876 440.5 818.5 c 128,-1,10
 383 761 383 761 300 761 c 0,11,12
 216 761 216 761 159 818.5 c 128,-1,13
 102 876 102 876 102 956 c 0,14,15
 102 1084 102 1084 192 1175 c 128,-1,16
 282 1266 282 1266 412 1266 c 0,17,18
 544 1266 544 1266 633.5 1174.5 c 128,-1,19
 723 1083 723 1083 723 954 c 0,20,21
 723 893 723 893 707.5 844 c 128,-1,22
 692 795 692 795 670 761.5 c 128,-1,23
 648 728 648 728 626 695 c 128,-1,24
 604 662 604 662 588.5 615 c 128,-1,25
 573 568 573 568 573 510 c 2,26,-1
 573 112 l 1,27,-1
 912 112 l 1,28,-1
 912 1254 l 1,29,-1
 1025 1254 l 1,30,-1
 1025 0 l 1,31,-1
 348 0 l 1,32,-1
 348 112 l 1,33,-1
 460 112 l 1,34,-1
 460 510 l 2,35,36
 460 582 460 582 475.5 637 c 128,-1,37
 491 692 491 692 513 726 c 128,-1,38
 535 760 535 760 557 791 c 128,-1,39
 579 822 579 822 594.5 863.5 c 128,-1,40
 610 905 610 905 610 958 c 0,0,1
301 1042 m 128,-1,42
 265 1042 265 1042 240 1017 c 128,-1,43
 215 992 215 992 215 958 c 128,-1,44
 215 924 215 924 240 898.5 c 128,-1,45
 265 873 265 873 301 873 c 0,46,47
 335 873 335 873 360 897 c 128,-1,48
 385 921 385 921 385 958 c 0,49,50
 385 992 385 992 361 1017 c 128,-1,41
 337 1042 337 1042 301 1042 c 128,-1,42
EndSplineSet
EndChar

StartChar: uni0E03
Encoding: 3587 3587 126
Width: 1248
VWidth: 2045
Flags: W
HStem: 0 112<421 534 647 985> 644 112<250.56 398.352> 924 112<250.038 398.361> 1246 8G<274 372.771 577.711 656 985 1098>
VStem: 85 154<768.22 1021.16> 409 113<766.212 912.53> 534 113<112 676.485> 690 113<815.746 1106.96> 985 113<112 1254>
LayerCount: 3
Fore
SplineSet
534 510 m 2
 534 769 690 781 690 955 c 0
 690 1079 631 1130 613 1136 c 1
 476 1051 l 1
 326 1142 l 17
 307 1138 221 1088 198 988 c 1
 247 1020 289 1036 325 1036 c 0
 436 1036 522 947 522 839 c 0
 522 731 434 644 325 644 c 0
 229 644 85 702 85 934 c 0
 85 1126 208 1232 340 1266 c 1
 476 1183 l 1
 610 1266 l 1
 702 1234 803 1114 803 962 c 0
 803 742 647 722 647 510 c 2
 647 112 l 1
 985 112 l 1
 985 1254 l 25
 1098 1254 l 17
 1098 0 l 1
 421 0 l 1
 421 112 l 1
 534 112 l 1
 534 510 l 2
325 924 m 0
 275 924 239 884 239 839 c 0
 239 789 281 756 325 756 c 0
 374 756 409 793 409 839 c 0
 409 888 370 924 325 924 c 0
EndSplineSet
Validated: 1
Layer: 2
SplineSet
534 510 m 2,0,1
 534 582 534 582 550 638 c 128,-1,2
 566 694 566 694 589 729.5 c 128,-1,3
 612 765 612 765 635 796.5 c 128,-1,4
 658 828 658 828 674 868 c 128,-1,5
 690 908 690 908 690 955 c 0,6,7
 690 1011 690 1011 673.5 1054.5 c 128,-1,8
 657 1098 657 1098 641 1115 c 128,-1,9
 625 1132 625 1132 613 1136 c 1,10,-1
 476 1051 l 1,11,-1
 326 1142 l 1,12,13
 301 1137 301 1137 257 1095 c 128,-1,14
 213 1053 213 1053 198 988 c 1,15,16
 271 1036 271 1036 325 1036 c 0,17,18
 408 1036 408 1036 465 978.5 c 128,-1,19
 522 921 522 921 522 839 c 0,20,21
 522 758 522 758 464.5 701 c 128,-1,22
 407 644 407 644 325 644 c 0,23,24
 285 644 285 644 246.5 657.5 c 128,-1,25
 208 671 208 671 170 701 c 128,-1,26
 132 731 132 731 108.5 791.5 c 128,-1,27
 85 852 85 852 85 934 c 0,28,29
 85 1069 85 1069 158 1153.5 c 128,-1,30
 231 1238 231 1238 340 1266 c 1,31,-1
 476 1183 l 1,32,-1
 610 1266 l 1,33,34
 685 1240 685 1240 744 1155 c 128,-1,35
 803 1070 803 1070 803 962 c 0,36,37
 803 901 803 901 787 852 c 128,-1,38
 771 803 771 803 748 768 c 128,-1,39
 725 733 725 733 702 698.5 c 128,-1,40
 679 664 679 664 663 616 c 128,-1,41
 647 568 647 568 647 510 c 2,42,-1
 647 112 l 1,43,-1
 985 112 l 1,44,-1
 985 1254 l 1,45,-1
 1098 1254 l 1,46,-1
 1098 0 l 1,47,-1
 421 0 l 1,48,-1
 421 112 l 1,49,-1
 534 112 l 1,50,-1
 534 510 l 2,0,1
325 924 m 0,51,52
 288 924 288 924 263.5 899 c 128,-1,53
 239 874 239 874 239 839 c 0,54,55
 239 803 239 803 265 779.5 c 128,-1,56
 291 756 291 756 325 756 c 0,57,58
 361 756 361 756 385 780 c 128,-1,59
 409 804 409 804 409 839 c 0,60,61
 409 875 409 875 384 899.5 c 128,-1,62
 359 924 359 924 325 924 c 0,51,52
EndSplineSet
EndChar

StartChar: uni0E04
Encoding: 3588 3588 127
Width: 1301
VWidth: 2045
Flags: W
HStem: 0 21G<171 290.992 1018 1131> 549 112<573.065 723.886> 827 112<573.954 722.218> 1154 112<477.667 824.333>
VStem: 171 113<290 959.846> 733 113<672.743 816.104> 1018 113<0 959.846>
DStem2: 284 290 284 0 0.330009 0.943978<0 377.745>
LayerCount: 3
Fore
SplineSet
651 1266 m 0
 914 1266 1131 1056 1131 788 c 2
 1131 0 l 1
 1018 0 l 1
 1018 788 l 2
 1018 1002 846 1154 651 1154 c 0
 456 1154 284 1002 284 788 c 2
 284 290 l 17
 463 816 l 18
 476 855 537 939 648 939 c 0
 759 939 846 852 846 744 c 0
 846 630 754 549 648 549 c 0
 559 549 510 601 499 615 c 9
 284 0 l 9
 171 0 l 17
 171 788 l 2
 171 1056 388 1266 651 1266 c 0
648 827 m 0
 600 827 564 788 564 743 c 0
 564 698 600 661 648 661 c 0
 692 661 733 694 733 743 c 0
 733 788 697 827 648 827 c 0
EndSplineSet
Validated: 1
Layer: 2
SplineSet
651 1266 m 128,-1,1
 781 1266 781 1266 891 1203 c 128,-1,2
 1001 1140 1001 1140 1066 1029.5 c 128,-1,3
 1131 919 1131 919 1131 788 c 2,4,-1
 1131 0 l 1,5,-1
 1018 0 l 1,6,-1
 1018 788 l 2,7,8
 1018 945 1018 945 909.5 1049.5 c 128,-1,9
 801 1154 801 1154 651 1154 c 128,-1,10
 501 1154 501 1154 392.5 1049.5 c 128,-1,11
 284 945 284 945 284 788 c 2,12,-1
 284 290 l 1,13,-1
 463 816 l 2,14,15
 477 857 477 857 525.5 898 c 128,-1,16
 574 939 574 939 648 939 c 0,17,18
 731 939 731 939 788.5 882 c 128,-1,19
 846 825 846 825 846 744 c 0,20,21
 846 660 846 660 787.5 604.5 c 128,-1,22
 729 549 729 549 648 549 c 0,23,24
 608 549 608 549 572.5 563.5 c 128,-1,25
 537 578 537 578 522.5 590.5 c 128,-1,26
 508 603 508 603 499 615 c 1,27,-1
 284 0 l 1,28,-1
 171 0 l 1,29,-1
 171 788 l 2,30,31
 171 919 171 919 236 1029.5 c 128,-1,32
 301 1140 301 1140 411 1203 c 128,-1,0
 521 1266 521 1266 651 1266 c 128,-1,1
648 827 m 0,33,34
 613 827 613 827 588.5 802 c 128,-1,35
 564 777 564 777 564 743 c 128,-1,36
 564 709 564 709 588 685 c 128,-1,37
 612 661 612 661 648 661 c 0,38,39
 682 661 682 661 707.5 684 c 128,-1,40
 733 707 733 707 733 743 c 0,41,42
 733 777 733 777 708.5 802 c 128,-1,43
 684 827 684 827 648 827 c 0,33,34
EndSplineSet
EndChar

StartChar: uni0E05
Encoding: 3589 3589 128
Width: 1301
VWidth: 2045
Flags: W
HStem: 0 21G<175 295.196 1018 1131> 521 112<578.584 724.986> 803 112<578.29 724.743> 1246 20G<369 449.993 854.272 932.5>
VStem: 175 113<290 1075.84> 736 113<644.471 791.942> 1018 113<0 1075.62>
DStem2: 288 290 288 0 0.338551 0.940948<0 356.278> 419 1266 409 1142 0.840954 -0.541106<39.2619 278.49> 653 1115 653 985 0.839941 0.542678<0 238.115>
LayerCount: 3
Fore
SplineSet
409 1142 m 17
 366 1121 288 1060 288 939 c 2
 288 290 l 17
 467 791 l 18
 481 831 541 915 652 915 c 0
 760 915 849 828 849 718 c 0
 849 610 761 521 652 521 c 0
 558 521 518 581 501 592 c 9
 288 0 l 1
 175 0 l 9
 175 939 l 2
 175 1135 319 1238 419 1266 c 9
 653 1115 l 1
 885 1266 l 17
 980 1239 1131 1135 1131 939 c 2
 1131 0 l 1
 1018 0 l 1
 1018 939 l 2
 1018 1061 935 1122 896 1142 c 9
 653 985 l 1
 409 1142 l 17
652 803 m 0
 602 803 568 762 568 718 c 0
 568 669 607 633 652 633 c 0
 702 633 736 674 736 718 c 0
 736 767 697 803 652 803 c 0
EndSplineSet
Validated: 1
Layer: 2
SplineSet
409 1142 m 17,0,1
 364 1120 364 1120 326 1069.5 c 128,-1,2
 288 1019 288 1019 288 939 c 2,3,-1
 288 290 l 1,4,-1
 467 791 l 2,5,6
 482 833 482 833 530 874 c 128,-1,7
 578 915 578 915 652 915 c 0,8,9
 733 915 733 915 791 857.5 c 128,-1,10
 849 800 849 800 849 718 c 0,11,12
 849 637 849 637 791.5 579 c 128,-1,13
 734 521 734 521 652 521 c 0,14,15
 620 521 620 521 591 531 c 128,-1,16
 562 541 562 541 547.5 552 c 128,-1,17
 533 563 533 563 518.5 576.5 c 128,-1,18
 504 590 504 590 501 592 c 2,19,-1
 288 0 l 1,20,-1
 175 0 l 1,21,-1
 175 939 l 2,22,23
 175 1009 175 1009 198.5 1068 c 128,-1,24
 222 1127 222 1127 260 1166 c 128,-1,25
 298 1205 298 1205 338 1230 c 128,-1,26
 378 1255 378 1255 419 1266 c 1,27,-1
 653 1115 l 1,28,-1
 885 1266 l 1,29,30
 924 1255 924 1255 964 1230.5 c 128,-1,31
 1004 1206 1004 1206 1043 1167 c 128,-1,32
 1082 1128 1082 1128 1106.5 1068 c 128,-1,33
 1131 1008 1131 1008 1131 939 c 2,34,-1
 1131 0 l 1,35,-1
 1018 0 l 1,36,-1
 1018 939 l 2,37,38
 1018 1019 1018 1019 979 1069 c 128,-1,39
 940 1119 940 1119 896 1142 c 1,40,-1
 653 985 l 1,41,-1
 409 1142 l 17,0,1
652 803 m 0,42,43
 616 803 616 803 592 777.5 c 128,-1,44
 568 752 568 752 568 718 c 0,45,46
 568 682 568 682 593 657.5 c 128,-1,47
 618 633 618 633 652 633 c 0,48,49
 688 633 688 633 712 658.5 c 128,-1,50
 736 684 736 684 736 718 c 0,51,52
 736 754 736 754 711 778.5 c 128,-1,53
 686 803 686 803 652 803 c 0,42,43
EndSplineSet
EndChar

StartChar: uni0E06
Encoding: 3590 3590 129
Width: 1519
VWidth: 2045
Flags: W
HStem: -12 112<423.409 571.446> 268 112<423.089 572.247> 645 113<299.374 446.693> 926 110<298.712 446.336> 1246 8G<323 421.53 626.47 704.5 1235 1348>
VStem: 134 154<769.326 1020.5> 299 113<111.525 256.684> 457 113<767.712 916.264> 582 113<114.956 205.041 361 676.718> 740 113<815.307 1106.38> 1235 113<112 1254>
DStem2: 695 317 695 206 0.934374 -0.356293<39.5485 577.602>
LayerCount: 3
Fore
SplineSet
374 926 m 0
 321 926 288 884 288 841 c 0
 288 791 328 758 374 758 c 0
 423 758 457 795 457 841 c 0
 457 886 424 926 374 926 c 0
582 510 m 2
 582 767 740 781 740 952 c 0
 740 1079 680 1130 662 1136 c 1
 524 1051 l 1
 375 1142 l 17
 356 1138 270 1088 247 988 c 1
 296 1020 338 1036 374 1036 c 0
 482 1036 570 948 570 840 c 0
 570 732 482 645 374 645 c 0
 278 645 134 702 134 934 c 0
 134 1123 257 1232 389 1266 c 1
 524 1183 l 1
 659 1266 l 1
 750 1233 853 1117 853 962 c 0
 853 743 695 722 695 510 c 2
 695 317 l 25
 1235 112 l 9
 1235 1254 l 1
 1348 1254 l 1
 1348 0 l 1
 1235 0 l 1
 695 206 l 17
 695 15 552 -12 498 -12 c 0
 386 -12 299 76 299 184 c 0
 299 291 387 380 497 380 c 0
 528 380 556 373 582 361 c 9
 582 510 l 2
497 268 m 0
 449 268 412 231 412 185 c 0
 412 136 452 100 497 100 c 0
 546 100 582 140 582 185 c 0
 582 235 542 268 497 268 c 0
EndSplineSet
Validated: 1
Layer: 2
SplineSet
374 926 m 0,0,1
 336 926 336 926 312 900.5 c 128,-1,2
 288 875 288 875 288 841 c 0,3,4
 288 804 288 804 313 781 c 128,-1,5
 338 758 338 758 374 758 c 128,-1,6
 410 758 410 758 433.5 782 c 128,-1,7
 457 806 457 806 457 841 c 128,-1,8
 457 876 457 876 433.5 901 c 128,-1,9
 410 926 410 926 374 926 c 0,0,1
582 510 m 2,10,11
 582 581 582 581 598.5 637 c 128,-1,12
 615 693 615 693 638 728.5 c 128,-1,13
 661 764 661 764 684 795.5 c 128,-1,14
 707 827 707 827 723.5 866 c 128,-1,15
 740 905 740 905 740 952 c 0,16,17
 740 1010 740 1010 723.5 1054 c 128,-1,18
 707 1098 707 1098 690.5 1115 c 128,-1,19
 674 1132 674 1132 662 1136 c 1,20,-1
 524 1051 l 1,21,-1
 375 1142 l 1,22,23
 350 1137 350 1137 306 1095 c 128,-1,24
 262 1053 262 1053 247 988 c 1,25,26
 320 1036 320 1036 374 1036 c 0,27,28
 455 1036 455 1036 512.5 978.5 c 128,-1,29
 570 921 570 921 570 840 c 128,-1,30
 570 759 570 759 512.5 702 c 128,-1,31
 455 645 455 645 374 645 c 0,32,33
 343 645 343 645 312 652.5 c 128,-1,34
 281 660 281 660 248 680.5 c 128,-1,35
 215 701 215 701 190.5 732 c 128,-1,36
 166 763 166 763 150 815 c 128,-1,37
 134 867 134 867 134 934 c 0,38,39
 134 1067 134 1067 207.5 1152.5 c 128,-1,40
 281 1238 281 1238 389 1266 c 1,41,-1
 524 1183 l 1,42,-1
 659 1266 l 1,43,44
 734 1239 734 1239 793.5 1155 c 128,-1,45
 853 1071 853 1071 853 962 c 0,46,47
 853 902 853 902 836.5 852.5 c 128,-1,48
 820 803 820 803 797 768 c 128,-1,49
 774 733 774 733 751 698.5 c 128,-1,50
 728 664 728 664 711.5 616 c 128,-1,51
 695 568 695 568 695 510 c 2,52,-1
 695 317 l 1,53,-1
 1235 112 l 1,54,-1
 1235 1254 l 1,55,-1
 1348 1254 l 1,56,-1
 1348 0 l 1,57,-1
 1235 0 l 1,58,-1
 695 206 l 1,59,60
 695 152 695 152 679.5 110.5 c 128,-1,61
 664 69 664 69 641.5 46.5 c 128,-1,62
 619 24 619 24 590 10 c 128,-1,63
 561 -4 561 -4 539.5 -8 c 128,-1,64
 518 -12 518 -12 498 -12 c 0,65,66
 414 -12 414 -12 356.5 45.5 c 128,-1,67
 299 103 299 103 299 184 c 128,-1,68
 299 265 299 265 357 322.5 c 128,-1,69
 415 380 415 380 497 380 c 0,70,71
 541 380 541 380 582 361 c 1,72,-1
 582 510 l 2,10,11
497 268 m 0,73,74
 461 268 461 268 436.5 244 c 128,-1,75
 412 220 412 220 412 185 c 0,76,77
 412 149 412 149 437.5 124.5 c 128,-1,78
 463 100 463 100 497 100 c 0,79,80
 533 100 533 100 557.5 125.5 c 128,-1,81
 582 151 582 151 582 185 c 0,82,83
 582 221 582 221 557 244.5 c 128,-1,84
 532 268 532 268 497 268 c 0,73,74
EndSplineSet
EndChar

StartChar: uni0E07
Encoding: 3591 3591 130
Width: 977
VWidth: 2045
Flags: W
HStem: 0 21G<670.608 803> 873 112<532.993 679.813> 1154 112<532.104 678.749>
VStem: 408 113<995.636 1142.78> 690 113<160 891 994.66 1143.38>
DStem2: 166 704 84 625 0.69611 -0.717935<0 755.318>
LayerCount: 3
Fore
SplineSet
408 1070 m 0
 408 1179 496 1266 606 1266 c 0
 712 1266 803 1183 803 1069 c 2
 803 0 l 1
 690 0 l 9
 84 625 l 1
 166 704 l 1
 690 160 l 17
 690 891 l 1
 664 879 636 873 605 873 c 0
 499 873 408 956 408 1070 c 0
607 985 m 0
 655 985 690 1025 690 1070 c 0
 690 1114 655 1154 607 1154 c 0
 558 1154 521 1114 521 1070 c 0
 521 1025 558 985 607 985 c 0
EndSplineSet
Validated: 1
Layer: 2
SplineSet
408 1070 m 0,0,1
 408 1152 408 1152 465.5 1209 c 128,-1,2
 523 1266 523 1266 606 1266 c 0,3,4
 687 1266 687 1266 745 1209.5 c 128,-1,5
 803 1153 803 1153 803 1069 c 2,6,-1
 803 0 l 1,7,-1
 690 0 l 1,8,-1
 84 625 l 1,9,-1
 166 704 l 1,10,-1
 690 160 l 1,11,-1
 690 891 l 1,12,13
 651 873 651 873 605 873 c 0,14,15
 524 873 524 873 466 929.5 c 128,-1,16
 408 986 408 986 408 1070 c 0,0,1
607 985 m 0,17,18
 642 985 642 985 666 1010.5 c 128,-1,19
 690 1036 690 1036 690 1070 c 128,-1,20
 690 1104 690 1104 666 1129 c 128,-1,21
 642 1154 642 1154 607 1154 c 0,22,23
 571 1154 571 1154 546 1129 c 128,-1,24
 521 1104 521 1104 521 1070 c 128,-1,25
 521 1036 521 1036 546 1010.5 c 128,-1,26
 571 985 571 985 607 985 c 0,17,18
EndSplineSet
EndChar

StartChar: uni0E08
Encoding: 3592 3592 131
Width: 1202
VWidth: 2045
Flags: W
HStem: 0 21G<796.979 918.12> 522 112<495.303 642.69> 801 112<493.821 642.318> 1154 112<394.203 741.997>
VStem: 74 113<776 948.189> 371 113<644.841 790.426> 949 113<621.488 944.631>
DStem2: 763 755 688 562 0.197122 -0.980379<174.429 483.623> 859 281 914 0 0.201778 0.979431<0 501.46>
LayerCount: 3
Fore
SplineSet
568 1154 m 256
 358 1154 187 985 187 776 c 9
 74 776 l 17
 74 1032 284 1266 568 1266 c 256
 853 1266 1062 1047 1062 776 c 16
 1062 742 1058 697 1051 665 c 10
 914 0 l 1
 801 0 l 1
 688 562 l 17
 654 536 615 522 570 522 c 0
 460 522 371 610 371 718 c 0
 371 827 462 913 571 913 c 0
 672 913 746 837 763 755 c 2
 859 281 l 25
 943 686 l 2
 947 705 949 743 949 776 c 8
 949 985 778 1154 568 1154 c 256
570 801 m 0
 520 801 484 763 484 718 c 0
 484 673 519 634 568 634 c 0
 617 634 653 672 653 718 c 0
 653 763 618 801 570 801 c 0
EndSplineSet
Validated: 1
Layer: 2
SplineSet
568 1154 m 256,0,1
 410 1154 410 1154 298.5 1043.5 c 128,-1,2
 187 933 187 933 187 776 c 1,3,-1
 74 776 l 1,4,5
 74 904 74 904 137.5 1016 c 128,-1,6
 201 1128 201 1128 315.5 1197 c 128,-1,7
 430 1266 430 1266 568 1266 c 0,8,9
 708 1266 708 1266 821.5 1200.5 c 128,-1,10
 935 1135 935 1135 998.5 1022.5 c 128,-1,11
 1062 910 1062 910 1062 776 c 0,12,13
 1062 715 1062 715 1051 665 c 2,14,-1
 914 0 l 1,15,-1
 801 0 l 1,16,-1
 688 562 l 1,17,18
 636 522 636 522 570 522 c 0,19,20
 488 522 488 522 429.5 579.5 c 128,-1,21
 371 637 371 637 371 718 c 128,-1,22
 371 799 371 799 430 856 c 128,-1,23
 489 913 489 913 571 913 c 0,24,25
 644 913 644 913 697 866.5 c 128,-1,26
 750 820 750 820 763 755 c 2,27,-1
 859 281 l 1,28,-1
 943 686 l 2,29,30
 949 715 949 715 949 776 c 0,31,32
 949 933 949 933 837.5 1043.5 c 128,-1,33
 726 1154 726 1154 568 1154 c 256,0,1
570 801 m 0,34,35
 533 801 533 801 508.5 776.5 c 128,-1,36
 484 752 484 752 484 718 c 128,-1,37
 484 684 484 684 508 659 c 128,-1,38
 532 634 532 634 568 634 c 128,-1,39
 604 634 604 634 628.5 658.5 c 128,-1,40
 653 683 653 683 653 718 c 0,41,42
 653 752 653 752 629 776.5 c 128,-1,43
 605 801 605 801 570 801 c 0,34,35
EndSplineSet
EndChar

StartChar: uni0E09
Encoding: 3593 3593 132
Width: 1293
VWidth: 2045
Flags: W
HStem: -12 112<970.648 1118.52> 396 112<297.797 447.881> 674 112<298.573 445.881> 1154 112<431.848 780.153>
VStem: 130 108<903.752 973.593> 175 113<519.128 662.999> 457 113<127 414 517.024 662.812> 847 113<111.787 172> 988 113<372 949.07> 1128 113<110.934 258.826>
DStem2: 570 127 570 0 0.850122 0.526585<0 259.18>
LayerCount: 3
Fore
SplineSet
605 1154 m 280xf7c0
 416 1154 275 1019 238 876 c 9
 130 908 l 17xfbc0
 179 1092 360 1266 605 1266 c 280
 893 1266 1101 1032 1101 776 c 2
 1101 372 l 17
 1132 363 1241 316 1241 184 c 0
 1241 76 1156 -12 1046 -12 c 0
 932 -12 851 78 847 172 c 1
 570 0 l 1
 457 0 l 1
 457 414 l 17
 432 402 403 396 372 396 c 0
 261 396 175 485 175 591 c 0
 175 698 262 786 372 786 c 0
 492 786 570 689 570 591 c 2
 570 127 l 1
 951 363 l 2
 962 369 974 372 988 372 c 9
 988 776 l 2
 988 987 816 1154 605 1154 c 280xf7c0
374 674 m 0
 324 674 288 636 288 590 c 0xf7c0
 288 541 328 508 374 508 c 0
 422 508 457 545 457 590 c 0
 457 636 422 674 374 674 c 0
1044 268 m 0
 995 268 960 230 960 184 c 0
 960 135 999 100 1044 100 c 0
 1094 100 1128 140 1128 184 c 0
 1128 230 1093 268 1044 268 c 0
EndSplineSet
Validated: 1
Layer: 2
SplineSet
605 1154 m 280,0,1
 470 1154 470 1154 368.5 1072 c 128,-1,2
 267 990 267 990 238 876 c 1,3,-1
 130 908 l 1,4,5
 169 1055 169 1055 299.5 1160.5 c 128,-1,6
 430 1266 430 1266 605 1266 c 0,7,8
 745 1266 745 1266 860 1197 c 128,-1,9
 975 1128 975 1128 1038 1016 c 128,-1,10
 1101 904 1101 904 1101 776 c 2,11,-1
 1101 372 l 1,12,13
 1117 367 1117 367 1136.5 356.5 c 128,-1,14
 1156 346 1156 346 1182 325 c 128,-1,15
 1208 304 1208 304 1224.5 267 c 128,-1,16
 1241 230 1241 230 1241 184 c 0,17,18
 1241 103 1241 103 1184.5 45.5 c 128,-1,19
 1128 -12 1128 -12 1046 -12 c 0,20,21
 963 -12 963 -12 906.5 43.5 c 128,-1,22
 850 99 850 99 847 172 c 1,23,-1
 570 0 l 1,24,-1
 457 0 l 1,25,-1
 457 414 l 1,26,27
 420 396 420 396 372 396 c 0,28,29
 289 396 289 396 232 453.5 c 128,-1,30
 175 511 175 511 175 591 c 0,31,32
 175 672 175 672 232.5 729 c 128,-1,33
 290 786 290 786 372 786 c 0,34,35
 459 786 459 786 514.5 727 c 128,-1,36
 570 668 570 668 570 591 c 2,37,-1
 570 127 l 1,38,-1
 951 363 l 2,39,40
 967 372 967 372 988 372 c 1,41,-1
 988 776 l 2,42,43
 988 934 988 934 876 1044 c 128,-1,44
 764 1154 764 1154 605 1154 c 280,0,1
374 674 m 0,45,46
 337 674 337 674 312.5 649.5 c 128,-1,47
 288 625 288 625 288 590 c 0,48,49
 288 554 288 554 313.5 531 c 128,-1,50
 339 508 339 508 374 508 c 0,51,52
 410 508 410 508 433.5 532 c 128,-1,53
 457 556 457 556 457 590 c 0,54,55
 457 625 457 625 433.5 649.5 c 128,-1,56
 410 674 410 674 374 674 c 0,45,46
1044 268 m 128,-1,58
 1008 268 1008 268 984 243.5 c 128,-1,59
 960 219 960 219 960 184 c 0,60,61
 960 148 960 148 985 124 c 128,-1,62
 1010 100 1010 100 1044 100 c 0,63,64
 1080 100 1080 100 1104 125 c 128,-1,65
 1128 150 1128 150 1128 184 c 0,66,67
 1128 219 1128 219 1104 243.5 c 128,-1,57
 1080 268 1080 268 1044 268 c 128,-1,58
EndSplineSet
EndChar

StartChar: uni0E0A
Encoding: 3594 3594 133
Width: 1192
VWidth: 2045
Flags: W
HStem: 0 112<348 460 573 912> 761 112<225.729 373.184> 1154 112<354.038 536.114>
VStem: 102 113<884.135 1028.84> 383 113<883.92 1031.17> 460 113<112 715.449> 610 113<836.675 1082.01> 912 113<112 923.855> 1025 113<1258.17 1447>
LayerCount: 3
Fore
SplineSet
1138 1447 m 17xf280
 1138 1190 972 1047 933 1018 c 1
 953 1001 1025 946 1025 837 c 2xf3
 1025 0 l 1
 348 0 l 1
 348 112 l 1
 460 112 l 1
 460 601 l 2xf680
 460 806 610 802 610 958 c 0
 610 1070 520 1154 412 1154 c 0
 391 1154 371 1151 351 1145 c 1
 410 1131 496 1066 496 956 c 0xfa
 496 850 411 761 300 761 c 0
 187 761 102 851 102 956 c 0
 102 1125 237 1266 412 1266 c 0
 588 1266 723 1125 723 958 c 0
 723 743 573 751 573 601 c 2
 573 112 l 1
 912 112 l 1
 912 837 l 2xf7
 912 897 864 949 799 949 c 1
 799 1060 l 1
 922 1132 1024 1268 1025 1447 c 9
 1138 1447 l 17xf280
299 1042 m 0
 250 1042 215 1002 215 958 c 0
 215 913 250 873 299 873 c 0
 343 873 383 908 383 958 c 0xfa
 383 1002 348 1042 299 1042 c 0
EndSplineSet
Validated: 1
Layer: 2
SplineSet
1138 1447 m 17,0,1
 1138 1374 1138 1374 1120 1306.5 c 128,-1,2
 1102 1239 1102 1239 1077.5 1193.5 c 128,-1,3
 1053 1148 1053 1148 1021.5 1107.5 c 128,-1,4
 990 1067 990 1067 970 1049 c 128,-1,5
 950 1031 950 1031 933 1018 c 1,6,7
 987.383992397 971.773606463 987.383992397 971.773606463 1007.9961086 923.137909902 c 0,8,9
 1025 883.016066302 1025 883.016066302 1025 837 c 2,10,-1
 1025 0 l 1,11,-1
 348 0 l 1,12,-1
 348 112 l 1,13,-1
 460 112 l 1,14,-1
 460 601 l 2,15,16
 460 658 460 658 475.5 701 c 128,-1,17
 491 744 491 744 513 771 c 128,-1,18
 535 798 535 798 557 823 c 128,-1,19
 579 848 579 848 594.5 881.5 c 128,-1,20
 610 915 610 915 610 958 c 0,21,22
 610 1041 610 1041 552 1097.5 c 128,-1,23
 494 1154 494 1154 412 1154 c 0,24,25
 381 1154 381 1154 351 1145 c 1,26,27
 404 1132 404 1132 450 1081.5 c 128,-1,28
 496 1031 496 1031 496 956 c 0,29,30
 496 876 496 876 439 818.5 c 128,-1,31
 382 761 382 761 300 761 c 0,32,33
 216 761 216 761 159 818.5 c 128,-1,34
 102 876 102 876 102 956 c 0,35,36
 102 1084 102 1084 192 1175 c 128,-1,37
 282 1266 282 1266 412 1266 c 0,38,39
 543 1266 543 1266 633 1175.5 c 128,-1,40
 723 1085 723 1085 723 958 c 0,41,42
 723 899 723 899 707.5 854 c 128,-1,43
 692 809 692 809 670 782 c 128,-1,44
 648 755 648 755 626 730.5 c 128,-1,45
 604 706 604 706 588.5 674 c 128,-1,46
 573 642 573 642 573 601 c 2,47,-1
 573 112 l 1,48,-1
 912 112 l 1,49,-1
 912 837 l 2,50,51
 912 883 912 883 879.5 916 c 128,-1,52
 847 949 847 949 799 949 c 1,53,-1
 799 1060 l 1,54,55
 898 1118 898 1118 961 1218.5 c 128,-1,56
 1024 1319 1024 1319 1025 1447 c 1,57,-1
 1138 1447 l 17,0,1
299 1042 m 128,-1,59
 263 1042 263 1042 239 1017 c 128,-1,60
 215 992 215 992 215 958 c 0,61,62
 215 923 215 923 239 898 c 128,-1,63
 263 873 263 873 299 873 c 0,64,65
 333 873 333 873 358 897 c 128,-1,66
 383 921 383 921 383 958 c 0,67,68
 383 992 383 992 359 1017 c 128,-1,58
 335 1042 335 1042 299 1042 c 128,-1,59
EndSplineSet
EndChar

StartChar: uni0E0B
Encoding: 3595 3595 134
Width: 1192
VWidth: 2045
Flags: W
HStem: 0 112<363 476 589 927> 644 112<193.285 340.989> 924 112<193.239 340.586> 1246 20G<221 316.289 519.711 585.5>
VStem: 29 154<771.662 1022.7> 351 113<766.848 913.167> 476 113<112 687.274> 646 113<827.559 1088.42> 927 113<112 926.204> 1040 113<1258.17 1447>
LayerCount: 3
Fore
SplineSet
948 1018 m 1xff40
 1010 965 1040 909 1040 837 c 2xff80
 1040 0 l 1xff40
 363 0 l 1
 363 112 l 1
 476 112 l 1
 476 560 l 2
 476 790 646 777 646 956 c 0
 646 1064 579 1118 555 1136 c 1
 418 1051 l 1
 268 1142 l 17
 216 1118 164 1063 148 997 c 1
 183 1023 223 1036 268 1036 c 0
 378 1036 464 949 464 840 c 0
 464 733 378 644 268 644 c 0
 128 644 29 790 29 939 c 0
 29 1117 158 1235 284 1266 c 1
 418 1183 l 1
 552 1266 l 1
 619 1237 759 1143 759 958 c 0
 759 724 589 738 589 560 c 2
 589 112 l 1
 927 112 l 1
 927 837 l 2xff80
 927 897 879 949 814 949 c 1
 814 1060 l 1
 937 1132 1040 1268 1040 1447 c 9
 1153 1447 l 17
 1153 1190 987 1047 948 1018 c 1xff40
267 924 m 0
 217 924 183 883 183 839 c 0
 183 793 218 756 267 756 c 0
 316 756 351 793 351 839 c 0
 351 888 312 924 267 924 c 0
EndSplineSet
Validated: 1
Layer: 2
SplineSet
948 1018 m 1,0,1
 1040 939 1040 939 1040 837 c 2,2,-1
 1040 0 l 1,3,-1
 363 0 l 1,4,-1
 363 112 l 1,5,-1
 476 112 l 1,6,-1
 476 560 l 2,7,8
 476 624 476 624 493.5 671.5 c 128,-1,9
 511 719 511 719 536 748.5 c 128,-1,10
 561 778 561 778 586 804.5 c 128,-1,11
 611 831 611 831 628.5 869 c 128,-1,12
 646 907 646 907 646 956 c 0,13,14
 646 1068 646 1068 555 1136 c 1,15,-1
 418 1051 l 1,16,-1
 268 1142 l 1,17,18
 227 1123 227 1123 193.5 1084 c 128,-1,19
 160 1045 160 1045 148 997 c 1,20,21
 200.5 1036 200.5 1036 268 1036 c 0,22,23
 350 1036 350 1036 407 979 c 128,-1,24
 464 922 464 922 464 840 c 0,25,26
 464 759 464 759 407 701.5 c 128,-1,27
 350 644 350 644 268 644 c 0,28,29
 166 644 166 644 97.5 733.5 c 128,-1,30
 29 823 29 823 29 939 c 0,31,32
 29 1065 29 1065 105 1153 c 128,-1,33
 181 1241 181 1241 284 1266 c 1,34,-1
 418 1183 l 1,35,-1
 552 1266 l 1,36,37
 582 1253 582 1253 613.5 1230.5 c 128,-1,38
 645 1208 645 1208 680 1171.5 c 128,-1,39
 715 1135 715 1135 737 1079 c 128,-1,40
 759 1023 759 1023 759 958 c 128,-1,41
 759 893 759 893 741.5 844.5 c 128,-1,42
 724 796 724 796 699 767 c 128,-1,43
 674 738 674 738 649 711 c 128,-1,44
 624 684 624 684 606.5 646.5 c 128,-1,45
 589 609 589 609 589 560 c 2,46,-1
 589 112 l 1,47,-1
 927 112 l 1,48,-1
 927 837 l 2,49,50
 927 883 927 883 894.5 916 c 128,-1,51
 862 949 862 949 814 949 c 1,52,-1
 814 1060 l 1,53,54
 913 1118 913 1118 976.5 1219 c 128,-1,55
 1040 1320 1040 1320 1040 1447 c 1,56,-1
 1153 1447 l 1,57,58
 1153 1374 1153 1374 1135 1306.5 c 128,-1,59
 1117 1239 1117 1239 1092.5 1193.5 c 128,-1,60
 1068 1148 1068 1148 1036.5 1107.5 c 128,-1,61
 1005 1067 1005 1067 985 1049 c 128,-1,62
 965 1031 965 1031 948 1018 c 1,0,1
267 924 m 0,63,64
 231 924 231 924 207 898.5 c 128,-1,65
 183 873 183 873 183 839 c 0,66,67
 183 804 183 804 207 780 c 128,-1,68
 231 756 231 756 267 756 c 128,-1,69
 303 756 303 756 327 780 c 128,-1,70
 351 804 351 804 351 839 c 0,71,72
 351 875 351 875 326 899.5 c 128,-1,73
 301 924 301 924 267 924 c 0,63,64
EndSplineSet
EndChar

StartChar: uni0E0C
Encoding: 3596 3596 135
Width: 1863
VWidth: 2045
Flags: W
HStem: -12 112<374.501 523.299 884.658 1033.52> 267 112<372.846 523.39 884.746 984.786> 776 112<239 250 363 476> 1154 112<424.785 778.585>
VStem: 250 113<110.997 256.654 361 776> 534 113<111.8 255.816> 761 113<111.11 256.347> 985 113<378 944.23> 1043 113<109.459 185.105> 1564 113<124 1254>
DStem2: 1098 337 1156 187 0.909496 -0.415714<115.108 512.372>
LayerCount: 3
Fore
SplineSet
958 -12 m 0xfec0
 848 -12 761 76 761 184 c 0
 761 293 850 379 957 379 c 0
 968 379 977 379 985 378 c 9
 985 776 l 2
 985 988 810 1154 604 1154 c 256
 486 1154 315 1099 239 888 c 9
 476 888 l 1
 476 776 l 1
 363 776 l 17
 363 361 l 17
 389 373 417 379 448 379 c 0
 562 379 647 290 647 185 c 0
 647 78 562 -12 448 -12 c 0
 340 -12 250 73 250 184 c 10
 250 776 l 9
 110 776 l 1
 110 1052 336 1266 604 1266 c 256
 876 1266 1098 1046 1098 776 c 2
 1098 337 l 17xff40
 1564 124 l 25
 1564 1254 l 9
 1677 1254 l 17
 1677 0 l 17
 1564 0 l 1
 1156 187 l 17
 1156 66 1064 -12 958 -12 c 0xfec0
959 100 m 0
 1008 100 1043 137 1043 183 c 0xfec0
 1043 228 1008 267 959 267 c 0
 915 267 874 233 874 183 c 0
 874 137 911 100 959 100 c 0
448 100 m 0
 492 100 534 133 534 183 c 0
 534 227 498 267 448 267 c 0
 404 267 363 233 363 183 c 0
 363 137 400 100 448 100 c 0
EndSplineSet
Validated: 1
Layer: 2
SplineSet
958 -12 m 128,-1,1
 876 -12 876 -12 818.5 45.5 c 128,-1,2
 761 103 761 103 761 184 c 128,-1,3
 761 265 761 265 818.5 322 c 128,-1,4
 876 379 876 379 957 379 c 0,5,6
 977 379 977 379 985 378 c 1,7,-1
 985 776 l 2,8,9
 985 934 985 934 872.5 1044 c 128,-1,10
 760 1154 760 1154 604 1154 c 0,11,12
 555 1154 555 1154 506.5 1141.5 c 128,-1,13
 458 1129 458 1129 406.5 1101 c 128,-1,14
 355 1073 355 1073 310.5 1018 c 128,-1,15
 266 963 266 963 239 888 c 1,16,-1
 476 888 l 1,17,-1
 476 776 l 1,18,-1
 363 776 l 1,19,-1
 363 361 l 1,20,21
 402 379 402 379 448 379 c 0,22,23
 532 379 532 379 589.5 322 c 128,-1,24
 647 265 647 265 647 185 c 0,25,26
 647 104 647 104 589.5 46 c 128,-1,27
 532 -12 532 -12 448 -12 c 0,28,29
 366 -12 366 -12 308 44.5 c 128,-1,30
 250 101 250 101 250 184 c 2,31,-1
 250 776 l 1,32,-1
 110 776 l 1,33,34
 110 911 110 911 177.5 1024 c 128,-1,35
 245 1137 245 1137 358.5 1201.5 c 128,-1,36
 472 1266 472 1266 604 1266 c 0,37,38
 808 1266 808 1266 953 1122 c 128,-1,39
 1098 978 1098 978 1098 776 c 2,40,-1
 1098 337 l 1,41,-1
 1564 124 l 1,42,-1
 1564 1254 l 1,43,-1
 1677 1254 l 1,44,-1
 1677 0 l 1,45,-1
 1564 0 l 1,46,-1
 1156 187 l 1,47,48
 1156 99 1156 99 1098 43.5 c 128,-1,0
 1040 -12 1040 -12 958 -12 c 128,-1,1
959 100 m 128,-1,50
 995 100 995 100 1019 124 c 128,-1,51
 1043 148 1043 148 1043 183 c 0,52,53
 1043 217 1043 217 1019 242 c 128,-1,54
 995 267 995 267 959 267 c 0,55,56
 925 267 925 267 899.5 243 c 128,-1,57
 874 219 874 219 874 183 c 0,58,59
 874 148 874 148 898.5 124 c 128,-1,49
 923 100 923 100 959 100 c 128,-1,50
448 100 m 0,60,61
 482 100 482 100 508 123.5 c 128,-1,62
 534 147 534 147 534 183 c 0,63,64
 534 217 534 217 509.5 242 c 128,-1,65
 485 267 485 267 448 267 c 0,66,67
 414 267 414 267 388.5 243 c 128,-1,68
 363 219 363 219 363 183 c 0,69,70
 363 148 363 148 387.5 124 c 128,-1,71
 412 100 412 100 448 100 c 0,60,61
EndSplineSet
EndChar

StartChar: uni0E0D
Encoding: 3597 3597 136
Width: 1864
VWidth: 2045
Flags: W
HStem: -548 149<1034.39 1323.84> -231 112<1031.7 1179.46> -12 112<373.641 523.099 1098 1565> 267 112<374.009 523.423> 776 112<240 251 364 476> 1154 112<424.175 780.412>
VStem: 251 113<113.058 256.581 361 776> 534 113<111.11 255.934> 909 113<-389.145 -242.346> 985 113<112 946.233> 1191 115<-388.433 -242.341> 1565 113<-264.545 -101 112 1254>
LayerCount: 3
Fore
SplineSet
1232 -450 m 1xffb0
 1394 -438 1565 -301 1565 -101 c 9
 1678 -101 l 17
 1678 -347 1475 -548 1226 -548 c 0
 981 -548 909 -414 909 -326 c 0
 909 -197 1003 -119 1106 -119 c 0
 1215 -119 1306 -209 1306 -323 c 0
 1306 -370 1283 -413 1232 -450 c 1xffb0
1106 -231 m 0
 1062 -231 1022 -266 1022 -316 c 0
 1022 -366 1062 -399 1106 -399 c 0
 1155 -399 1191 -360 1191 -316 c 0
 1191 -271 1155 -231 1106 -231 c 0
604 1266 m 256
 873 1266 1098 1051 1098 776 c 2
 1098 112 l 1
 1565 112 l 1
 1565 1254 l 1
 1678 1254 l 1
 1678 0 l 17
 985 0 l 1
 985 776 l 2xff70
 985 985 814 1154 604 1154 c 256
 486 1154 316 1099 240 888 c 1
 476 888 l 1
 476 776 l 1
 364 776 l 1
 364 361 l 1
 391 373 419 379 449 379 c 0
 561 379 647 291 647 184 c 0
 647 76 561 -12 448 -12 c 0
 334 -12 251 78 251 184 c 2
 251 776 l 1
 110 776 l 1
 110 1046 332 1266 604 1266 c 256
449 267 m 0
 400 267 364 228 364 183 c 0
 364 133 404 100 449 100 c 0
 497 100 534 137 534 183 c 0
 534 233 493 267 449 267 c 0
EndSplineSet
Validated: 1
Layer: 2
SplineSet
1232 -450 m 1,0,1
 1361 -440 1361 -440 1463 -342 c 128,-1,2
 1565 -244 1565 -244 1565 -101 c 1,3,-1
 1678 -101 l 1,4,5
 1678 -222 1678 -222 1617.5 -325 c 128,-1,6
 1557 -428 1557 -428 1452.5 -488 c 128,-1,7
 1348 -548 1348 -548 1226 -548 c 0,8,9
 1156 -548 1156 -548 1099.5 -533 c 128,-1,10
 1043 -518 1043 -518 1008.5 -495 c 128,-1,11
 974 -472 974 -472 950.5 -442 c 128,-1,12
 927 -412 927 -412 918 -383 c 128,-1,13
 909 -354 909 -354 909 -326 c 0,14,15
 909 -233 909 -233 967 -176 c 128,-1,16
 1025 -119 1025 -119 1106 -119 c 0,17,18
 1188 -119 1188 -119 1247 -178.5 c 128,-1,19
 1306 -238 1306 -238 1306 -323 c 0,20,21
 1306 -396 1306 -396 1232 -450 c 1,0,1
1106 -231 m 0,22,23
 1072 -231 1072 -231 1047 -255 c 128,-1,24
 1022 -279 1022 -279 1022 -316 c 0,25,26
 1022 -352 1022 -352 1047 -375.5 c 128,-1,27
 1072 -399 1072 -399 1106 -399 c 0,28,29
 1142 -399 1142 -399 1166.5 -374.5 c 128,-1,30
 1191 -350 1191 -350 1191 -316 c 128,-1,31
 1191 -282 1191 -282 1166.5 -256.5 c 128,-1,32
 1142 -231 1142 -231 1106 -231 c 0,22,23
604 1266 m 256,33,34
 737 1266 737 1266 850.5 1201.5 c 128,-1,35
 964 1137 964 1137 1031 1024 c 128,-1,36
 1098 911 1098 911 1098 776 c 2,37,-1
 1098 112 l 1,38,-1
 1565 112 l 1,39,-1
 1565 1254 l 1,40,-1
 1678 1254 l 1,41,-1
 1678 0 l 1,42,-1
 985 0 l 1,43,-1
 985 776 l 2,44,45
 985 933 985 933 873.5 1043.5 c 128,-1,46
 762 1154 762 1154 604 1154 c 0,47,48
 555 1154 555 1154 507 1141.5 c 128,-1,49
 459 1129 459 1129 407.5 1101 c 128,-1,50
 356 1073 356 1073 311.5 1018 c 128,-1,51
 267 963 267 963 240 888 c 1,52,-1
 476 888 l 1,53,-1
 476 776 l 1,54,-1
 364 776 l 1,55,-1
 364 361 l 1,56,57
 404 379 404 379 449 379 c 0,58,59
 532 379 532 379 589.5 322 c 128,-1,60
 647 265 647 265 647 184 c 0,61,62
 647 102 647 102 589.5 45 c 128,-1,63
 532 -12 532 -12 448 -12 c 128,-1,64
 364 -12 364 -12 307.5 45.5 c 128,-1,65
 251 103 251 103 251 184 c 2,66,-1
 251 776 l 1,67,-1
 110 776 l 1,68,69
 110 978 110 978 255 1122 c 128,-1,70
 400 1266 400 1266 604 1266 c 256,33,34
449 267 m 0,71,72
 413 267 413 267 388.5 242 c 128,-1,73
 364 217 364 217 364 183 c 0,74,75
 364 147 364 147 389 123.5 c 128,-1,76
 414 100 414 100 449 100 c 0,77,78
 485 100 485 100 509.5 124 c 128,-1,79
 534 148 534 148 534 183 c 0,80,81
 534 219 534 219 508.5 243 c 128,-1,82
 483 267 483 267 449 267 c 0,71,72
EndSplineSet
Substitution2: "'ccmp' Pali-Sanskrit Descender Removal" uni0E0D.descless
Substitution2: "Thai Descender Removal Single Substitution" uni0E0D.descless
EndChar

StartChar: uni0E0E
Encoding: 3598 3598 137
Width: 1373
VWidth: 2045
Flags: W
HStem: -541 112<574.497 724.852> -261 112<575.802 724.023> -12 112<219.484 367.558> 267 112<219.558 368.497> 776 112<338 378 491 604> 1154 112<522.357 877.185>
VStem: 96 113<111.164 255.898> 378 113<111.822 257.387 361 776> 451 113<-417.63 -271.309> 1084 113<-379 945.432>
AnchorPoint: "BelowBase" 1144 -625 basechar 0
LayerCount: 3
Fore
SplineSet
703 1266 m 256xff40
 973 1266 1197 1049 1197 776 c 2
 1197 -426 l 17
 1024 -597 l 17
 849 -424 l 17
 790 -483 l 2
 750 -522 703 -541 649 -541 c 0
 537 -541 451 -452 451 -345 c 0xfec0
 451 -233 541 -149 650 -149 c 0
 704 -149 751 -169 790 -207 c 2
 849 -266 l 9
 928 -187 l 1
 1009 -266 l 1
 930 -344 l 25
 1024 -438 l 9
 1084 -379 l 9
 1084 776 l 2
 1084 988 909 1154 703 1154 c 256
 587 1154 408 1097 338 888 c 9
 604 888 l 1
 604 776 l 1
 491 776 l 17
 491 184 l 2
 491 75 404 -12 294 -12 c 0
 182 -12 96 76 96 184 c 0
 96 291 183 379 293 379 c 0
 324 379 353 373 378 361 c 9
 378 776 l 9
 209 776 l 1
 209 1046 431 1266 703 1266 c 256xff40
650 -261 m 0
 597 -261 564 -303 564 -346 c 0
 564 -396 604 -429 650 -429 c 0
 698 -429 735 -392 735 -346 c 0
 735 -303 701 -261 650 -261 c 0
294 267 m 0
 245 267 209 228 209 183 c 0
 209 133 249 100 294 100 c 0
 343 100 378 137 378 183 c 0xff40
 378 232 339 267 294 267 c 0
EndSplineSet
Validated: 1
Layer: 2
SplineSet
703 1266 m 256,0,1
 836 1266 836 1266 949.5 1201 c 128,-1,2
 1063 1136 1063 1136 1130 1023 c 128,-1,3
 1197 910 1197 910 1197 776 c 2,4,-1
 1197 -426 l 1,5,-1
 1024 -597 l 1,6,-1
 849 -424 l 1,7,-1
 790 -483 l 2,8,9
 731 -541 731 -541 649 -541 c 0,10,11
 566 -541 566 -541 508.5 -483.5 c 128,-1,12
 451 -426 451 -426 451 -345 c 0,13,14
 451 -262 451 -262 509 -205.5 c 128,-1,15
 567 -149 567 -149 650 -149 c 0,16,17
 730 -149 730 -149 790 -207 c 2,18,-1
 849 -266 l 1,19,-1
 928 -187 l 1,20,-1
 1009 -266 l 1,21,-1
 930 -344 l 1,22,-1
 1024 -438 l 1,23,-1
 1084 -379 l 1,24,-1
 1084 776 l 2,25,26
 1084 934 1084 934 971.5 1044 c 128,-1,27
 859 1154 859 1154 703 1154 c 0,28,29
 655 1154 655 1154 606 1141 c 128,-1,30
 557 1128 557 1128 504.5 1100 c 128,-1,31
 452 1072 452 1072 407.5 1017 c 128,-1,32
 363 962 363 962 338 888 c 1,33,-1
 604 888 l 1,34,-1
 604 776 l 1,35,-1
 491 776 l 1,36,-1
 491 184 l 2,37,38
 491 102 491 102 433.5 45 c 128,-1,39
 376 -12 376 -12 294 -12 c 0,40,41
 210 -12 210 -12 153 45 c 128,-1,42
 96 102 96 102 96 184 c 0,43,44
 96 265 96 265 153.5 322 c 128,-1,45
 211 379 211 379 293 379 c 0,46,47
 340 379 340 379 378 361 c 1,48,-1
 378 776 l 1,49,-1
 209 776 l 1,50,51
 209 978 209 978 354 1122 c 128,-1,52
 499 1266 499 1266 703 1266 c 256,0,1
650 -261 m 0,53,54
 612 -261 612 -261 588 -286.5 c 128,-1,55
 564 -312 564 -312 564 -346 c 0,56,57
 564 -383 564 -383 589 -406 c 128,-1,58
 614 -429 614 -429 650 -429 c 128,-1,59
 686 -429 686 -429 710.5 -405 c 128,-1,60
 735 -381 735 -381 735 -346 c 0,61,62
 735 -312 735 -312 711 -286.5 c 128,-1,63
 687 -261 687 -261 650 -261 c 0,53,54
294 267 m 0,64,65
 258 267 258 267 233.5 242 c 128,-1,66
 209 217 209 217 209 183 c 0,67,68
 209 147 209 147 234 123.5 c 128,-1,69
 259 100 259 100 294 100 c 0,70,71
 330 100 330 100 354 124 c 128,-1,72
 378 148 378 148 378 183 c 0,73,74
 378 219 378 219 353 243 c 128,-1,75
 328 267 328 267 294 267 c 0,64,65
EndSplineSet
EndChar

StartChar: uni0E0F
Encoding: 3599 3599 138
Width: 1373
VWidth: 2045
Flags: W
HStem: -571 112<332.465 481.693> -292 112<332.558 480.683> -12 112<219.484 367.558> 267 112<219.558 368.497> 776 112<338 378 491 604> 1154 112<522.357 877.185>
VStem: 96 113<111.164 255.898> 209 113<-448.267 -303.326> 378 113<111.822 257.387 361 776> 1084 113<-387 945.432>
AnchorPoint: "BelowBase" 1105 -625 basechar 0
LayerCount: 3
Fore
SplineSet
209 -376 m 0xfdc0
 209 -268 296 -180 406 -180 c 0
 461 -180 507 -199 546 -237 c 2
 607 -296 l 9
 686 -218 l 1
 765 -296 l 1
 686 -375 l 25
 758 -447 l 1
 890 -314 l 25
 1024 -447 l 9
 1084 -387 l 9
 1084 776 l 2
 1084 988 909 1154 703 1154 c 256
 587 1154 408 1097 338 888 c 9
 604 888 l 1
 604 776 l 1
 491 776 l 17
 491 184 l 2
 491 75 404 -12 294 -12 c 0
 182 -12 96 76 96 184 c 0xfec0
 96 291 183 379 293 379 c 0
 324 379 353 373 378 361 c 9
 378 776 l 9
 209 776 l 1
 209 1046 431 1266 703 1266 c 256
 973 1266 1197 1049 1197 776 c 2
 1197 -432 l 17
 1024 -604 l 17
 890 -473 l 25
 758 -604 l 1
 607 -455 l 17
 546 -514 l 2
 507 -552 461 -571 406 -571 c 0
 296 -571 209 -484 209 -376 c 0xfdc0
407 -292 m 0
 358 -292 322 -331 322 -376 c 0xfdc0
 322 -426 362 -459 407 -459 c 0
 456 -459 491 -422 491 -376 c 0
 491 -327 452 -292 407 -292 c 0
294 267 m 0
 245 267 209 228 209 183 c 0xfec0
 209 133 249 100 294 100 c 0
 343 100 378 137 378 183 c 0
 378 232 339 267 294 267 c 0
EndSplineSet
Validated: 1
Layer: 2
SplineSet
209 -376 m 128,-1,1
 209 -295 209 -295 266.5 -237.5 c 128,-1,2
 324 -180 324 -180 406 -180 c 128,-1,3
 488 -180 488 -180 546 -237 c 2,4,-1
 607 -296 l 1,5,-1
 686 -218 l 1,6,-1
 765 -296 l 1,7,-1
 686 -375 l 1,8,-1
 758 -447 l 1,9,-1
 890 -314 l 1,10,-1
 1024 -447 l 1,11,-1
 1084 -387 l 1,12,-1
 1084 776 l 2,13,14
 1084 934 1084 934 971.5 1044 c 128,-1,15
 859 1154 859 1154 703 1154 c 0,16,17
 655 1154 655 1154 606 1141 c 128,-1,18
 557 1128 557 1128 504.5 1100 c 128,-1,19
 452 1072 452 1072 407.5 1017 c 128,-1,20
 363 962 363 962 338 888 c 1,21,-1
 604 888 l 1,22,-1
 604 776 l 1,23,-1
 491 776 l 1,24,-1
 491 184 l 2,25,26
 491 102 491 102 433.5 45 c 128,-1,27
 376 -12 376 -12 294 -12 c 0,28,29
 210 -12 210 -12 153 45 c 128,-1,30
 96 102 96 102 96 184 c 0,31,32
 96 265 96 265 153.5 322 c 128,-1,33
 211 379 211 379 293 379 c 0,34,35
 340 379 340 379 378 361 c 1,36,-1
 378 776 l 1,37,-1
 209 776 l 1,38,39
 209 978 209 978 354 1122 c 128,-1,40
 499 1266 499 1266 703 1266 c 0,41,42
 836 1266 836 1266 949.5 1201 c 128,-1,43
 1063 1136 1063 1136 1130 1023 c 128,-1,44
 1197 910 1197 910 1197 776 c 2,45,-1
 1197 -432 l 1,46,-1
 1024 -604 l 1,47,-1
 890 -473 l 1,48,-1
 758 -604 l 1,49,-1
 607 -455 l 1,50,-1
 546 -514 l 2,51,52
 488 -571 488 -571 406 -571 c 128,-1,53
 324 -571 324 -571 266.5 -514 c 128,-1,0
 209 -457 209 -457 209 -376 c 128,-1,1
407 -292 m 0,54,55
 371 -292 371 -292 346.5 -317 c 128,-1,56
 322 -342 322 -342 322 -376 c 0,57,58
 322 -412 322 -412 347 -435.5 c 128,-1,59
 372 -459 372 -459 407 -459 c 0,60,61
 443 -459 443 -459 467 -435 c 128,-1,62
 491 -411 491 -411 491 -376 c 0,63,64
 491 -340 491 -340 466 -316 c 128,-1,65
 441 -292 441 -292 407 -292 c 0,54,55
294 267 m 0,66,67
 258 267 258 267 233.5 242 c 128,-1,68
 209 217 209 217 209 183 c 0,69,70
 209 147 209 147 234 123.5 c 128,-1,71
 259 100 259 100 294 100 c 0,72,73
 330 100 330 100 354 124 c 128,-1,74
 378 148 378 148 378 183 c 0,75,76
 378 219 378 219 353 243 c 128,-1,77
 328 267 328 267 294 267 c 0,66,67
EndSplineSet
EndChar

